<svg width="48" height="33" viewBox="0 0 48 33" fill="none" xmlns="http://www.w3.org/2000/svg">
<path d="M44.25 0C44.7656 0 45.25 0.09375 45.7031 0.28125C46.1562 0.46875 46.5547 0.742188 46.8984 1.10156C47.2422 1.46094 47.5078 1.85938 47.6953 2.29688C47.8828 2.73438 47.9844 3.21875 48 3.75V29.25C48 29.7656 47.9062 30.25 47.7188 30.7031C47.5312 31.1563 47.2578 31.5547 46.8984 31.8984C46.5391 32.2422 46.1406 32.5078 45.7031 32.6953C45.2656 32.8828 44.7812 32.9844 44.25 33H3.75C3.23438 33 2.75 32.9063 2.29687 32.7188C1.84375 32.5313 1.44531 32.2578 1.10156 31.8984C0.757812 31.5391 0.492188 31.1406 0.304688 30.7031C0.117187 30.2656 0.015625 29.7813 0 29.25V3.75C0 3.23438 0.09375 2.75 0.28125 2.29688C0.46875 1.84375 0.742188 1.44531 1.10156 1.10156C1.46094 0.757813 1.85937 0.492188 2.29687 0.304688C2.73437 0.117188 3.21875 0.015625 3.75 0H44.25ZM3.75 3C3.53125 3 3.35156 3.07031 3.21094 3.21094C3.07031 3.35156 3 3.53125 3 3.75V9H45V3.75C45 3.53125 44.9297 3.35156 44.7891 3.21094C44.6484 3.07031 44.4688 3 44.25 3H3.75ZM44.25 30C44.4688 30 44.6484 29.9297 44.7891 29.7891C44.9297 29.6484 45 29.4688 45 29.25V12H3V29.25C3 29.4688 3.07031 29.6484 3.21094 29.7891C3.35156 29.9297 3.53125 30 3.75 30H44.25ZM33 21H39V24H33V21Z" fill="#04C6FB"/>
</svg>
