<svg width="25" height="22" viewBox="0 0 25 22" fill="none" xmlns="http://www.w3.org/2000/svg">
<path fill-rule="evenodd" clip-rule="evenodd" d="M0 10.9999C0 10.6021 0.158036 10.2206 0.43934 9.93928C0.720645 9.65798 1.10218 9.49994 1.5 9.49994H18.879L12.438 3.06194C12.1563 2.78028 11.9981 2.39827 11.9981 1.99994C11.9981 1.60161 12.1563 1.2196 12.438 0.937942C12.7197 0.656282 13.1017 0.498047 13.5 0.498047C13.8983 0.498047 14.2803 0.656282 14.562 0.937942L23.562 9.93794C23.7017 10.0773 23.8125 10.2428 23.8881 10.425C23.9638 10.6073 24.0027 10.8026 24.0027 10.9999C24.0027 11.1972 23.9638 11.3926 23.8881 11.5748C23.8125 11.7571 23.7017 11.9226 23.562 12.0619L14.562 21.0619C14.2803 21.3436 13.8983 21.5018 13.5 21.5018C13.1017 21.5018 12.7197 21.3436 12.438 21.0619C12.1563 20.7803 11.9981 20.3983 11.9981 19.9999C11.9981 19.6016 12.1563 19.2196 12.438 18.9379L18.879 12.4999H1.5C1.10218 12.4999 0.720645 12.3419 0.43934 12.0606C0.158036 11.7793 0 11.3978 0 10.9999Z" fill="black"/>
</svg>
