<svg width="25" height="22" viewBox="0 0 25 22" fill="none" xmlns="http://www.w3.org/2000/svg">
<path fill-rule="evenodd" clip-rule="evenodd" d="M25 11.0001C25 11.3979 24.842 11.7794 24.5607 12.0607C24.2794 12.342 23.8978 12.5001 23.5 12.5001L6.121 12.5001L12.562 18.9381C12.8437 19.2197 13.0019 19.6017 13.0019 20.0001C13.0019 20.3984 12.8437 20.7804 12.562 21.0621C12.2803 21.3437 11.8983 21.502 11.5 21.502C11.1017 21.502 10.7197 21.3437 10.438 21.0621L1.438 12.0621C1.29831 11.9227 1.18748 11.7572 1.11186 11.575C1.03624 11.3927 0.997317 11.1974 0.997317 11.0001C0.997317 10.8028 1.03624 10.6074 1.11186 10.4252C1.18748 10.2429 1.29831 10.0774 1.438 9.93806L10.438 0.93806C10.7197 0.6564 11.1017 0.498166 11.5 0.498166C11.8983 0.498166 12.2803 0.6564 12.562 0.93806C12.8437 1.21972 13.0019 1.60173 13.0019 2.00006C13.0019 2.39839 12.8437 2.7804 12.562 3.06206L6.121 9.50006L23.5 9.50006C23.8978 9.50006 24.2794 9.65809 24.5607 9.9394C24.842 10.2207 25 10.6022 25 11.0001Z" fill="black"/>
</svg>
