<svg width="165" height="35" viewBox="0 0 165 35" fill="none" xmlns="http://www.w3.org/2000/svg">
<g clip-path="url(#clip0_355_1404)">
<path d="M6.14963 28.8446H10.8828V33.8335C9.60963 34.1049 8.30249 34.2473 6.98915 34.2577C1.86907 34.2577 0 32.1453 0 28.6615C0 25.1777 2.4944 23.7598 5.72813 23.7598C9.16225 23.7598 10.7791 25.0063 10.7791 27.3453V27.6126H8.32272V27.4295C8.32272 26.2964 7.345 25.6862 5.7765 25.6862C4.208 25.6862 2.76388 26.5491 2.76388 28.647C2.76388 30.6315 3.33393 32.4591 6.83714 32.4591C7.18262 32.4591 7.74922 32.4301 8.35382 32.3865V30.5473H6.14963V28.8446Z" fill="white"/>
<path d="M15.781 30.7305C15.781 32.0177 16.3545 32.2589 17.9195 32.2589H21.2569V34.1301H17.8712C14.2989 34.1301 13.2209 33.392 13.2209 30.8002V23.9023H21.0358V25.73H15.781V27.854H20.1963V29.6671H15.781V30.7305Z" fill="white"/>
<path d="M30.085 30.2337C31.1001 31.4019 31.8637 32.7109 32.341 34.101H29.5771C29.1875 33.0789 28.6318 32.107 27.9257 31.2128C27.2937 31.4233 26.6477 31.6028 25.991 31.7504V34.101H23.4137V23.9023H27.3868C29.8293 23.9023 32.037 24.6229 32.037 27.1741C32.037 28.5484 31.194 29.5247 30.085 30.2337ZM27.0171 25.6864H26.0394V29.7542C27.2382 29.4637 29.242 29.0017 29.242 27.2583C29.242 26.067 28.2988 25.6864 27.0171 25.6864Z" fill="white"/>
<path d="M44.7705 34.1001H42.1482C42.022 33.3951 41.8536 32.6959 41.6438 32.0052C39.8484 32.0601 38.0747 32.3543 36.389 32.8768C36.2715 33.3011 36.1852 33.7137 36.1195 34.1088H33.5111C34.1675 30.7093 35.6842 27.3097 38.0024 23.9102H40.3102C42.6146 27.301 44.1313 30.7151 44.7705 34.1001ZM37.004 30.872C38.3103 30.5175 39.663 30.298 41.0323 30.2182C40.5318 28.9058 39.8996 27.6314 39.1425 26.409C38.2486 27.8307 37.5319 29.3263 37.004 30.872Z" fill="white"/>
<path d="M46.6405 23.9023H49.2178C51.2907 25.1895 52.9387 26.7905 54.5072 28.7605V23.9023H57.0845V34.101H54.5072V32.2734C52.8212 29.8385 51.0523 27.9673 49.2178 26.622V34.101H46.6405V23.9023Z" fill="white"/>
<path d="M59.879 23.9023H64.5603C67.4762 23.9023 70.6581 24.9222 70.6581 28.4206C70.6581 32.346 66.4329 34.101 62.4563 34.101H59.879V23.9023ZM62.4563 32.1891C65.5657 32.1891 67.9461 30.8845 67.9461 28.5048C67.9461 26.3663 66.2636 25.7997 64.1458 25.7997H62.446L62.4563 32.1891Z" fill="white"/>
<path d="M78.4768 34.2432C74.5175 34.2432 72.2581 32.2093 72.2581 28.9724C72.2581 25.7356 74.5175 23.7598 78.4768 23.7598C82.436 23.7598 84.6437 25.7152 84.6437 28.9434C84.6437 32.1715 82.4015 34.2432 78.4768 34.2432ZM78.4768 25.5874C76.1171 25.5874 74.939 27.0402 74.939 28.9579C74.939 30.8756 76.1171 32.4156 78.4768 32.4156C80.8364 32.4156 82.0111 30.8727 82.0111 28.9579C82.0111 27.0431 80.8157 25.5874 78.4768 25.5874Z" fill="white"/>
<path d="M90.8627 34.101V23.9023H98.7777V25.7997H93.4814V28.5048H97.8277V30.3906H93.4814V34.101H90.8627Z" fill="white"/>
<path d="M110.514 34.1001H107.903C107.776 33.3951 107.608 32.6959 107.398 32.0052C105.602 32.0601 103.827 32.3543 102.14 32.8768C102.022 33.3011 101.939 33.7137 101.87 34.1088H99.262C99.9184 30.7093 101.435 27.3097 103.753 23.9102H106.065C108.359 27.301 109.865 30.7151 110.514 34.1001ZM102.748 30.872C104.053 30.5177 105.405 30.2982 106.773 30.2182C106.275 28.9054 105.644 27.6309 104.886 26.409C103.993 27.8307 103.276 29.3263 102.748 30.872Z" fill="white"/>
<path d="M116.56 32.1891H120.23V34.1301H116.509C113.562 34.1301 112.314 33.6913 112.314 30.9978V23.9023H114.944V30.899C114.944 31.9044 115.261 32.1891 116.56 32.1891Z" fill="white"/>
<path d="M131.719 33.9323C130.532 34.1364 129.323 34.2405 128.112 34.2432C123.379 34.2432 120.971 32.0756 120.971 28.676C120.971 25.076 123.548 23.7598 126.799 23.7598C130.254 23.7598 131.719 25.1632 131.719 27.5835V27.8392H129.3V27.6417C129.3 26.3806 128.405 25.6717 126.771 25.6717C125.044 25.6717 123.62 26.4387 123.62 28.6325C123.62 30.2189 124.398 32.4097 128.744 32.4097C129.738 32.3982 130.73 32.3175 131.708 32.1686L131.719 33.9323Z" fill="white"/>
<path d="M138.64 34.2287C135.206 34.2287 133.22 32.4854 133.22 29.7396C133.22 26.9938 135.206 25.3027 138.64 25.3027C142.074 25.3027 144.068 26.9618 144.068 29.7251C144.068 32.4883 142.078 34.2287 138.64 34.2287ZM138.64 27.1304C136.823 27.1304 135.876 28.2926 135.876 29.7251C135.876 31.1575 136.82 32.4011 138.64 32.4011C140.461 32.4011 141.404 31.1837 141.404 29.7251C141.404 28.2664 140.461 27.1304 138.64 27.1304Z" fill="white"/>
<path d="M148.903 30.7305C148.903 32.0177 149.473 32.2589 151.041 32.2589H154.375V34.1301H150.976C147.403 34.1301 146.325 33.392 146.325 30.8002V23.9023H154.154V25.73H148.903V27.854H153.314V29.6671H148.903V30.7305Z" fill="white"/>
<path d="M159.09 26.677C159.09 28.8039 165.001 27.7259 165.001 31.3521C165.001 33.819 162.828 34.2577 160.371 34.2577C158.961 34.2527 157.563 34.0373 156.243 33.6214V31.8199C157.475 32.2509 158.798 32.4684 160.133 32.4591C161.169 32.4591 162.441 32.3197 162.441 31.3405C162.441 29.5564 156.53 30.4485 156.53 26.6654C156.53 24.9394 157.911 23.7598 160.624 23.7598C163.336 23.7598 164.666 24.9511 164.666 26.7787V27.0315H162.223V26.8484C162.241 26.6718 162.212 26.4941 162.139 26.3279C162.066 26.1616 161.95 26.0109 161.8 25.8864C161.651 25.762 161.47 25.6667 161.271 25.6075C161.073 25.5483 160.861 25.5266 160.651 25.5438C159.698 25.5438 159.09 26.0116 159.09 26.677Z" fill="white"/>
<path d="M135.81 24.4948C138.228 25.1166 139.144 23.7481 141.42 24.5791V23.1989C139.144 22.3708 138.239 23.7365 135.81 23.1147V24.4948Z" fill="white"/>
<path d="M105.656 0.45938C104.82 0.563614 103.991 0.709145 103.175 0.89522C100.004 2.10976 94.6384 4.69284 90.6757 7.81927C106.568 4.37032 124.996 8.98151 127.083 8.94955C129.252 8.91469 130.192 8.13017 130.192 8.13017C130.192 8.13017 137.427 9.05706 139.52 9.29241C142.975 9.66433 145.231 7.17132 145.231 7.17132C118.981 3.25166 116.394 -0.86267 105.656 0.45938Z" fill="white"/>
<path d="M82.5013 15.8797C83.4652 15.5601 85.2859 14.0869 86.8233 11.7683C90.0052 6.97401 98.746 2.59236 103.182 0.892578C98.9878 1.80494 91.9468 4.51296 87.6352 5.64614C85.9668 6.07127 84.2372 6.30295 82.4944 6.33477C80.7515 6.30295 79.022 6.07127 77.3536 5.64614C73.0488 4.51296 66.0079 1.80494 61.8068 0.892578C66.2428 2.59236 74.9835 6.97401 78.1655 11.7683C79.7029 14.0927 81.5201 15.5601 82.4875 15.8797H82.5013Z" fill="#C6C6C5"/>
<path d="M61.8418 0.895239C61.0246 0.709455 60.1952 0.563928 59.3578 0.459399C48.6063 -0.862651 46.0186 3.25168 19.7653 7.16262C19.7653 7.16262 22.0247 9.65563 25.4761 9.28372C27.587 9.05708 34.8042 8.12147 34.8042 8.12147C34.8042 8.12147 35.7336 8.90599 37.9136 8.94085C39.9865 8.97282 58.4492 4.36162 74.3242 7.81057C70.3649 4.69577 64.9996 2.11269 61.8418 0.895239Z" fill="white"/>
</g>
<defs>
<clipPath id="clip0_355_1404">
<rect width="165" height="34.0508" fill="white" transform="translate(0 0.207031)"/>
</clipPath>
</defs>
</svg>
