<svg width="40" height="40" viewBox="0 0 40 40" fill="none" xmlns="http://www.w3.org/2000/svg">
<g clip-path="url(#clip0_594_2193)">
<path d="M37.338 30C37.338 30.663 37.0758 31.2989 36.6089 31.7678C36.1421 32.2366 35.509 32.5 34.8488 32.5H4.9784C4.31822 32.5 3.68509 32.2366 3.21827 31.7678C2.75146 31.2989 2.4892 30.663 2.4892 30V15C2.4892 14.337 2.75146 13.7011 3.21827 13.2322C3.68509 12.7634 4.31822 12.5 4.9784 12.5H7.89574C9.87525 12.4989 11.7733 11.7085 13.1729 10.3025L15.2389 8.2325C15.7044 7.76485 16.3354 7.50147 16.9938 7.5H22.8285C23.4886 7.50014 24.1216 7.76363 24.5883 8.2325L26.6494 10.3025C27.343 10.9993 28.1664 11.552 29.0727 11.9291C29.9791 12.3061 30.9505 12.5001 31.9315 12.5H34.8488C35.509 12.5 36.1421 12.7634 36.6089 13.2322C37.0758 13.7011 37.338 14.337 37.338 15V30ZM4.9784 10C3.65805 10 2.39177 10.5268 1.45814 11.4645C0.524509 12.4021 0 13.6739 0 15L0 30C0 31.3261 0.524509 32.5979 1.45814 33.5355C2.39177 34.4732 3.65805 35 4.9784 35H34.8488C36.1692 35 37.4354 34.4732 38.3691 33.5355C39.3027 32.5979 39.8272 31.3261 39.8272 30V15C39.8272 13.6739 39.3027 12.4021 38.3691 11.4645C37.4354 10.5268 36.1692 10 34.8488 10H31.9315C30.6112 9.99972 29.3452 9.47275 28.4117 8.535L26.3507 6.465C25.4173 5.52725 24.1512 5.00028 22.8309 5H16.9963C15.676 5.00028 14.4099 5.52725 13.4765 6.465L11.4155 8.535C10.4821 9.47275 9.21599 9.99972 7.89574 10H4.9784Z" fill="black"/>
<path d="M19.9137 27.5C18.2633 27.5 16.6804 26.8415 15.5134 25.6694C14.3464 24.4973 13.6907 22.9076 13.6907 21.25C13.6907 19.5924 14.3464 18.0027 15.5134 16.8306C16.6804 15.6585 18.2633 15 19.9137 15C21.5642 15 23.147 15.6585 24.314 16.8306C25.4811 18.0027 26.1367 19.5924 26.1367 21.25C26.1367 22.9076 25.4811 24.4973 24.314 25.6694C23.147 26.8415 21.5642 27.5 19.9137 27.5ZM19.9137 30C22.2243 30 24.4403 29.0781 26.0742 27.4372C27.708 25.7962 28.6259 23.5706 28.6259 21.25C28.6259 18.9294 27.708 16.7038 26.0742 15.0628C24.4403 13.4219 22.2243 12.5 19.9137 12.5C17.6031 12.5 15.3871 13.4219 13.7533 15.0628C12.1194 16.7038 11.2015 18.9294 11.2015 21.25C11.2015 23.5706 12.1194 25.7962 13.7533 27.4372C15.3871 29.0781 17.6031 30 19.9137 30ZM7.46772 16.25C7.46772 16.5815 7.33659 16.8995 7.10318 17.1339C6.86977 17.3683 6.5532 17.5 6.22312 17.5C5.89303 17.5 5.57646 17.3683 5.34305 17.1339C5.10964 16.8995 4.97852 16.5815 4.97852 16.25C4.97852 15.9185 5.10964 15.6005 5.34305 15.3661C5.57646 15.1317 5.89303 15 6.22312 15C6.5532 15 6.86977 15.1317 7.10318 15.3661C7.33659 15.6005 7.46772 15.9185 7.46772 16.25Z" fill="black"/>
</g>
<defs>
<clipPath id="clip0_594_2193">
<rect width="39.8272" height="40" fill="white"/>
</clipPath>
</defs>
</svg>
