<svg width="82" height="80" viewBox="0 0 82 80" fill="none" xmlns="http://www.w3.org/2000/svg">
<g clip-path="url(#clip0_594_2199)">
<path d="M64.8177 30.0391C67.1294 30.1953 69.2835 30.7552 71.28 31.7188C73.2765 32.6823 75.0234 33.9453 76.5208 35.5078C78.0182 37.0703 79.1872 38.8932 80.0278 40.9766C80.8684 43.0599 81.3019 45.2344 81.3281 47.5C81.3281 49.9219 80.8684 52.1875 79.949 54.2969C79.0296 56.4062 77.7686 58.2552 76.1662 59.8438C74.5637 61.4323 72.6986 62.6823 70.5707 63.5938C68.4429 64.5052 66.1443 64.974 63.675 65H51.0656V60H63.675C65.4088 60 67.0375 59.6745 68.5611 59.0234C70.0848 58.3724 71.4245 57.487 72.5804 56.3672C73.7362 55.2474 74.6425 53.9193 75.2993 52.3828C75.956 50.8464 76.2844 49.2188 76.2844 47.5C76.2844 45.7812 75.956 44.1667 75.2993 42.6562C74.6425 41.1458 73.7494 39.8177 72.6198 38.6719C71.4902 37.526 70.1504 36.6276 68.6005 35.9766C67.0506 35.3255 65.4088 35 63.675 35C63.2021 35 62.7424 35.026 62.2958 35.0781C61.8492 35.1302 61.3895 35.2083 60.9167 35.3125C60.654 33.125 60.0104 31.1068 58.9859 29.2578C57.9613 27.4089 56.6741 25.7943 55.1242 24.4141C53.5743 23.0339 51.8011 21.9531 49.8046 21.1719C47.8081 20.3906 45.7066 20 43.4999 20C41.661 20 39.8879 20.2734 38.1803 20.8203C36.4728 21.3672 34.9098 22.1354 33.4912 23.125C32.0726 24.1146 30.7986 25.2995 29.669 26.6797C28.5394 28.0599 27.6594 29.6224 27.0289 31.3672C25.0587 30.4557 22.9834 30 20.803 30C18.7014 30 16.7443 30.3906 14.9317 31.1719C13.1191 31.9531 11.5167 33.0208 10.1244 34.375C8.7321 35.7292 7.64191 37.3307 6.85383 39.1797C6.06574 41.0286 5.67169 42.9688 5.67169 45C5.67169 47.0833 6.06574 49.0234 6.85383 50.8203C7.64191 52.6172 8.71897 54.2057 10.085 55.5859C11.451 56.9661 13.0535 58.0469 14.8923 58.8281C16.7312 59.6094 18.7014 60 20.803 60H35.9343V65H20.803C18.0184 65 15.4046 64.4792 12.9615 63.4375C10.5184 62.3958 8.3906 60.9635 6.57799 59.1406C4.76539 57.3177 3.32056 55.1953 2.24351 52.7734C1.16646 50.3516 0.62793 47.7604 0.62793 45C0.62793 42.2396 1.15332 39.6484 2.20411 37.2266C3.25489 34.8047 4.69972 32.6953 6.53859 30.8984C8.37746 29.1016 10.5184 27.6693 12.9615 26.6016C15.4046 25.5339 18.0184 25 20.803 25C22.0114 25 23.2329 25.1172 24.4676 25.3516C25.5184 23.763 26.7399 22.3307 28.1322 21.0547C29.5245 19.7786 31.035 18.6979 32.6637 17.8125C34.2924 16.9271 36.0262 16.237 37.8651 15.7422C39.704 15.2474 41.5822 15 43.4999 15C45.8905 15 48.189 15.3646 50.3957 16.0938C52.6023 16.8229 54.6514 17.8385 56.5428 19.1406C58.4342 20.4427 60.0892 22.0312 61.5077 23.9062C62.9263 25.7812 64.0296 27.8255 64.8177 30.0391ZM51.8142 54.2578L46.0218 48.5547V75H40.978V48.5547L35.1856 54.2578L31.6392 50.7422L43.4999 38.9844L55.3606 50.7422L51.8142 54.2578Z" fill="#6C6C6C"/>
</g>
<defs>
<clipPath id="clip0_594_2199">
<rect width="80.7002" height="80" fill="white" transform="translate(0.62793)"/>
</clipPath>
</defs>
</svg>
