<svg width="610" height="250" viewBox="0 0 610 250" fill="none" xmlns="http://www.w3.org/2000/svg">
<rect x="1" y="1" width="608" height="248" fill="#F2F2F2" stroke="#888888" stroke-width="2" stroke-dasharray="6 6"/>
<path d="M154.826 153.672H162.522V155.976H157.322V158.088H162.234V160.392H157.322V162.696H162.81V165H154.826V153.672ZM168.904 159.512C168.552 159.075 168.088 158.856 167.512 158.856C167.31 158.856 167.112 158.904 166.92 159C166.728 159.096 166.632 159.261 166.632 159.496C166.632 159.688 166.728 159.832 166.92 159.928C167.123 160.013 167.374 160.093 167.672 160.168C167.982 160.232 168.307 160.307 168.648 160.392C169 160.467 169.326 160.589 169.624 160.76C169.934 160.931 170.184 161.165 170.376 161.464C170.579 161.752 170.68 162.141 170.68 162.632C170.68 163.133 170.568 163.549 170.344 163.88C170.131 164.2 169.854 164.461 169.512 164.664C169.171 164.856 168.787 164.989 168.36 165.064C167.934 165.149 167.512 165.192 167.096 165.192C166.552 165.192 166.003 165.117 165.448 164.968C164.894 164.808 164.424 164.531 164.04 164.136L165.496 162.52C165.72 162.797 165.966 163.011 166.232 163.16C166.51 163.299 166.83 163.368 167.192 163.368C167.47 163.368 167.72 163.331 167.944 163.256C168.168 163.171 168.28 163.021 168.28 162.808C168.28 162.605 168.179 162.456 167.976 162.36C167.784 162.253 167.534 162.168 167.224 162.104C166.926 162.029 166.6 161.955 166.248 161.88C165.907 161.795 165.582 161.672 165.272 161.512C164.974 161.352 164.723 161.128 164.52 160.84C164.328 160.541 164.232 160.147 164.232 159.656C164.232 159.197 164.323 158.803 164.504 158.472C164.696 158.141 164.942 157.869 165.24 157.656C165.55 157.443 165.902 157.288 166.296 157.192C166.691 157.085 167.091 157.032 167.496 157.032C168.008 157.032 168.526 157.107 169.048 157.256C169.571 157.405 170.014 157.672 170.376 158.056L168.904 159.512ZM177.175 159.736C177.057 159.565 176.892 159.427 176.679 159.32C176.465 159.203 176.236 159.144 175.991 159.144C175.383 159.144 174.908 159.325 174.567 159.688C174.236 160.051 174.071 160.525 174.071 161.112C174.071 161.699 174.236 162.173 174.567 162.536C174.908 162.899 175.383 163.08 175.991 163.08C176.257 163.08 176.487 163.021 176.679 162.904C176.871 162.787 177.036 162.648 177.175 162.488L178.759 164.152C178.385 164.536 177.943 164.808 177.431 164.968C176.929 165.117 176.449 165.192 175.991 165.192C175.393 165.192 174.828 165.096 174.295 164.904C173.772 164.712 173.313 164.44 172.919 164.088C172.535 163.725 172.231 163.293 172.007 162.792C171.783 162.291 171.671 161.731 171.671 161.112C171.671 160.493 171.783 159.933 172.007 159.432C172.231 158.931 172.535 158.504 172.919 158.152C173.313 157.789 173.772 157.512 174.295 157.32C174.828 157.128 175.393 157.032 175.991 157.032C176.449 157.032 176.929 157.112 177.431 157.272C177.943 157.421 178.385 157.688 178.759 158.072L177.175 159.736ZM179.341 161.112C179.341 160.493 179.453 159.933 179.677 159.432C179.901 158.931 180.205 158.504 180.589 158.152C180.984 157.789 181.443 157.512 181.965 157.32C182.499 157.128 183.064 157.032 183.661 157.032C184.259 157.032 184.819 157.128 185.341 157.32C185.875 157.512 186.333 157.789 186.717 158.152C187.112 158.504 187.421 158.931 187.645 159.432C187.869 159.933 187.981 160.493 187.981 161.112C187.981 161.731 187.869 162.291 187.645 162.792C187.421 163.293 187.112 163.725 186.717 164.088C186.333 164.44 185.875 164.712 185.341 164.904C184.819 165.096 184.259 165.192 183.661 165.192C183.064 165.192 182.499 165.096 181.965 164.904C181.443 164.712 180.984 164.44 180.589 164.088C180.205 163.725 179.901 163.293 179.677 162.792C179.453 162.291 179.341 161.731 179.341 161.112ZM181.741 161.112C181.741 161.699 181.907 162.173 182.237 162.536C182.579 162.899 183.053 163.08 183.661 163.08C184.269 163.08 184.739 162.899 185.069 162.536C185.411 162.173 185.581 161.699 185.581 161.112C185.581 160.525 185.411 160.051 185.069 159.688C184.739 159.325 184.269 159.144 183.661 159.144C183.053 159.144 182.579 159.325 182.237 159.688C181.907 160.051 181.741 160.525 181.741 161.112ZM189.427 152.904H191.827V165H189.427V152.904ZM195.951 152.904V158.28H195.983C196.036 158.131 196.127 157.981 196.255 157.832C196.383 157.683 196.538 157.549 196.719 157.432C196.9 157.315 197.114 157.219 197.359 157.144C197.604 157.069 197.871 157.032 198.159 157.032C198.767 157.032 199.258 157.128 199.631 157.32C200.004 157.501 200.292 157.757 200.495 158.088C200.708 158.419 200.852 158.808 200.927 159.256C201.002 159.704 201.039 160.189 201.039 160.712V165H198.639V161.192C198.639 160.968 198.628 160.739 198.607 160.504C198.596 160.259 198.548 160.035 198.463 159.832C198.388 159.629 198.266 159.464 198.095 159.336C197.935 159.208 197.7 159.144 197.391 159.144C197.082 159.144 196.831 159.203 196.639 159.32C196.447 159.427 196.298 159.576 196.191 159.768C196.095 159.949 196.031 160.157 195.999 160.392C195.967 160.627 195.951 160.872 195.951 161.128V165H193.551V152.904H195.951ZM210.099 163.656C209.715 164.147 209.229 164.525 208.643 164.792C208.056 165.059 207.448 165.192 206.819 165.192C206.221 165.192 205.656 165.096 205.123 164.904C204.6 164.712 204.141 164.44 203.747 164.088C203.363 163.725 203.059 163.293 202.835 162.792C202.611 162.291 202.499 161.731 202.499 161.112C202.499 160.493 202.611 159.933 202.835 159.432C203.059 158.931 203.363 158.504 203.747 158.152C204.141 157.789 204.6 157.512 205.123 157.32C205.656 157.128 206.221 157.032 206.819 157.032C207.373 157.032 207.875 157.128 208.323 157.32C208.781 157.512 209.165 157.789 209.475 158.152C209.795 158.504 210.04 158.931 210.211 159.432C210.381 159.933 210.467 160.493 210.467 161.112V161.864H204.899C204.995 162.323 205.203 162.691 205.523 162.968C205.843 163.235 206.237 163.368 206.707 163.368C207.101 163.368 207.432 163.283 207.699 163.112C207.976 162.931 208.216 162.701 208.419 162.424L210.099 163.656ZM208.067 160.232C208.077 159.827 207.944 159.48 207.667 159.192C207.389 158.904 207.032 158.76 206.595 158.76C206.328 158.76 206.093 158.803 205.891 158.888C205.688 158.973 205.512 159.085 205.363 159.224C205.224 159.352 205.112 159.507 205.027 159.688C204.952 159.859 204.909 160.04 204.899 160.232H208.067ZM224.149 165H221.845V163.944H221.813C221.727 164.093 221.615 164.243 221.477 164.392C221.349 164.541 221.189 164.675 220.997 164.792C220.805 164.909 220.586 165.005 220.341 165.08C220.095 165.155 219.829 165.192 219.541 165.192C218.933 165.192 218.437 165.101 218.053 164.92C217.679 164.728 217.386 164.467 217.173 164.136C216.97 163.805 216.831 163.416 216.757 162.968C216.693 162.52 216.661 162.035 216.661 161.512V157.224H219.061V161.032C219.061 161.256 219.066 161.491 219.077 161.736C219.098 161.971 219.146 162.189 219.221 162.392C219.306 162.595 219.429 162.76 219.589 162.888C219.759 163.016 219.999 163.08 220.309 163.08C220.618 163.08 220.869 163.027 221.061 162.92C221.253 162.803 221.397 162.653 221.493 162.472C221.599 162.28 221.669 162.067 221.701 161.832C221.733 161.597 221.749 161.352 221.749 161.096V157.224H224.149V165ZM225.848 157.224H228.152V158.28H228.184C228.259 158.131 228.365 157.981 228.504 157.832C228.643 157.683 228.808 157.549 229 157.432C229.192 157.315 229.411 157.219 229.656 157.144C229.901 157.069 230.168 157.032 230.456 157.032C231 157.032 231.48 157.144 231.896 157.368C232.323 157.592 232.643 157.944 232.856 158.424C233.133 157.923 233.469 157.565 233.864 157.352C234.259 157.139 234.744 157.032 235.32 157.032C235.843 157.032 236.28 157.123 236.632 157.304C236.995 157.475 237.277 157.715 237.48 158.024C237.693 158.323 237.843 158.68 237.928 159.096C238.024 159.501 238.072 159.939 238.072 160.408V165H235.672V160.472C235.672 160.109 235.592 159.8 235.432 159.544C235.283 159.277 235.011 159.144 234.616 159.144C234.339 159.144 234.104 159.192 233.912 159.288C233.731 159.373 233.581 159.496 233.464 159.656C233.357 159.816 233.277 160.003 233.224 160.216C233.181 160.429 233.16 160.653 233.16 160.888V165H230.76V160.888C230.76 160.749 230.755 160.579 230.744 160.376C230.733 160.173 230.696 159.981 230.632 159.8C230.568 159.619 230.461 159.464 230.312 159.336C230.173 159.208 229.965 159.144 229.688 159.144C229.379 159.144 229.128 159.203 228.936 159.32C228.744 159.427 228.595 159.576 228.488 159.768C228.392 159.949 228.328 160.157 228.296 160.392C228.264 160.627 228.248 160.872 228.248 161.128V165H225.848V157.224ZM250.456 157.224H252.856V165H250.456V157.224ZM250.264 154.776C250.264 154.392 250.398 154.067 250.664 153.8C250.942 153.523 251.272 153.384 251.656 153.384C252.04 153.384 252.366 153.523 252.632 153.8C252.91 154.067 253.048 154.392 253.048 154.776C253.048 155.16 252.91 155.491 252.632 155.768C252.366 156.035 252.04 156.168 251.656 156.168C251.272 156.168 250.942 156.035 250.664 155.768C250.398 155.491 250.264 155.16 250.264 154.776ZM245.336 159.144H243.752V157.224H245.336V155.848C245.336 155.421 245.374 155.021 245.448 154.648C245.523 154.264 245.667 153.928 245.88 153.64C246.094 153.352 246.398 153.128 246.792 152.968C247.198 152.797 247.726 152.712 248.376 152.712C248.622 152.712 248.862 152.723 249.096 152.744C249.331 152.765 249.56 152.803 249.784 152.856L249.672 154.888C249.534 154.835 249.406 154.797 249.288 154.776C249.171 154.744 249.038 154.728 248.888 154.728C248.504 154.728 248.216 154.813 248.024 154.984C247.832 155.144 247.736 155.48 247.736 155.992V157.224H249.512V159.144H247.736V165H245.336V159.144ZM259.846 159.736C259.729 159.565 259.564 159.427 259.35 159.32C259.137 159.203 258.908 159.144 258.662 159.144C258.054 159.144 257.58 159.325 257.238 159.688C256.908 160.051 256.742 160.525 256.742 161.112C256.742 161.699 256.908 162.173 257.238 162.536C257.58 162.899 258.054 163.08 258.662 163.08C258.929 163.08 259.158 163.021 259.35 162.904C259.542 162.787 259.708 162.648 259.846 162.488L261.43 164.152C261.057 164.536 260.614 164.808 260.102 164.968C259.601 165.117 259.121 165.192 258.662 165.192C258.065 165.192 257.5 165.096 256.966 164.904C256.444 164.712 255.985 164.44 255.59 164.088C255.206 163.725 254.902 163.293 254.678 162.792C254.454 162.291 254.342 161.731 254.342 161.112C254.342 160.493 254.454 159.933 254.678 159.432C254.902 158.931 255.206 158.504 255.59 158.152C255.985 157.789 256.444 157.512 256.966 157.32C257.5 157.128 258.065 157.032 258.662 157.032C259.121 157.032 259.601 157.112 260.102 157.272C260.614 157.421 261.057 157.688 261.43 158.072L259.846 159.736ZM264.701 152.904V158.28H264.733C264.786 158.131 264.877 157.981 265.005 157.832C265.133 157.683 265.288 157.549 265.469 157.432C265.65 157.315 265.864 157.219 266.109 157.144C266.354 157.069 266.621 157.032 266.909 157.032C267.517 157.032 268.008 157.128 268.381 157.32C268.754 157.501 269.042 157.757 269.245 158.088C269.458 158.419 269.602 158.808 269.677 159.256C269.752 159.704 269.789 160.189 269.789 160.712V165H267.389V161.192C267.389 160.968 267.378 160.739 267.357 160.504C267.346 160.259 267.298 160.035 267.213 159.832C267.138 159.629 267.016 159.464 266.845 159.336C266.685 159.208 266.45 159.144 266.141 159.144C265.832 159.144 265.581 159.203 265.389 159.32C265.197 159.427 265.048 159.576 264.941 159.768C264.845 159.949 264.781 160.157 264.749 160.392C264.717 160.627 264.701 160.872 264.701 161.128V165H262.301V152.904H264.701ZM278.849 163.656C278.465 164.147 277.979 164.525 277.393 164.792C276.806 165.059 276.198 165.192 275.569 165.192C274.971 165.192 274.406 165.096 273.873 164.904C273.35 164.712 272.891 164.44 272.497 164.088C272.113 163.725 271.809 163.293 271.585 162.792C271.361 162.291 271.249 161.731 271.249 161.112C271.249 160.493 271.361 159.933 271.585 159.432C271.809 158.931 272.113 158.504 272.497 158.152C272.891 157.789 273.35 157.512 273.873 157.32C274.406 157.128 274.971 157.032 275.569 157.032C276.123 157.032 276.625 157.128 277.073 157.32C277.531 157.512 277.915 157.789 278.225 158.152C278.545 158.504 278.79 158.931 278.961 159.432C279.131 159.933 279.217 160.493 279.217 161.112V161.864H273.649C273.745 162.323 273.953 162.691 274.273 162.968C274.593 163.235 274.987 163.368 275.457 163.368C275.851 163.368 276.182 163.283 276.449 163.112C276.726 162.931 276.966 162.701 277.169 162.424L278.849 163.656ZM276.817 160.232C276.827 159.827 276.694 159.48 276.417 159.192C276.139 158.904 275.782 158.76 275.345 158.76C275.078 158.76 274.843 158.803 274.641 158.888C274.438 158.973 274.262 159.085 274.113 159.224C273.974 159.352 273.862 159.507 273.777 159.688C273.702 159.859 273.659 160.04 273.649 160.232H276.817ZM280.708 157.224H283.108V165H280.708V157.224ZM280.516 154.776C280.516 154.392 280.649 154.067 280.916 153.8C281.193 153.523 281.524 153.384 281.908 153.384C282.292 153.384 282.617 153.523 282.884 153.8C283.161 154.067 283.3 154.392 283.3 154.776C283.3 155.16 283.161 155.491 282.884 155.768C282.617 156.035 282.292 156.168 281.908 156.168C281.524 156.168 281.193 156.035 280.916 155.768C280.649 155.491 280.516 155.16 280.516 154.776ZM284.832 157.224H287.232V158.472H287.264C287.52 157.992 287.824 157.635 288.176 157.4C288.528 157.155 288.971 157.032 289.504 157.032C289.643 157.032 289.782 157.037 289.92 157.048C290.059 157.059 290.187 157.08 290.304 157.112V159.304C290.134 159.251 289.963 159.213 289.792 159.192C289.632 159.16 289.462 159.144 289.28 159.144C288.822 159.144 288.459 159.208 288.192 159.336C287.926 159.464 287.718 159.645 287.568 159.88C287.43 160.104 287.339 160.376 287.296 160.696C287.254 161.016 287.232 161.368 287.232 161.752V165H284.832V157.224ZM290.779 161.112C290.779 160.493 290.891 159.933 291.115 159.432C291.339 158.931 291.643 158.504 292.027 158.152C292.421 157.789 292.88 157.512 293.403 157.32C293.936 157.128 294.501 157.032 295.099 157.032C295.696 157.032 296.256 157.128 296.779 157.32C297.312 157.512 297.771 157.789 298.155 158.152C298.549 158.504 298.859 158.931 299.083 159.432C299.307 159.933 299.419 160.493 299.419 161.112C299.419 161.731 299.307 162.291 299.083 162.792C298.859 163.293 298.549 163.725 298.155 164.088C297.771 164.44 297.312 164.712 296.779 164.904C296.256 165.096 295.696 165.192 295.099 165.192C294.501 165.192 293.936 165.096 293.403 164.904C292.88 164.712 292.421 164.44 292.027 164.088C291.643 163.725 291.339 163.293 291.115 162.792C290.891 162.291 290.779 161.731 290.779 161.112ZM293.179 161.112C293.179 161.699 293.344 162.173 293.675 162.536C294.016 162.899 294.491 163.08 295.099 163.08C295.707 163.08 296.176 162.899 296.507 162.536C296.848 162.173 297.019 161.699 297.019 161.112C297.019 160.525 296.848 160.051 296.507 159.688C296.176 159.325 295.707 159.144 295.099 159.144C294.491 159.144 294.016 159.325 293.675 159.688C293.344 160.051 293.179 160.525 293.179 161.112ZM312.287 161.256C312.287 160.84 312.217 160.451 312.079 160.088C311.951 159.725 311.764 159.411 311.519 159.144C311.273 158.877 310.975 158.669 310.623 158.52C310.281 158.36 309.892 158.28 309.455 158.28C309.017 158.28 308.623 158.36 308.271 158.52C307.929 158.669 307.636 158.877 307.391 159.144C307.156 159.411 306.969 159.725 306.831 160.088C306.703 160.451 306.639 160.84 306.639 161.256C306.639 161.672 306.703 162.061 306.831 162.424C306.969 162.787 307.156 163.101 307.391 163.368C307.636 163.635 307.929 163.848 308.271 164.008C308.623 164.157 309.017 164.232 309.455 164.232C309.892 164.232 310.281 164.157 310.623 164.008C310.975 163.848 311.273 163.635 311.519 163.368C311.764 163.101 311.951 162.787 312.079 162.424C312.217 162.061 312.287 161.672 312.287 161.256ZM313.439 161.256C313.439 161.821 313.337 162.344 313.135 162.824C312.943 163.304 312.671 163.72 312.319 164.072C311.967 164.424 311.545 164.701 311.055 164.904C310.575 165.096 310.041 165.192 309.455 165.192C308.879 165.192 308.345 165.096 307.855 164.904C307.375 164.701 306.959 164.424 306.607 164.072C306.255 163.72 305.977 163.304 305.775 162.824C305.583 162.344 305.487 161.821 305.487 161.256C305.487 160.691 305.583 160.168 305.775 159.688C305.977 159.208 306.255 158.792 306.607 158.44C306.959 158.088 307.375 157.816 307.855 157.624C308.345 157.421 308.879 157.32 309.455 157.32C310.041 157.32 310.575 157.421 311.055 157.624C311.545 157.816 311.967 158.088 312.319 158.44C312.671 158.792 312.943 159.208 313.135 159.688C313.337 160.168 313.439 160.691 313.439 161.256ZM320.763 165C320.742 164.797 320.726 164.6 320.715 164.408C320.715 164.205 320.715 164.003 320.715 163.8H320.683C320.566 164.003 320.416 164.189 320.235 164.36C320.054 164.531 319.851 164.68 319.627 164.808C319.403 164.925 319.163 165.016 318.907 165.08C318.662 165.155 318.416 165.192 318.171 165.192C317.211 165.192 316.502 164.941 316.043 164.44C315.584 163.928 315.355 163.203 315.355 162.264V157.512H316.411V161.656C316.411 162.072 316.443 162.44 316.507 162.76C316.571 163.08 316.678 163.352 316.827 163.576C316.987 163.789 317.195 163.955 317.451 164.072C317.718 164.179 318.048 164.232 318.443 164.232C318.496 164.232 318.646 164.211 318.891 164.168C319.136 164.125 319.392 164.008 319.659 163.816C319.936 163.624 320.182 163.336 320.395 162.952C320.608 162.568 320.715 162.035 320.715 161.352V157.512H321.771V163.352C321.771 163.555 321.776 163.811 321.787 164.12C321.808 164.429 321.83 164.723 321.851 165H320.763ZM333.556 164.024H333.524C333.257 164.44 332.9 164.739 332.452 164.92C332.015 165.101 331.551 165.192 331.06 165.192C330.697 165.192 330.345 165.139 330.004 165.032C329.673 164.936 329.38 164.787 329.124 164.584C328.868 164.381 328.665 164.131 328.516 163.832C328.367 163.533 328.292 163.187 328.292 162.792C328.292 162.344 328.372 161.965 328.532 161.656C328.703 161.347 328.927 161.091 329.204 160.888C329.492 160.685 329.817 160.531 330.18 160.424C330.543 160.307 330.916 160.221 331.3 160.168C331.695 160.115 332.084 160.083 332.468 160.072C332.863 160.061 333.225 160.056 333.556 160.056C333.556 159.629 333.401 159.293 333.092 159.048C332.793 158.792 332.436 158.664 332.02 158.664C331.625 158.664 331.263 158.749 330.932 158.92C330.612 159.08 330.324 159.304 330.068 159.592L328.788 158.28C329.236 157.864 329.759 157.555 330.356 157.352C330.953 157.139 331.572 157.032 332.212 157.032C332.916 157.032 333.492 157.123 333.94 157.304C334.399 157.475 334.761 157.731 335.028 158.072C335.305 158.413 335.497 158.835 335.604 159.336C335.711 159.827 335.764 160.397 335.764 161.048V165H333.556V164.024ZM332.964 161.592C332.783 161.592 332.553 161.603 332.276 161.624C332.009 161.635 331.748 161.677 331.492 161.752C331.247 161.827 331.033 161.939 330.852 162.088C330.681 162.237 330.596 162.445 330.596 162.712C330.596 163 330.719 163.213 330.964 163.352C331.209 163.491 331.465 163.56 331.732 163.56C331.967 163.56 332.191 163.528 332.404 163.464C332.628 163.4 332.825 163.309 332.996 163.192C333.167 163.075 333.3 162.925 333.396 162.744C333.503 162.563 333.556 162.349 333.556 162.104V161.592H332.964ZM337.27 157.224H339.67V158.472H339.702C339.958 157.992 340.262 157.635 340.614 157.4C340.966 157.155 341.409 157.032 341.942 157.032C342.081 157.032 342.219 157.037 342.358 157.048C342.497 157.059 342.625 157.08 342.742 157.112V159.304C342.571 159.251 342.401 159.213 342.23 159.192C342.07 159.16 341.899 159.144 341.718 159.144C341.259 159.144 340.897 159.208 340.63 159.336C340.363 159.464 340.155 159.645 340.006 159.88C339.867 160.104 339.777 160.376 339.734 160.696C339.691 161.016 339.67 161.368 339.67 161.752V165H337.27V157.224ZM343.786 157.224H346.186V158.472H346.218C346.474 157.992 346.778 157.635 347.13 157.4C347.482 157.155 347.924 157.032 348.458 157.032C348.596 157.032 348.735 157.037 348.874 157.048C349.012 157.059 349.14 157.08 349.258 157.112V159.304C349.087 159.251 348.916 159.213 348.746 159.192C348.586 159.16 348.415 159.144 348.234 159.144C347.775 159.144 347.412 159.208 347.146 159.336C346.879 159.464 346.671 159.645 346.522 159.88C346.383 160.104 346.292 160.376 346.25 160.696C346.207 161.016 346.186 161.368 346.186 161.752V165H343.786V157.224ZM355.181 164.024H355.149C354.882 164.44 354.525 164.739 354.077 164.92C353.64 165.101 353.176 165.192 352.685 165.192C352.322 165.192 351.97 165.139 351.629 165.032C351.298 164.936 351.005 164.787 350.749 164.584C350.493 164.381 350.29 164.131 350.141 163.832C349.992 163.533 349.917 163.187 349.917 162.792C349.917 162.344 349.997 161.965 350.157 161.656C350.328 161.347 350.552 161.091 350.829 160.888C351.117 160.685 351.442 160.531 351.805 160.424C352.168 160.307 352.541 160.221 352.925 160.168C353.32 160.115 353.709 160.083 354.093 160.072C354.488 160.061 354.85 160.056 355.181 160.056C355.181 159.629 355.026 159.293 354.717 159.048C354.418 158.792 354.061 158.664 353.645 158.664C353.25 158.664 352.888 158.749 352.557 158.92C352.237 159.08 351.949 159.304 351.693 159.592L350.413 158.28C350.861 157.864 351.384 157.555 351.981 157.352C352.578 157.139 353.197 157.032 353.837 157.032C354.541 157.032 355.117 157.123 355.565 157.304C356.024 157.475 356.386 157.731 356.653 158.072C356.93 158.413 357.122 158.835 357.229 159.336C357.336 159.827 357.389 160.397 357.389 161.048V165H355.181V164.024ZM354.589 161.592C354.408 161.592 354.178 161.603 353.901 161.624C353.634 161.635 353.373 161.677 353.117 161.752C352.872 161.827 352.658 161.939 352.477 162.088C352.306 162.237 352.221 162.445 352.221 162.712C352.221 163 352.344 163.213 352.589 163.352C352.834 163.491 353.09 163.56 353.357 163.56C353.592 163.56 353.816 163.528 354.029 163.464C354.253 163.4 354.45 163.309 354.621 163.192C354.792 163.075 354.925 162.925 355.021 162.744C355.128 162.563 355.181 162.349 355.181 162.104V161.592H354.589ZM363.295 159.512C362.943 159.075 362.479 158.856 361.903 158.856C361.7 158.856 361.503 158.904 361.311 159C361.119 159.096 361.023 159.261 361.023 159.496C361.023 159.688 361.119 159.832 361.311 159.928C361.514 160.013 361.764 160.093 362.063 160.168C362.372 160.232 362.698 160.307 363.039 160.392C363.391 160.467 363.716 160.589 364.015 160.76C364.324 160.931 364.575 161.165 364.767 161.464C364.97 161.752 365.071 162.141 365.071 162.632C365.071 163.133 364.959 163.549 364.735 163.88C364.522 164.2 364.244 164.461 363.903 164.664C363.562 164.856 363.178 164.989 362.751 165.064C362.324 165.149 361.903 165.192 361.487 165.192C360.943 165.192 360.394 165.117 359.839 164.968C359.284 164.808 358.815 164.531 358.431 164.136L359.887 162.52C360.111 162.797 360.356 163.011 360.623 163.16C360.9 163.299 361.22 163.368 361.583 163.368C361.86 163.368 362.111 163.331 362.335 163.256C362.559 163.171 362.671 163.021 362.671 162.808C362.671 162.605 362.57 162.456 362.367 162.36C362.175 162.253 361.924 162.168 361.615 162.104C361.316 162.029 360.991 161.955 360.639 161.88C360.298 161.795 359.972 161.672 359.663 161.512C359.364 161.352 359.114 161.128 358.911 160.84C358.719 160.541 358.623 160.147 358.623 159.656C358.623 159.197 358.714 158.803 358.895 158.472C359.087 158.141 359.332 157.869 359.631 157.656C359.94 157.443 360.292 157.288 360.687 157.192C361.082 157.085 361.482 157.032 361.887 157.032C362.399 157.032 362.916 157.107 363.439 157.256C363.962 157.405 364.404 157.672 364.767 158.056L363.295 159.512ZM371.597 159.144H369.485V161.736C369.485 161.949 369.496 162.147 369.517 162.328C369.538 162.499 369.586 162.648 369.661 162.776C369.736 162.904 369.848 163.005 369.997 163.08C370.157 163.144 370.365 163.176 370.621 163.176C370.749 163.176 370.914 163.165 371.117 163.144C371.33 163.112 371.49 163.048 371.597 162.952V164.952C371.33 165.048 371.053 165.112 370.765 165.144C370.477 165.176 370.194 165.192 369.917 165.192C369.512 165.192 369.138 165.149 368.797 165.064C368.456 164.979 368.157 164.845 367.901 164.664C367.645 164.472 367.442 164.227 367.293 163.928C367.154 163.629 367.085 163.267 367.085 162.84V159.144H365.549V157.224H367.085V154.92H369.485V157.224H371.597V159.144ZM380.177 163.656C379.793 164.147 379.307 164.525 378.721 164.792C378.134 165.059 377.526 165.192 376.897 165.192C376.299 165.192 375.734 165.096 375.201 164.904C374.678 164.712 374.219 164.44 373.825 164.088C373.441 163.725 373.137 163.293 372.913 162.792C372.689 162.291 372.577 161.731 372.577 161.112C372.577 160.493 372.689 159.933 372.913 159.432C373.137 158.931 373.441 158.504 373.825 158.152C374.219 157.789 374.678 157.512 375.201 157.32C375.734 157.128 376.299 157.032 376.897 157.032C377.451 157.032 377.953 157.128 378.401 157.32C378.859 157.512 379.243 157.789 379.553 158.152C379.873 158.504 380.118 158.931 380.289 159.432C380.459 159.933 380.545 160.493 380.545 161.112V161.864H374.977C375.073 162.323 375.281 162.691 375.601 162.968C375.921 163.235 376.315 163.368 376.785 163.368C377.179 163.368 377.51 163.283 377.777 163.112C378.054 162.931 378.294 162.701 378.497 162.424L380.177 163.656ZM378.145 160.232C378.155 159.827 378.022 159.48 377.745 159.192C377.467 158.904 377.11 158.76 376.673 158.76C376.406 158.76 376.171 158.803 375.969 158.888C375.766 158.973 375.59 159.085 375.441 159.224C375.302 159.352 375.19 159.507 375.105 159.688C375.03 159.859 374.987 160.04 374.977 160.232H378.145ZM386.963 157.224H389.171V158.248H389.203C389.299 158.109 389.421 157.971 389.571 157.832C389.731 157.683 389.912 157.549 390.115 157.432C390.328 157.315 390.557 157.219 390.803 157.144C391.048 157.069 391.309 157.032 391.587 157.032C392.163 157.032 392.685 157.133 393.155 157.336C393.624 157.528 394.024 157.805 394.355 158.168C394.696 158.52 394.957 158.941 395.139 159.432C395.32 159.923 395.411 160.461 395.411 161.048C395.411 161.592 395.325 162.115 395.155 162.616C394.995 163.107 394.76 163.544 394.451 163.928C394.152 164.312 393.784 164.621 393.347 164.856C392.909 165.08 392.413 165.192 391.859 165.192C391.357 165.192 390.888 165.117 390.451 164.968C390.024 164.808 389.672 164.541 389.395 164.168H389.363V168.648H386.963V157.224ZM389.171 161.112C389.171 161.699 389.336 162.173 389.667 162.536C390.008 162.899 390.483 163.08 391.091 163.08C391.699 163.08 392.168 162.899 392.499 162.536C392.84 162.173 393.011 161.699 393.011 161.112C393.011 160.525 392.84 160.051 392.499 159.688C392.168 159.325 391.699 159.144 391.091 159.144C390.483 159.144 390.008 159.325 389.667 159.688C389.336 160.051 389.171 160.525 389.171 161.112ZM401.697 164.024H401.665C401.398 164.44 401.041 164.739 400.593 164.92C400.155 165.101 399.691 165.192 399.201 165.192C398.838 165.192 398.486 165.139 398.145 165.032C397.814 164.936 397.521 164.787 397.265 164.584C397.009 164.381 396.806 164.131 396.657 163.832C396.507 163.533 396.433 163.187 396.433 162.792C396.433 162.344 396.513 161.965 396.673 161.656C396.843 161.347 397.067 161.091 397.345 160.888C397.633 160.685 397.958 160.531 398.321 160.424C398.683 160.307 399.057 160.221 399.441 160.168C399.835 160.115 400.225 160.083 400.609 160.072C401.003 160.061 401.366 160.056 401.697 160.056C401.697 159.629 401.542 159.293 401.233 159.048C400.934 158.792 400.577 158.664 400.161 158.664C399.766 158.664 399.403 158.749 399.073 158.92C398.753 159.08 398.465 159.304 398.209 159.592L396.929 158.28C397.377 157.864 397.899 157.555 398.497 157.352C399.094 157.139 399.713 157.032 400.353 157.032C401.057 157.032 401.633 157.123 402.081 157.304C402.539 157.475 402.902 157.731 403.169 158.072C403.446 158.413 403.638 158.835 403.745 159.336C403.851 159.827 403.905 160.397 403.905 161.048V165H401.697V164.024ZM401.105 161.592C400.923 161.592 400.694 161.603 400.417 161.624C400.15 161.635 399.889 161.677 399.633 161.752C399.387 161.827 399.174 161.939 398.993 162.088C398.822 162.237 398.737 162.445 398.737 162.712C398.737 163 398.859 163.213 399.105 163.352C399.35 163.491 399.606 163.56 399.873 163.56C400.107 163.56 400.331 163.528 400.545 163.464C400.769 163.4 400.966 163.309 401.137 163.192C401.307 163.075 401.441 162.925 401.537 162.744C401.643 162.563 401.697 162.349 401.697 162.104V161.592H401.105ZM405.411 157.224H407.811V158.472H407.843C408.099 157.992 408.403 157.635 408.755 157.4C409.107 157.155 409.549 157.032 410.083 157.032C410.221 157.032 410.36 157.037 410.499 157.048C410.637 157.059 410.765 157.08 410.883 157.112V159.304C410.712 159.251 410.541 159.213 410.371 159.192C410.211 159.16 410.04 159.144 409.859 159.144C409.4 159.144 409.037 159.208 408.771 159.336C408.504 159.464 408.296 159.645 408.147 159.88C408.008 160.104 407.917 160.376 407.875 160.696C407.832 161.016 407.811 161.368 407.811 161.752V165H405.411V157.224ZM416.806 164.024H416.774C416.507 164.44 416.15 164.739 415.702 164.92C415.265 165.101 414.801 165.192 414.31 165.192C413.947 165.192 413.595 165.139 413.254 165.032C412.923 164.936 412.63 164.787 412.374 164.584C412.118 164.381 411.915 164.131 411.766 163.832C411.617 163.533 411.542 163.187 411.542 162.792C411.542 162.344 411.622 161.965 411.782 161.656C411.953 161.347 412.177 161.091 412.454 160.888C412.742 160.685 413.067 160.531 413.43 160.424C413.793 160.307 414.166 160.221 414.55 160.168C414.945 160.115 415.334 160.083 415.718 160.072C416.113 160.061 416.475 160.056 416.806 160.056C416.806 159.629 416.651 159.293 416.342 159.048C416.043 158.792 415.686 158.664 415.27 158.664C414.875 158.664 414.513 158.749 414.182 158.92C413.862 159.08 413.574 159.304 413.318 159.592L412.038 158.28C412.486 157.864 413.009 157.555 413.606 157.352C414.203 157.139 414.822 157.032 415.462 157.032C416.166 157.032 416.742 157.123 417.19 157.304C417.649 157.475 418.011 157.731 418.278 158.072C418.555 158.413 418.747 158.835 418.854 159.336C418.961 159.827 419.014 160.397 419.014 161.048V165H416.806V164.024ZM416.214 161.592C416.033 161.592 415.803 161.603 415.526 161.624C415.259 161.635 414.998 161.677 414.742 161.752C414.497 161.827 414.283 161.939 414.102 162.088C413.931 162.237 413.846 162.445 413.846 162.712C413.846 163 413.969 163.213 414.214 163.352C414.459 163.491 414.715 163.56 414.982 163.56C415.217 163.56 415.441 163.528 415.654 163.464C415.878 163.4 416.075 163.309 416.246 163.192C416.417 163.075 416.55 162.925 416.646 162.744C416.753 162.563 416.806 162.349 416.806 162.104V161.592H416.214ZM430.134 164.024H430.102C429.836 164.44 429.478 164.739 429.03 164.92C428.593 165.101 428.129 165.192 427.638 165.192C427.276 165.192 426.924 165.139 426.582 165.032C426.252 164.936 425.958 164.787 425.702 164.584C425.446 164.381 425.244 164.131 425.094 163.832C424.945 163.533 424.87 163.187 424.87 162.792C424.87 162.344 424.95 161.965 425.11 161.656C425.281 161.347 425.505 161.091 425.782 160.888C426.07 160.685 426.396 160.531 426.758 160.424C427.121 160.307 427.494 160.221 427.878 160.168C428.273 160.115 428.662 160.083 429.046 160.072C429.441 160.061 429.804 160.056 430.134 160.056C430.134 159.629 429.98 159.293 429.67 159.048C429.372 158.792 429.014 158.664 428.598 158.664C428.204 158.664 427.841 158.749 427.51 158.92C427.19 159.08 426.902 159.304 426.646 159.592L425.366 158.28C425.814 157.864 426.337 157.555 426.934 157.352C427.532 157.139 428.15 157.032 428.79 157.032C429.494 157.032 430.07 157.123 430.518 157.304C430.977 157.475 431.34 157.731 431.606 158.072C431.884 158.413 432.076 158.835 432.182 159.336C432.289 159.827 432.342 160.397 432.342 161.048V165H430.134V164.024ZM429.542 161.592C429.361 161.592 429.132 161.603 428.854 161.624C428.588 161.635 428.326 161.677 428.07 161.752C427.825 161.827 427.612 161.939 427.43 162.088C427.26 162.237 427.174 162.445 427.174 162.712C427.174 163 427.297 163.213 427.542 163.352C427.788 163.491 428.044 163.56 428.31 163.56C428.545 163.56 428.769 163.528 428.982 163.464C429.206 163.4 429.404 163.309 429.574 163.192C429.745 163.075 429.878 162.925 429.974 162.744C430.081 162.563 430.134 162.349 430.134 162.104V161.592H429.542ZM442.008 168.648H439.608V164.168H439.576C439.299 164.541 438.941 164.808 438.504 164.968C438.077 165.117 437.613 165.192 437.112 165.192C436.557 165.192 436.061 165.08 435.624 164.856C435.187 164.621 434.813 164.312 434.504 163.928C434.205 163.544 433.971 163.107 433.8 162.616C433.64 162.115 433.56 161.592 433.56 161.048C433.56 160.461 433.651 159.923 433.832 159.432C434.013 158.941 434.269 158.52 434.6 158.168C434.941 157.805 435.347 157.528 435.816 157.336C436.285 157.133 436.808 157.032 437.384 157.032C437.651 157.032 437.907 157.069 438.152 157.144C438.408 157.219 438.637 157.315 438.84 157.432C439.053 157.549 439.235 157.683 439.384 157.832C439.544 157.971 439.672 158.109 439.768 158.248H439.8V157.224H442.008V168.648ZM439.8 161.112C439.8 160.525 439.629 160.051 439.288 159.688C438.957 159.325 438.488 159.144 437.88 159.144C437.272 159.144 436.797 159.325 436.456 159.688C436.125 160.051 435.96 160.525 435.96 161.112C435.96 161.699 436.125 162.173 436.456 162.536C436.797 162.899 437.272 163.08 437.88 163.08C438.488 163.08 438.957 162.899 439.288 162.536C439.629 162.173 439.8 161.699 439.8 161.112ZM451.414 165H449.11V163.944H449.078C448.993 164.093 448.881 164.243 448.742 164.392C448.614 164.541 448.454 164.675 448.262 164.792C448.07 164.909 447.851 165.005 447.606 165.08C447.361 165.155 447.094 165.192 446.806 165.192C446.198 165.192 445.702 165.101 445.318 164.92C444.945 164.728 444.651 164.467 444.438 164.136C444.235 163.805 444.097 163.416 444.022 162.968C443.958 162.52 443.926 162.035 443.926 161.512V157.224H446.326V161.032C446.326 161.256 446.331 161.491 446.342 161.736C446.363 161.971 446.411 162.189 446.486 162.392C446.571 162.595 446.694 162.76 446.854 162.888C447.025 163.016 447.265 163.08 447.574 163.08C447.883 163.08 448.134 163.027 448.326 162.92C448.518 162.803 448.662 162.653 448.758 162.472C448.865 162.28 448.934 162.067 448.966 161.832C448.998 161.597 449.014 161.352 449.014 161.096V157.224H451.414V165ZM453.146 157.224H455.546V165H453.146V157.224ZM452.954 154.776C452.954 154.392 453.087 154.067 453.354 153.8C453.631 153.523 453.962 153.384 454.346 153.384C454.73 153.384 455.055 153.523 455.322 153.8C455.599 154.067 455.738 154.392 455.738 154.776C455.738 155.16 455.599 155.491 455.322 155.768C455.055 156.035 454.73 156.168 454.346 156.168C453.962 156.168 453.631 156.035 453.354 155.768C453.087 155.491 452.954 155.16 452.954 154.776ZM237.682 180.208H241.642V181H236.818V172.504H237.682V180.208ZM243.682 173.224C243.682 173.392 243.622 173.532 243.502 173.644C243.382 173.748 243.25 173.8 243.106 173.8C242.962 173.8 242.83 173.748 242.71 173.644C242.59 173.532 242.53 173.392 242.53 173.224C242.53 173.056 242.59 172.92 242.71 172.816C242.83 172.704 242.962 172.648 243.106 172.648C243.25 172.648 243.382 172.704 243.502 172.816C243.622 172.92 243.682 173.056 243.682 173.224ZM243.502 181H242.71V175.384H243.502V181ZM245.413 176.632C245.413 176.424 245.405 176.216 245.389 176.008C245.381 175.8 245.369 175.592 245.353 175.384H246.205V176.236H246.229C246.421 175.908 246.685 175.66 247.021 175.492C247.365 175.324 247.705 175.24 248.041 175.24C248.193 175.24 248.353 175.256 248.521 175.288C248.697 175.32 248.865 175.38 249.025 175.468C249.185 175.548 249.333 175.664 249.469 175.816C249.613 175.968 249.733 176.164 249.829 176.404C249.989 176.044 250.241 175.76 250.585 175.552C250.937 175.344 251.301 175.24 251.677 175.24C252.397 175.24 252.929 175.432 253.273 175.816C253.617 176.192 253.789 176.732 253.789 177.436V181H252.997V177.724C252.997 177.156 252.897 176.72 252.697 176.416C252.497 176.112 252.125 175.96 251.581 175.96C251.285 175.96 251.037 176.02 250.837 176.14C250.637 176.252 250.473 176.404 250.345 176.596C250.225 176.788 250.137 177.008 250.081 177.256C250.025 177.496 249.997 177.748 249.997 178.012V181H249.205V177.724C249.205 177.156 249.105 176.72 248.905 176.416C248.705 176.112 248.333 175.96 247.789 175.96C247.741 175.96 247.629 175.976 247.453 176.008C247.285 176.04 247.109 176.128 246.925 176.272C246.741 176.416 246.573 176.632 246.421 176.92C246.277 177.208 246.205 177.608 246.205 178.12V181H245.413V176.632ZM256.784 173.224C256.784 173.392 256.724 173.532 256.604 173.644C256.484 173.748 256.352 173.8 256.208 173.8C256.064 173.8 255.932 173.748 255.812 173.644C255.692 173.532 255.632 173.392 255.632 173.224C255.632 173.056 255.692 172.92 255.812 172.816C255.932 172.704 256.064 172.648 256.208 172.648C256.352 172.648 256.484 172.704 256.604 172.816C256.724 172.92 256.784 173.056 256.784 173.224ZM256.604 181H255.812V175.384H256.604V181ZM261.418 176.104H259.798V179.416C259.798 179.624 259.818 179.796 259.858 179.932C259.898 180.06 259.954 180.16 260.026 180.232C260.098 180.304 260.182 180.356 260.278 180.388C260.382 180.412 260.494 180.424 260.614 180.424C260.75 180.424 260.89 180.404 261.034 180.364C261.178 180.324 261.31 180.272 261.43 180.208L261.466 180.94C261.17 181.076 260.814 181.144 260.398 181.144C260.246 181.144 260.086 181.124 259.918 181.084C259.758 181.044 259.61 180.968 259.474 180.856C259.338 180.744 259.226 180.592 259.138 180.4C259.05 180.208 259.006 179.956 259.006 179.644V176.104H257.818V175.384H259.006V173.8H259.798V175.384H261.418V176.104ZM266.867 177.76C266.867 177.224 266.707 176.792 266.387 176.464C266.067 176.128 265.619 175.96 265.043 175.96C264.787 175.96 264.539 176.012 264.299 176.116C264.059 176.212 263.847 176.344 263.663 176.512C263.487 176.68 263.343 176.872 263.231 177.088C263.127 177.304 263.075 177.528 263.075 177.76H266.867ZM263.051 178.408C263.075 178.688 263.143 178.952 263.255 179.2C263.367 179.448 263.515 179.664 263.699 179.848C263.883 180.024 264.095 180.164 264.335 180.268C264.575 180.372 264.835 180.424 265.115 180.424C265.539 180.424 265.903 180.328 266.207 180.136C266.519 179.936 266.755 179.708 266.915 179.452L267.527 179.956C267.191 180.38 266.819 180.684 266.411 180.868C266.011 181.052 265.579 181.144 265.115 181.144C264.699 181.144 264.311 181.072 263.951 180.928C263.599 180.776 263.295 180.568 263.039 180.304C262.783 180.04 262.579 179.728 262.427 179.368C262.283 179.008 262.211 178.616 262.211 178.192C262.211 177.768 262.283 177.376 262.427 177.016C262.571 176.656 262.771 176.344 263.027 176.08C263.283 175.816 263.583 175.612 263.927 175.468C264.271 175.316 264.643 175.24 265.043 175.24C265.467 175.24 265.847 175.316 266.183 175.468C266.519 175.62 266.799 175.824 267.023 176.08C267.255 176.328 267.431 176.624 267.551 176.968C267.671 177.304 267.731 177.664 267.731 178.048V178.408H263.051ZM272.987 178.192C272.987 178.504 273.035 178.796 273.131 179.068C273.235 179.34 273.379 179.576 273.563 179.776C273.747 179.976 273.967 180.136 274.223 180.256C274.487 180.368 274.783 180.424 275.111 180.424C275.431 180.424 275.727 180.368 275.999 180.256C276.279 180.136 276.519 179.976 276.719 179.776C276.919 179.576 277.075 179.34 277.187 179.068C277.299 178.796 277.355 178.504 277.355 178.192C277.355 177.88 277.299 177.588 277.187 177.316C277.075 177.044 276.919 176.808 276.719 176.608C276.519 176.408 276.279 176.252 275.999 176.14C275.727 176.02 275.431 175.96 275.111 175.96C274.783 175.96 274.487 176.02 274.223 176.14C273.967 176.252 273.747 176.408 273.563 176.608C273.379 176.808 273.235 177.044 273.131 177.316C273.035 177.588 272.987 177.88 272.987 178.192ZM278.111 181H277.319V180.064H277.295C277.167 180.256 277.015 180.42 276.839 180.556C276.663 180.692 276.479 180.804 276.287 180.892C276.095 180.98 275.895 181.044 275.687 181.084C275.487 181.124 275.295 181.144 275.111 181.144C274.671 181.144 274.267 181.072 273.899 180.928C273.539 180.776 273.227 180.568 272.963 180.304C272.699 180.04 272.491 179.728 272.339 179.368C272.195 179.008 272.123 178.616 272.123 178.192C272.123 177.768 272.195 177.376 272.339 177.016C272.491 176.656 272.699 176.344 272.963 176.08C273.227 175.816 273.539 175.612 273.899 175.468C274.267 175.316 274.671 175.24 275.111 175.24C275.295 175.24 275.487 175.26 275.687 175.3C275.895 175.34 276.095 175.404 276.287 175.492C276.479 175.58 276.663 175.692 276.839 175.828C277.015 175.964 277.167 176.128 277.295 176.32H277.319V171.928H278.111V181ZM284.211 177.76C284.211 177.224 284.051 176.792 283.731 176.464C283.411 176.128 282.963 175.96 282.387 175.96C282.131 175.96 281.883 176.012 281.643 176.116C281.403 176.212 281.191 176.344 281.007 176.512C280.831 176.68 280.687 176.872 280.575 177.088C280.471 177.304 280.419 177.528 280.419 177.76H284.211ZM280.395 178.408C280.419 178.688 280.487 178.952 280.599 179.2C280.711 179.448 280.859 179.664 281.043 179.848C281.227 180.024 281.439 180.164 281.679 180.268C281.919 180.372 282.179 180.424 282.459 180.424C282.883 180.424 283.247 180.328 283.551 180.136C283.863 179.936 284.099 179.708 284.259 179.452L284.871 179.956C284.535 180.38 284.163 180.684 283.755 180.868C283.355 181.052 282.923 181.144 282.459 181.144C282.043 181.144 281.655 181.072 281.295 180.928C280.943 180.776 280.639 180.568 280.383 180.304C280.127 180.04 279.923 179.728 279.771 179.368C279.627 179.008 279.555 178.616 279.555 178.192C279.555 177.768 279.627 177.376 279.771 177.016C279.915 176.656 280.115 176.344 280.371 176.08C280.627 175.816 280.927 175.612 281.271 175.468C281.615 175.316 281.987 175.24 282.387 175.24C282.811 175.24 283.191 175.316 283.527 175.468C283.863 175.62 284.143 175.824 284.367 176.08C284.599 176.328 284.775 176.624 284.895 176.968C285.015 177.304 285.075 177.664 285.075 178.048V178.408H280.395ZM292.754 176.104H291.134V179.416C291.134 179.624 291.154 179.796 291.194 179.932C291.234 180.06 291.29 180.16 291.362 180.232C291.434 180.304 291.518 180.356 291.614 180.388C291.718 180.412 291.83 180.424 291.95 180.424C292.086 180.424 292.226 180.404 292.37 180.364C292.514 180.324 292.646 180.272 292.766 180.208L292.802 180.94C292.506 181.076 292.15 181.144 291.734 181.144C291.582 181.144 291.422 181.124 291.254 181.084C291.094 181.044 290.946 180.968 290.81 180.856C290.674 180.744 290.562 180.592 290.474 180.4C290.386 180.208 290.342 179.956 290.342 179.644V176.104H289.154V175.384H290.342V173.8H291.134V175.384H292.754V176.104ZM297.027 178.204C296.827 178.204 296.575 178.216 296.271 178.24C295.975 178.256 295.687 178.304 295.407 178.384C295.135 178.456 294.899 178.572 294.699 178.732C294.507 178.892 294.411 179.112 294.411 179.392C294.411 179.576 294.447 179.736 294.519 179.872C294.599 180 294.703 180.108 294.831 180.196C294.959 180.276 295.099 180.336 295.251 180.376C295.411 180.408 295.571 180.424 295.731 180.424C296.019 180.424 296.267 180.376 296.475 180.28C296.691 180.184 296.871 180.056 297.015 179.896C297.159 179.728 297.263 179.536 297.327 179.32C297.399 179.096 297.435 178.86 297.435 178.612V178.204H297.027ZM297.435 177.556V177.412C297.435 176.444 296.955 175.96 295.995 175.96C295.339 175.96 294.767 176.18 294.279 176.62L293.799 176.056C294.327 175.512 295.119 175.24 296.175 175.24C296.447 175.24 296.707 175.28 296.955 175.36C297.211 175.44 297.431 175.564 297.615 175.732C297.799 175.892 297.947 176.096 298.059 176.344C298.171 176.592 298.227 176.888 298.227 177.232V179.74C298.227 179.956 298.235 180.184 298.251 180.424C298.275 180.656 298.299 180.848 298.323 181H297.555C297.531 180.864 297.511 180.716 297.495 180.556C297.487 180.396 297.483 180.24 297.483 180.088H297.459C297.227 180.464 296.951 180.736 296.631 180.904C296.319 181.064 295.935 181.144 295.479 181.144C295.231 181.144 294.991 181.108 294.759 181.036C294.527 180.972 294.319 180.872 294.135 180.736C293.959 180.592 293.815 180.42 293.703 180.22C293.599 180.012 293.547 179.772 293.547 179.5C293.547 179.044 293.663 178.688 293.895 178.432C294.135 178.168 294.431 177.972 294.783 177.844C295.143 177.716 295.523 177.636 295.923 177.604C296.331 177.572 296.703 177.556 297.039 177.556H297.435ZM300.057 176.632C300.057 176.424 300.049 176.216 300.033 176.008C300.025 175.8 300.013 175.592 299.997 175.384H300.849V176.236H300.873C301.065 175.908 301.329 175.66 301.665 175.492C302.009 175.324 302.349 175.24 302.685 175.24C302.837 175.24 302.997 175.256 303.165 175.288C303.341 175.32 303.509 175.38 303.669 175.468C303.829 175.548 303.977 175.664 304.113 175.816C304.257 175.968 304.377 176.164 304.473 176.404C304.633 176.044 304.885 175.76 305.229 175.552C305.581 175.344 305.945 175.24 306.321 175.24C307.041 175.24 307.573 175.432 307.917 175.816C308.261 176.192 308.433 176.732 308.433 177.436V181H307.641V177.724C307.641 177.156 307.541 176.72 307.341 176.416C307.141 176.112 306.769 175.96 306.225 175.96C305.929 175.96 305.681 176.02 305.481 176.14C305.281 176.252 305.117 176.404 304.989 176.596C304.869 176.788 304.781 177.008 304.725 177.256C304.669 177.496 304.641 177.748 304.641 178.012V181H303.849V177.724C303.849 177.156 303.749 176.72 303.549 176.416C303.349 176.112 302.977 175.96 302.433 175.96C302.385 175.96 302.273 175.976 302.097 176.008C301.929 176.04 301.753 176.128 301.569 176.272C301.385 176.416 301.217 176.632 301.065 176.92C300.921 177.208 300.849 177.608 300.849 178.12V181H300.057V176.632ZM313.468 178.204C313.268 178.204 313.016 178.216 312.712 178.24C312.416 178.256 312.128 178.304 311.848 178.384C311.576 178.456 311.34 178.572 311.14 178.732C310.948 178.892 310.852 179.112 310.852 179.392C310.852 179.576 310.888 179.736 310.96 179.872C311.04 180 311.144 180.108 311.272 180.196C311.4 180.276 311.54 180.336 311.692 180.376C311.852 180.408 312.012 180.424 312.172 180.424C312.46 180.424 312.708 180.376 312.916 180.28C313.132 180.184 313.312 180.056 313.456 179.896C313.6 179.728 313.704 179.536 313.768 179.32C313.84 179.096 313.876 178.86 313.876 178.612V178.204H313.468ZM313.876 177.556V177.412C313.876 176.444 313.396 175.96 312.436 175.96C311.78 175.96 311.208 176.18 310.72 176.62L310.24 176.056C310.768 175.512 311.56 175.24 312.616 175.24C312.888 175.24 313.148 175.28 313.396 175.36C313.652 175.44 313.872 175.564 314.056 175.732C314.24 175.892 314.388 176.096 314.5 176.344C314.612 176.592 314.668 176.888 314.668 177.232V179.74C314.668 179.956 314.676 180.184 314.692 180.424C314.716 180.656 314.74 180.848 314.764 181H313.996C313.972 180.864 313.952 180.716 313.936 180.556C313.928 180.396 313.924 180.24 313.924 180.088H313.9C313.668 180.464 313.392 180.736 313.072 180.904C312.76 181.064 312.376 181.144 311.92 181.144C311.672 181.144 311.432 181.108 311.2 181.036C310.968 180.972 310.76 180.872 310.576 180.736C310.4 180.592 310.256 180.42 310.144 180.22C310.04 180.012 309.988 179.772 309.988 179.5C309.988 179.044 310.104 178.688 310.336 178.432C310.576 178.168 310.872 177.972 311.224 177.844C311.584 177.716 311.964 177.636 312.364 177.604C312.772 177.572 313.144 177.556 313.48 177.556H313.876ZM317.255 175.384C317.271 175.536 317.279 175.688 317.279 175.84C317.287 175.984 317.291 176.132 317.291 176.284H317.315C317.403 176.132 317.515 175.992 317.651 175.864C317.787 175.736 317.939 175.628 318.107 175.54C318.275 175.444 318.451 175.372 318.635 175.324C318.827 175.268 319.015 175.24 319.199 175.24C319.919 175.24 320.451 175.432 320.795 175.816C321.139 176.192 321.311 176.732 321.311 177.436V181H320.519V177.892C320.519 177.268 320.411 176.792 320.195 176.464C319.979 176.128 319.579 175.96 318.995 175.96C318.955 175.96 318.843 175.976 318.659 176.008C318.475 176.04 318.279 176.128 318.071 176.272C317.871 176.416 317.691 176.632 317.531 176.92C317.371 177.208 317.291 177.608 317.291 178.12V181H316.499V176.62C316.499 176.468 316.491 176.276 316.475 176.044C316.467 175.812 316.455 175.592 316.439 175.384H317.255ZM323.167 171.928H323.959V176.284H323.983C324.071 176.132 324.183 175.992 324.319 175.864C324.455 175.736 324.607 175.628 324.775 175.54C324.943 175.444 325.119 175.372 325.303 175.324C325.495 175.268 325.683 175.24 325.867 175.24C326.587 175.24 327.119 175.432 327.463 175.816C327.807 176.192 327.979 176.732 327.979 177.436V181H327.187V177.892C327.187 177.268 327.079 176.792 326.863 176.464C326.647 176.128 326.247 175.96 325.663 175.96C325.623 175.96 325.511 175.976 325.327 176.008C325.143 176.04 324.947 176.128 324.739 176.272C324.539 176.416 324.359 176.632 324.199 176.92C324.039 177.208 323.959 177.608 323.959 178.12V181H323.167V171.928ZM334.647 178.192C334.647 177.88 334.595 177.588 334.491 177.316C334.395 177.044 334.255 176.808 334.071 176.608C333.887 176.408 333.663 176.252 333.399 176.14C333.143 176.02 332.851 175.96 332.523 175.96C332.195 175.96 331.899 176.02 331.635 176.14C331.379 176.252 331.159 176.408 330.975 176.608C330.799 176.808 330.659 177.044 330.555 177.316C330.459 177.588 330.411 177.88 330.411 178.192C330.411 178.504 330.459 178.796 330.555 179.068C330.659 179.34 330.799 179.576 330.975 179.776C331.159 179.976 331.379 180.136 331.635 180.256C331.899 180.368 332.195 180.424 332.523 180.424C332.851 180.424 333.143 180.368 333.399 180.256C333.663 180.136 333.887 179.976 334.071 179.776C334.255 179.576 334.395 179.34 334.491 179.068C334.595 178.796 334.647 178.504 334.647 178.192ZM335.511 178.192C335.511 178.616 335.435 179.008 335.283 179.368C335.139 179.728 334.935 180.04 334.671 180.304C334.407 180.568 334.091 180.776 333.723 180.928C333.363 181.072 332.963 181.144 332.523 181.144C332.091 181.144 331.691 181.072 331.323 180.928C330.963 180.776 330.651 180.568 330.387 180.304C330.123 180.04 329.915 179.728 329.763 179.368C329.619 179.008 329.547 178.616 329.547 178.192C329.547 177.768 329.619 177.376 329.763 177.016C329.915 176.656 330.123 176.344 330.387 176.08C330.651 175.816 330.963 175.612 331.323 175.468C331.691 175.316 332.091 175.24 332.523 175.24C332.963 175.24 333.363 175.316 333.723 175.468C334.091 175.612 334.407 175.816 334.671 176.08C334.935 176.344 335.139 176.656 335.283 177.016C335.435 177.376 335.511 177.768 335.511 178.192ZM338.4 180.424C338.4 180.592 338.34 180.744 338.22 180.88C338.1 181.008 337.944 181.072 337.752 181.072C337.56 181.072 337.404 181.008 337.284 180.88C337.164 180.744 337.104 180.592 337.104 180.424C337.104 180.256 337.164 180.108 337.284 179.98C337.404 179.844 337.56 179.776 337.752 179.776C337.944 179.776 338.1 179.844 338.22 179.98C338.34 180.108 338.4 180.256 338.4 180.424ZM338.4 175.972C338.4 176.14 338.34 176.292 338.22 176.428C338.1 176.556 337.944 176.62 337.752 176.62C337.56 176.62 337.404 176.556 337.284 176.428C337.164 176.292 337.104 176.14 337.104 175.972C337.104 175.804 337.164 175.656 337.284 175.528C337.404 175.392 337.56 175.324 337.752 175.324C337.944 175.324 338.1 175.392 338.22 175.528C338.34 175.656 338.4 175.804 338.4 175.972ZM346.94 181H346.076V173.584L344.552 174.928L344.012 174.28L346.172 172.504H346.94V181ZM352.768 173.152C352.304 173.152 351.936 173.276 351.664 173.524C351.4 173.772 351.2 174.08 351.064 174.448C350.928 174.816 350.84 175.208 350.8 175.624C350.768 176.04 350.752 176.416 350.752 176.752C350.752 177.088 350.768 177.464 350.8 177.88C350.84 178.296 350.928 178.688 351.064 179.056C351.2 179.424 351.4 179.732 351.664 179.98C351.936 180.228 352.304 180.352 352.768 180.352C353.232 180.352 353.596 180.228 353.86 179.98C354.132 179.732 354.336 179.424 354.472 179.056C354.608 178.688 354.692 178.296 354.724 177.88C354.764 177.464 354.784 177.088 354.784 176.752C354.784 176.416 354.764 176.04 354.724 175.624C354.692 175.208 354.608 174.816 354.472 174.448C354.336 174.08 354.132 173.772 353.86 173.524C353.596 173.276 353.232 173.152 352.768 173.152ZM352.768 172.36C353.376 172.36 353.868 172.5 354.244 172.78C354.62 173.06 354.912 173.416 355.12 173.848C355.328 174.28 355.468 174.756 355.54 175.276C355.612 175.788 355.648 176.28 355.648 176.752C355.648 177.224 355.612 177.72 355.54 178.24C355.468 178.752 355.328 179.224 355.12 179.656C354.912 180.088 354.62 180.444 354.244 180.724C353.868 181.004 353.376 181.144 352.768 181.144C352.16 181.144 351.668 181.004 351.292 180.724C350.916 180.444 350.624 180.088 350.416 179.656C350.208 179.224 350.068 178.752 349.996 178.24C349.924 177.72 349.888 177.224 349.888 176.752C349.888 176.28 349.924 175.788 349.996 175.276C350.068 174.756 350.208 174.28 350.416 173.848C350.624 173.416 350.916 173.06 351.292 172.78C351.668 172.5 352.16 172.36 352.768 172.36ZM361.44 179.416L364.308 172.504H365.628V181H364.764V173.656H364.74L361.668 181H361.212L358.14 173.656H358.116V181H357.252V172.504H358.572L361.44 179.416ZM368.791 180.208H370.447C370.759 180.208 371.051 180.176 371.323 180.112C371.595 180.048 371.831 179.952 372.031 179.824C372.231 179.688 372.387 179.52 372.499 179.32C372.619 179.12 372.679 178.88 372.679 178.6C372.679 178.04 372.499 177.624 372.139 177.352C371.779 177.08 371.251 176.944 370.555 176.944H368.791V180.208ZM368.791 176.224H370.531C370.739 176.224 370.943 176.2 371.143 176.152C371.351 176.096 371.535 176.008 371.695 175.888C371.863 175.768 371.999 175.616 372.103 175.432C372.207 175.24 372.259 175.008 372.259 174.736C372.259 174.648 372.239 174.524 372.199 174.364C372.167 174.204 372.087 174.044 371.959 173.884C371.839 173.724 371.659 173.588 371.419 173.476C371.179 173.356 370.855 173.296 370.447 173.296H368.791V176.224ZM367.927 172.504H370.459C370.811 172.504 371.151 172.54 371.479 172.612C371.807 172.684 372.099 172.804 372.355 172.972C372.611 173.14 372.815 173.36 372.967 173.632C373.119 173.904 373.195 174.24 373.195 174.64C373.195 175.104 373.063 175.504 372.799 175.84C372.543 176.168 372.175 176.388 371.695 176.5V176.524C372.295 176.572 372.763 176.784 373.099 177.16C373.443 177.528 373.615 178.024 373.615 178.648C373.615 178.784 373.579 178.984 373.507 179.248C373.443 179.512 373.303 179.776 373.087 180.04C372.871 180.296 372.559 180.52 372.151 180.712C371.743 180.904 371.199 181 370.519 181H367.927V172.504Z" fill="#6C6C6C"/>
<g clip-path="url(#clip0_594_2196)">
<path d="M326.818 91.0391C329.129 91.1953 331.284 91.7552 333.28 92.7188C335.277 93.6823 337.023 94.9453 338.521 96.5078C340.018 98.0703 341.187 99.8932 342.028 101.977C342.868 104.06 343.302 106.234 343.328 108.5C343.328 110.922 342.868 113.188 341.949 115.297C341.03 117.406 339.769 119.255 338.166 120.844C336.564 122.432 334.699 123.682 332.571 124.594C330.443 125.505 328.144 125.974 325.675 126H313.066V121H325.675C327.409 121 329.037 120.674 330.561 120.023C332.085 119.372 333.425 118.487 334.58 117.367C335.736 116.247 336.643 114.919 337.299 113.383C337.956 111.846 338.284 110.219 338.284 108.5C338.284 106.781 337.956 105.167 337.299 103.656C336.643 102.146 335.749 100.818 334.62 99.6719C333.49 98.526 332.15 97.6276 330.601 96.9766C329.051 96.3255 327.409 96 325.675 96C325.202 96 324.742 96.026 324.296 96.0781C323.849 96.1302 323.39 96.2083 322.917 96.3125C322.654 94.125 322.01 92.1068 320.986 90.2578C319.961 88.4089 318.674 86.7943 317.124 85.4141C315.574 84.0339 313.801 82.9531 311.805 82.1719C309.808 81.3906 307.707 81 305.5 81C303.661 81 301.888 81.2734 300.18 81.8203C298.473 82.3672 296.91 83.1354 295.491 84.125C294.073 85.1146 292.799 86.2995 291.669 87.6797C290.539 89.0599 289.659 90.6224 289.029 92.3672C287.059 91.4557 284.983 91 282.803 91C280.701 91 278.744 91.3906 276.932 92.1719C275.119 92.9531 273.517 94.0208 272.124 95.375C270.732 96.7292 269.642 98.3307 268.854 100.18C268.066 102.029 267.672 103.969 267.672 106C267.672 108.083 268.066 110.023 268.854 111.82C269.642 113.617 270.719 115.206 272.085 116.586C273.451 117.966 275.053 119.047 276.892 119.828C278.731 120.609 280.701 121 282.803 121H297.934V126H282.803C280.018 126 277.405 125.479 274.962 124.438C272.518 123.396 270.391 121.964 268.578 120.141C266.765 118.318 265.321 116.195 264.244 113.773C263.166 111.352 262.628 108.76 262.628 106C262.628 103.24 263.153 100.648 264.204 98.2266C265.255 95.8047 266.7 93.6953 268.539 91.8984C270.377 90.1016 272.518 88.6693 274.962 87.6016C277.405 86.5339 280.018 86 282.803 86C284.011 86 285.233 86.1172 286.468 86.3516C287.518 84.763 288.74 83.3307 290.132 82.0547C291.524 80.7786 293.035 79.6979 294.664 78.8125C296.292 77.9271 298.026 77.237 299.865 76.7422C301.704 76.2474 303.582 76 305.5 76C307.89 76 310.189 76.3646 312.396 77.0938C314.602 77.8229 316.651 78.8385 318.543 80.1406C320.434 81.4427 322.089 83.0312 323.508 84.9062C324.926 86.7812 326.03 88.8255 326.818 91.0391ZM313.814 115.258L308.022 109.555V136H302.978V109.555L297.186 115.258L293.639 111.742L305.5 99.9844L317.361 111.742L313.814 115.258Z" fill="#6C6C6C"/>
</g>
<defs>
<clipPath id="clip0_594_2196">
<rect width="80.7002" height="80" fill="white" transform="translate(262.628 61)"/>
</clipPath>
</defs>
</svg>
