<svg width="302" height="30" viewBox="0 0 302 30" fill="none" xmlns="http://www.w3.org/2000/svg">
<path d="M0.826125 1.672H8.52213V3.976H3.32213V6.088H8.23413V8.392H3.32213V10.696H8.81013V13H0.826125V1.672ZM14.9043 7.512C14.5523 7.07467 14.0883 6.856 13.5123 6.856C13.3096 6.856 13.1123 6.904 12.9203 7C12.7283 7.096 12.6323 7.26133 12.6323 7.496C12.6323 7.688 12.7283 7.832 12.9203 7.928C13.1229 8.01333 13.3736 8.09333 13.6723 8.168C13.9816 8.232 14.3069 8.30667 14.6483 8.392C15.0003 8.46667 15.3256 8.58933 15.6243 8.76C15.9336 8.93067 16.1843 9.16533 16.3763 9.464C16.5789 9.752 16.6803 10.1413 16.6803 10.632C16.6803 11.1333 16.5683 11.5493 16.3443 11.88C16.1309 12.2 15.8536 12.4613 15.5123 12.664C15.1709 12.856 14.7869 12.9893 14.3602 13.064C13.9336 13.1493 13.5123 13.192 13.0963 13.192C12.5523 13.192 12.0029 13.1173 11.4483 12.968C10.8936 12.808 10.4243 12.5307 10.0403 12.136L11.4963 10.52C11.7203 10.7973 11.9656 11.0107 12.2323 11.16C12.5096 11.2987 12.8296 11.368 13.1923 11.368C13.4696 11.368 13.7203 11.3307 13.9443 11.256C14.1683 11.1707 14.2803 11.0213 14.2803 10.808C14.2803 10.6053 14.1789 10.456 13.9763 10.36C13.7843 10.2533 13.5336 10.168 13.2243 10.104C12.9256 10.0293 12.6003 9.95467 12.2483 9.88C11.9069 9.79467 11.5816 9.672 11.2723 9.512C10.9736 9.352 10.7229 9.128 10.5203 8.84C10.3283 8.54133 10.2323 8.14667 10.2323 7.656C10.2323 7.19733 10.3229 6.80267 10.5043 6.472C10.6963 6.14133 10.9416 5.86933 11.2403 5.656C11.5496 5.44267 11.9016 5.288 12.2963 5.192C12.6909 5.08533 13.0909 5.032 13.4963 5.032C14.0083 5.032 14.5256 5.10667 15.0483 5.256C15.5709 5.40533 16.0136 5.672 16.3763 6.056L14.9043 7.512ZM23.1745 7.736C23.0572 7.56533 22.8918 7.42667 22.6785 7.32C22.4652 7.20267 22.2358 7.144 21.9905 7.144C21.3825 7.144 20.9078 7.32533 20.5665 7.688C20.2358 8.05067 20.0705 8.52533 20.0705 9.112C20.0705 9.69867 20.2358 10.1733 20.5665 10.536C20.9078 10.8987 21.3825 11.08 21.9905 11.08C22.2572 11.08 22.4865 11.0213 22.6785 10.904C22.8705 10.7867 23.0358 10.648 23.1745 10.488L24.7585 12.152C24.3852 12.536 23.9425 12.808 23.4305 12.968C22.9292 13.1173 22.4492 13.192 21.9905 13.192C21.3932 13.192 20.8278 13.096 20.2945 12.904C19.7718 12.712 19.3132 12.44 18.9185 12.088C18.5345 11.7253 18.2305 11.2933 18.0065 10.792C17.7825 10.2907 17.6705 9.73067 17.6705 9.112C17.6705 8.49333 17.7825 7.93333 18.0065 7.432C18.2305 6.93067 18.5345 6.504 18.9185 6.152C19.3132 5.78933 19.7718 5.512 20.2945 5.32C20.8278 5.128 21.3932 5.032 21.9905 5.032C22.4492 5.032 22.9292 5.112 23.4305 5.272C23.9425 5.42133 24.3852 5.688 24.7585 6.072L23.1745 7.736ZM25.3413 9.112C25.3413 8.49333 25.4533 7.93333 25.6773 7.432C25.9013 6.93067 26.2053 6.504 26.5893 6.152C26.9839 5.78933 27.4426 5.512 27.9653 5.32C28.4986 5.128 29.0639 5.032 29.6613 5.032C30.2586 5.032 30.8186 5.128 31.3413 5.32C31.8746 5.512 32.3333 5.78933 32.7173 6.152C33.1119 6.504 33.4213 6.93067 33.6453 7.432C33.8693 7.93333 33.9813 8.49333 33.9813 9.112C33.9813 9.73067 33.8693 10.2907 33.6453 10.792C33.4213 11.2933 33.1119 11.7253 32.7173 12.088C32.3333 12.44 31.8746 12.712 31.3413 12.904C30.8186 13.096 30.2586 13.192 29.6613 13.192C29.0639 13.192 28.4986 13.096 27.9653 12.904C27.4426 12.712 26.9839 12.44 26.5893 12.088C26.2053 11.7253 25.9013 11.2933 25.6773 10.792C25.4533 10.2907 25.3413 9.73067 25.3413 9.112ZM27.7413 9.112C27.7413 9.69867 27.9066 10.1733 28.2373 10.536C28.5786 10.8987 29.0533 11.08 29.6613 11.08C30.2693 11.08 30.7386 10.8987 31.0693 10.536C31.4106 10.1733 31.5813 9.69867 31.5813 9.112C31.5813 8.52533 31.4106 8.05067 31.0693 7.688C30.7386 7.32533 30.2693 7.144 29.6613 7.144C29.0533 7.144 28.5786 7.32533 28.2373 7.688C27.9066 8.05067 27.7413 8.52533 27.7413 9.112ZM35.4269 0.903999H37.8269V13H35.4269V0.903999ZM41.9511 0.903999V6.28H41.9831C42.0365 6.13067 42.1271 5.98133 42.2551 5.832C42.3831 5.68267 42.5378 5.54933 42.7191 5.432C42.9005 5.31467 43.1138 5.21867 43.3591 5.144C43.6045 5.06933 43.8711 5.032 44.1591 5.032C44.7671 5.032 45.2578 5.128 45.6311 5.32C46.0045 5.50133 46.2925 5.75733 46.4951 6.088C46.7085 6.41867 46.8525 6.808 46.9271 7.256C47.0018 7.704 47.0391 8.18933 47.0391 8.712V13H44.6391V9.192C44.6391 8.968 44.6285 8.73867 44.6071 8.504C44.5965 8.25867 44.5485 8.03467 44.4631 7.832C44.3885 7.62933 44.2658 7.464 44.0951 7.336C43.9351 7.208 43.7005 7.144 43.3911 7.144C43.0818 7.144 42.8311 7.20267 42.6391 7.32C42.4471 7.42667 42.2978 7.576 42.1911 7.768C42.0951 7.94933 42.0311 8.15733 41.9991 8.392C41.9671 8.62667 41.9511 8.872 41.9511 9.128V13H39.5511V0.903999H41.9511ZM56.0986 11.656C55.7146 12.1467 55.2293 12.5253 54.6426 12.792C54.056 13.0587 53.448 13.192 52.8186 13.192C52.2213 13.192 51.656 13.096 51.1226 12.904C50.6 12.712 50.1413 12.44 49.7466 12.088C49.3626 11.7253 49.0586 11.2933 48.8346 10.792C48.6106 10.2907 48.4986 9.73067 48.4986 9.112C48.4986 8.49333 48.6106 7.93333 48.8346 7.432C49.0586 6.93067 49.3626 6.504 49.7466 6.152C50.1413 5.78933 50.6 5.512 51.1226 5.32C51.656 5.128 52.2213 5.032 52.8186 5.032C53.3733 5.032 53.8746 5.128 54.3226 5.32C54.7813 5.512 55.1653 5.78933 55.4746 6.152C55.7946 6.504 56.04 6.93067 56.2106 7.432C56.3813 7.93333 56.4666 8.49333 56.4666 9.112V9.864H50.8986C50.9946 10.3227 51.2026 10.6907 51.5226 10.968C51.8426 11.2347 52.2373 11.368 52.7066 11.368C53.1013 11.368 53.432 11.2827 53.6986 11.112C53.976 10.9307 54.216 10.7013 54.4186 10.424L56.0986 11.656ZM54.0666 8.232C54.0773 7.82667 53.944 7.48 53.6666 7.192C53.3893 6.904 53.032 6.76 52.5946 6.76C52.328 6.76 52.0933 6.80267 51.8906 6.888C51.688 6.97333 51.512 7.08533 51.3626 7.224C51.224 7.352 51.112 7.50667 51.0266 7.688C50.952 7.85867 50.9093 8.04 50.8986 8.232H54.0666ZM70.1485 13H67.8445V11.944H67.8125C67.7272 12.0933 67.6152 12.2427 67.4765 12.392C67.3485 12.5413 67.1885 12.6747 66.9965 12.792C66.8045 12.9093 66.5858 13.0053 66.3405 13.08C66.0952 13.1547 65.8285 13.192 65.5405 13.192C64.9325 13.192 64.4365 13.1013 64.0525 12.92C63.6792 12.728 63.3858 12.4667 63.1725 12.136C62.9698 11.8053 62.8312 11.416 62.7565 10.968C62.6925 10.52 62.6605 10.0347 62.6605 9.512V5.224H65.0605V9.032C65.0605 9.256 65.0658 9.49067 65.0765 9.736C65.0978 9.97067 65.1458 10.1893 65.2205 10.392C65.3058 10.5947 65.4285 10.76 65.5885 10.888C65.7592 11.016 65.9992 11.08 66.3085 11.08C66.6178 11.08 66.8685 11.0267 67.0605 10.92C67.2525 10.8027 67.3965 10.6533 67.4925 10.472C67.5992 10.28 67.6685 10.0667 67.7005 9.832C67.7325 9.59733 67.7485 9.352 67.7485 9.096V5.224H70.1485V13ZM71.848 5.224H74.152V6.28H74.184C74.2587 6.13067 74.3653 5.98133 74.504 5.832C74.6427 5.68267 74.808 5.54933 75 5.432C75.192 5.31467 75.4107 5.21867 75.656 5.144C75.9013 5.06933 76.168 5.032 76.456 5.032C77 5.032 77.48 5.144 77.896 5.368C78.3227 5.592 78.6427 5.944 78.856 6.424C79.1333 5.92267 79.4693 5.56533 79.864 5.352C80.2587 5.13867 80.744 5.032 81.32 5.032C81.8427 5.032 82.28 5.12267 82.632 5.304C82.9947 5.47467 83.2773 5.71467 83.48 6.024C83.6933 6.32267 83.8427 6.68 83.928 7.096C84.024 7.50133 84.072 7.93867 84.072 8.408V13H81.672V8.472C81.672 8.10933 81.592 7.8 81.432 7.544C81.2827 7.27733 81.0107 7.144 80.616 7.144C80.3387 7.144 80.104 7.192 79.912 7.288C79.7307 7.37333 79.5813 7.496 79.464 7.656C79.3573 7.816 79.2773 8.00267 79.224 8.216C79.1813 8.42933 79.16 8.65333 79.16 8.888V13H76.76V8.888C76.76 8.74933 76.7547 8.57867 76.744 8.376C76.7333 8.17333 76.696 7.98133 76.632 7.8C76.568 7.61867 76.4613 7.464 76.312 7.336C76.1733 7.208 75.9653 7.144 75.688 7.144C75.3787 7.144 75.128 7.20267 74.936 7.32C74.744 7.42667 74.5947 7.576 74.488 7.768C74.392 7.94933 74.328 8.15733 74.296 8.392C74.264 8.62667 74.248 8.872 74.248 9.128V13H71.848V5.224ZM96.4563 5.224H98.8563V13H96.4563V5.224ZM96.2643 2.776C96.2643 2.392 96.3976 2.06667 96.6643 1.8C96.9416 1.52267 97.2723 1.384 97.6562 1.384C98.0403 1.384 98.3656 1.52267 98.6323 1.8C98.9096 2.06667 99.0483 2.392 99.0483 2.776C99.0483 3.16 98.9096 3.49067 98.6323 3.768C98.3656 4.03467 98.0403 4.168 97.6562 4.168C97.2723 4.168 96.9416 4.03467 96.6643 3.768C96.3976 3.49067 96.2643 3.16 96.2643 2.776ZM91.3363 7.144H89.7523V5.224H91.3363V3.848C91.3363 3.42133 91.3736 3.02133 91.4483 2.648C91.5229 2.264 91.6669 1.928 91.8803 1.64C92.0936 1.352 92.3976 1.128 92.7923 0.967999C93.1976 0.797333 93.7256 0.712 94.3763 0.712C94.6216 0.712 94.8616 0.722666 95.0963 0.743999C95.3309 0.765333 95.5603 0.802666 95.7843 0.855999L95.6723 2.888C95.5336 2.83467 95.4056 2.79733 95.2883 2.776C95.1709 2.744 95.0376 2.728 94.8883 2.728C94.5043 2.728 94.2163 2.81333 94.0243 2.984C93.8323 3.144 93.7363 3.48 93.7363 3.992V5.224H95.5123V7.144H93.7363V13H91.3363V7.144ZM105.846 7.736C105.729 7.56533 105.564 7.42667 105.35 7.32C105.137 7.20267 104.908 7.144 104.662 7.144C104.054 7.144 103.58 7.32533 103.238 7.688C102.908 8.05067 102.742 8.52533 102.742 9.112C102.742 9.69867 102.908 10.1733 103.238 10.536C103.58 10.8987 104.054 11.08 104.662 11.08C104.929 11.08 105.158 11.0213 105.35 10.904C105.542 10.7867 105.708 10.648 105.846 10.488L107.43 12.152C107.057 12.536 106.614 12.808 106.102 12.968C105.601 13.1173 105.121 13.192 104.662 13.192C104.065 13.192 103.5 13.096 102.966 12.904C102.444 12.712 101.985 12.44 101.59 12.088C101.206 11.7253 100.902 11.2933 100.678 10.792C100.454 10.2907 100.342 9.73067 100.342 9.112C100.342 8.49333 100.454 7.93333 100.678 7.432C100.902 6.93067 101.206 6.504 101.59 6.152C101.985 5.78933 102.444 5.512 102.966 5.32C103.5 5.128 104.065 5.032 104.662 5.032C105.121 5.032 105.601 5.112 106.102 5.272C106.614 5.42133 107.057 5.688 107.43 6.072L105.846 7.736ZM110.701 0.903999V6.28H110.733C110.786 6.13067 110.877 5.98133 111.005 5.832C111.133 5.68267 111.288 5.54933 111.469 5.432C111.65 5.31467 111.864 5.21867 112.109 5.144C112.354 5.06933 112.621 5.032 112.909 5.032C113.517 5.032 114.008 5.128 114.381 5.32C114.754 5.50133 115.042 5.75733 115.245 6.088C115.458 6.41867 115.602 6.808 115.677 7.256C115.752 7.704 115.789 8.18933 115.789 8.712V13H113.389V9.192C113.389 8.968 113.378 8.73867 113.357 8.504C113.346 8.25867 113.298 8.03467 113.213 7.832C113.138 7.62933 113.016 7.464 112.845 7.336C112.685 7.208 112.45 7.144 112.141 7.144C111.832 7.144 111.581 7.20267 111.389 7.32C111.197 7.42667 111.048 7.576 110.941 7.768C110.845 7.94933 110.781 8.15733 110.749 8.392C110.717 8.62667 110.701 8.872 110.701 9.128V13H108.301V0.903999H110.701ZM124.849 11.656C124.465 12.1467 123.979 12.5253 123.393 12.792C122.806 13.0587 122.198 13.192 121.569 13.192C120.971 13.192 120.406 13.096 119.873 12.904C119.35 12.712 118.891 12.44 118.497 12.088C118.113 11.7253 117.809 11.2933 117.585 10.792C117.361 10.2907 117.249 9.73067 117.249 9.112C117.249 8.49333 117.361 7.93333 117.585 7.432C117.809 6.93067 118.113 6.504 118.497 6.152C118.891 5.78933 119.35 5.512 119.873 5.32C120.406 5.128 120.971 5.032 121.569 5.032C122.123 5.032 122.625 5.128 123.073 5.32C123.531 5.512 123.915 5.78933 124.225 6.152C124.545 6.504 124.79 6.93067 124.961 7.432C125.131 7.93333 125.217 8.49333 125.217 9.112V9.864H119.649C119.745 10.3227 119.953 10.6907 120.273 10.968C120.593 11.2347 120.987 11.368 121.457 11.368C121.851 11.368 122.182 11.2827 122.449 11.112C122.726 10.9307 122.966 10.7013 123.169 10.424L124.849 11.656ZM122.817 8.232C122.827 7.82667 122.694 7.48 122.417 7.192C122.139 6.904 121.782 6.76 121.345 6.76C121.078 6.76 120.843 6.80267 120.641 6.888C120.438 6.97333 120.262 7.08533 120.113 7.224C119.974 7.352 119.862 7.50667 119.777 7.688C119.702 7.85867 119.659 8.04 119.649 8.232H122.817ZM126.708 5.224H129.108V13H126.708V5.224ZM126.516 2.776C126.516 2.392 126.649 2.06667 126.916 1.8C127.193 1.52267 127.524 1.384 127.908 1.384C128.292 1.384 128.617 1.52267 128.884 1.8C129.161 2.06667 129.3 2.392 129.3 2.776C129.3 3.16 129.161 3.49067 128.884 3.768C128.617 4.03467 128.292 4.168 127.908 4.168C127.524 4.168 127.193 4.03467 126.916 3.768C126.649 3.49067 126.516 3.16 126.516 2.776ZM130.832 5.224H133.232V6.472H133.264C133.52 5.992 133.824 5.63467 134.176 5.4C134.528 5.15467 134.971 5.032 135.504 5.032C135.643 5.032 135.782 5.03733 135.92 5.048C136.059 5.05867 136.187 5.08 136.304 5.112V7.304C136.134 7.25067 135.963 7.21333 135.792 7.192C135.632 7.16 135.462 7.144 135.28 7.144C134.822 7.144 134.459 7.208 134.192 7.336C133.926 7.464 133.718 7.64533 133.568 7.88C133.43 8.104 133.339 8.376 133.296 8.696C133.254 9.016 133.232 9.368 133.232 9.752V13H130.832V5.224ZM136.779 9.112C136.779 8.49333 136.891 7.93333 137.115 7.432C137.339 6.93067 137.643 6.504 138.027 6.152C138.421 5.78933 138.88 5.512 139.403 5.32C139.936 5.128 140.501 5.032 141.099 5.032C141.696 5.032 142.256 5.128 142.779 5.32C143.312 5.512 143.771 5.78933 144.155 6.152C144.549 6.504 144.859 6.93067 145.083 7.432C145.307 7.93333 145.419 8.49333 145.419 9.112C145.419 9.73067 145.307 10.2907 145.083 10.792C144.859 11.2933 144.549 11.7253 144.155 12.088C143.771 12.44 143.312 12.712 142.779 12.904C142.256 13.096 141.696 13.192 141.099 13.192C140.501 13.192 139.936 13.096 139.403 12.904C138.88 12.712 138.421 12.44 138.027 12.088C137.643 11.7253 137.339 11.2933 137.115 10.792C136.891 10.2907 136.779 9.73067 136.779 9.112ZM139.179 9.112C139.179 9.69867 139.344 10.1733 139.675 10.536C140.016 10.8987 140.491 11.08 141.099 11.08C141.707 11.08 142.176 10.8987 142.507 10.536C142.848 10.1733 143.019 9.69867 143.019 9.112C143.019 8.52533 142.848 8.05067 142.507 7.688C142.176 7.32533 141.707 7.144 141.099 7.144C140.491 7.144 140.016 7.32533 139.675 7.688C139.344 8.05067 139.179 8.52533 139.179 9.112ZM158.287 9.256C158.287 8.84 158.217 8.45067 158.079 8.088C157.951 7.72533 157.764 7.41067 157.519 7.144C157.273 6.87733 156.975 6.66933 156.623 6.52C156.281 6.36 155.892 6.28 155.455 6.28C155.017 6.28 154.623 6.36 154.271 6.52C153.929 6.66933 153.636 6.87733 153.391 7.144C153.156 7.41067 152.969 7.72533 152.831 8.088C152.703 8.45067 152.639 8.84 152.639 9.256C152.639 9.672 152.703 10.0613 152.831 10.424C152.969 10.7867 153.156 11.1013 153.391 11.368C153.636 11.6347 153.929 11.848 154.271 12.008C154.623 12.1573 155.017 12.232 155.455 12.232C155.892 12.232 156.281 12.1573 156.623 12.008C156.975 11.848 157.273 11.6347 157.519 11.368C157.764 11.1013 157.951 10.7867 158.079 10.424C158.217 10.0613 158.287 9.672 158.287 9.256ZM159.439 9.256C159.439 9.82133 159.337 10.344 159.135 10.824C158.943 11.304 158.671 11.72 158.319 12.072C157.967 12.424 157.545 12.7013 157.055 12.904C156.575 13.096 156.041 13.192 155.455 13.192C154.879 13.192 154.345 13.096 153.855 12.904C153.375 12.7013 152.959 12.424 152.607 12.072C152.255 11.72 151.977 11.304 151.775 10.824C151.583 10.344 151.487 9.82133 151.487 9.256C151.487 8.69067 151.583 8.168 151.775 7.688C151.977 7.208 152.255 6.792 152.607 6.44C152.959 6.088 153.375 5.816 153.855 5.624C154.345 5.42133 154.879 5.32 155.455 5.32C156.041 5.32 156.575 5.42133 157.055 5.624C157.545 5.816 157.967 6.088 158.319 6.44C158.671 6.792 158.943 7.208 159.135 7.688C159.337 8.168 159.439 8.69067 159.439 9.256ZM166.763 13C166.742 12.7973 166.726 12.6 166.715 12.408C166.715 12.2053 166.715 12.0027 166.715 11.8H166.683C166.566 12.0027 166.416 12.1893 166.235 12.36C166.054 12.5307 165.851 12.68 165.627 12.808C165.403 12.9253 165.163 13.016 164.907 13.08C164.662 13.1547 164.416 13.192 164.171 13.192C163.211 13.192 162.502 12.9413 162.043 12.44C161.584 11.928 161.355 11.2027 161.355 10.264V5.512H162.411V9.656C162.411 10.072 162.443 10.44 162.507 10.76C162.571 11.08 162.678 11.352 162.827 11.576C162.987 11.7893 163.195 11.9547 163.451 12.072C163.718 12.1787 164.048 12.232 164.443 12.232C164.496 12.232 164.646 12.2107 164.891 12.168C165.136 12.1253 165.392 12.008 165.659 11.816C165.936 11.624 166.182 11.336 166.395 10.952C166.608 10.568 166.715 10.0347 166.715 9.352V5.512H167.771V11.352C167.771 11.5547 167.776 11.8107 167.787 12.12C167.808 12.4293 167.83 12.7227 167.851 13H166.763ZM179.556 12.024H179.524C179.257 12.44 178.9 12.7387 178.452 12.92C178.015 13.1013 177.551 13.192 177.06 13.192C176.697 13.192 176.345 13.1387 176.004 13.032C175.673 12.936 175.38 12.7867 175.124 12.584C174.868 12.3813 174.665 12.1307 174.516 11.832C174.367 11.5333 174.292 11.1867 174.292 10.792C174.292 10.344 174.372 9.96533 174.532 9.656C174.703 9.34667 174.927 9.09067 175.204 8.888C175.492 8.68533 175.817 8.53067 176.18 8.424C176.543 8.30667 176.916 8.22133 177.3 8.168C177.695 8.11467 178.084 8.08267 178.468 8.072C178.863 8.06133 179.225 8.056 179.556 8.056C179.556 7.62933 179.401 7.29333 179.092 7.048C178.793 6.792 178.436 6.664 178.02 6.664C177.625 6.664 177.263 6.74933 176.932 6.92C176.612 7.08 176.324 7.304 176.068 7.592L174.788 6.28C175.236 5.864 175.759 5.55467 176.356 5.352C176.953 5.13867 177.572 5.032 178.212 5.032C178.916 5.032 179.492 5.12267 179.94 5.304C180.399 5.47467 180.761 5.73067 181.028 6.072C181.305 6.41333 181.497 6.83467 181.604 7.336C181.711 7.82667 181.764 8.39733 181.764 9.048V13H179.556V12.024ZM178.964 9.592C178.783 9.592 178.553 9.60267 178.276 9.624C178.009 9.63467 177.748 9.67733 177.492 9.752C177.247 9.82667 177.033 9.93867 176.852 10.088C176.681 10.2373 176.596 10.4453 176.596 10.712C176.596 11 176.719 11.2133 176.964 11.352C177.209 11.4907 177.465 11.56 177.732 11.56C177.967 11.56 178.191 11.528 178.404 11.464C178.628 11.4 178.825 11.3093 178.996 11.192C179.167 11.0747 179.3 10.9253 179.396 10.744C179.503 10.5627 179.556 10.3493 179.556 10.104V9.592H178.964ZM183.27 5.224H185.67V6.472H185.702C185.958 5.992 186.262 5.63467 186.614 5.4C186.966 5.15467 187.409 5.032 187.942 5.032C188.081 5.032 188.219 5.03733 188.358 5.048C188.497 5.05867 188.625 5.08 188.742 5.112V7.304C188.571 7.25067 188.401 7.21333 188.23 7.192C188.07 7.16 187.899 7.144 187.718 7.144C187.259 7.144 186.897 7.208 186.63 7.336C186.363 7.464 186.155 7.64533 186.006 7.88C185.867 8.104 185.777 8.376 185.734 8.696C185.691 9.016 185.67 9.368 185.67 9.752V13H183.27V5.224ZM189.786 5.224H192.186V6.472H192.218C192.474 5.992 192.778 5.63467 193.13 5.4C193.482 5.15467 193.924 5.032 194.458 5.032C194.596 5.032 194.735 5.03733 194.874 5.048C195.012 5.05867 195.14 5.08 195.258 5.112V7.304C195.087 7.25067 194.916 7.21333 194.746 7.192C194.586 7.16 194.415 7.144 194.234 7.144C193.775 7.144 193.412 7.208 193.146 7.336C192.879 7.464 192.671 7.64533 192.522 7.88C192.383 8.104 192.292 8.376 192.25 8.696C192.207 9.016 192.186 9.368 192.186 9.752V13H189.786V5.224ZM201.181 12.024H201.149C200.882 12.44 200.525 12.7387 200.077 12.92C199.64 13.1013 199.176 13.192 198.685 13.192C198.322 13.192 197.97 13.1387 197.629 13.032C197.298 12.936 197.005 12.7867 196.749 12.584C196.493 12.3813 196.29 12.1307 196.141 11.832C195.992 11.5333 195.917 11.1867 195.917 10.792C195.917 10.344 195.997 9.96533 196.157 9.656C196.328 9.34667 196.552 9.09067 196.829 8.888C197.117 8.68533 197.442 8.53067 197.805 8.424C198.168 8.30667 198.541 8.22133 198.925 8.168C199.32 8.11467 199.709 8.08267 200.093 8.072C200.488 8.06133 200.85 8.056 201.181 8.056C201.181 7.62933 201.026 7.29333 200.717 7.048C200.418 6.792 200.061 6.664 199.645 6.664C199.25 6.664 198.888 6.74933 198.557 6.92C198.237 7.08 197.949 7.304 197.693 7.592L196.413 6.28C196.861 5.864 197.384 5.55467 197.981 5.352C198.578 5.13867 199.197 5.032 199.837 5.032C200.541 5.032 201.117 5.12267 201.565 5.304C202.024 5.47467 202.386 5.73067 202.653 6.072C202.93 6.41333 203.122 6.83467 203.229 7.336C203.336 7.82667 203.389 8.39733 203.389 9.048V13H201.181V12.024ZM200.589 9.592C200.408 9.592 200.178 9.60267 199.901 9.624C199.634 9.63467 199.373 9.67733 199.117 9.752C198.872 9.82667 198.658 9.93867 198.477 10.088C198.306 10.2373 198.221 10.4453 198.221 10.712C198.221 11 198.344 11.2133 198.589 11.352C198.834 11.4907 199.09 11.56 199.357 11.56C199.592 11.56 199.816 11.528 200.029 11.464C200.253 11.4 200.45 11.3093 200.621 11.192C200.792 11.0747 200.925 10.9253 201.021 10.744C201.128 10.5627 201.181 10.3493 201.181 10.104V9.592H200.589ZM209.295 7.512C208.943 7.07467 208.479 6.856 207.903 6.856C207.7 6.856 207.503 6.904 207.311 7C207.119 7.096 207.023 7.26133 207.023 7.496C207.023 7.688 207.119 7.832 207.311 7.928C207.514 8.01333 207.764 8.09333 208.063 8.168C208.372 8.232 208.698 8.30667 209.039 8.392C209.391 8.46667 209.716 8.58933 210.015 8.76C210.324 8.93067 210.575 9.16533 210.767 9.464C210.97 9.752 211.071 10.1413 211.071 10.632C211.071 11.1333 210.959 11.5493 210.735 11.88C210.522 12.2 210.244 12.4613 209.903 12.664C209.562 12.856 209.178 12.9893 208.751 13.064C208.324 13.1493 207.903 13.192 207.487 13.192C206.943 13.192 206.394 13.1173 205.839 12.968C205.284 12.808 204.815 12.5307 204.431 12.136L205.887 10.52C206.111 10.7973 206.356 11.0107 206.623 11.16C206.9 11.2987 207.22 11.368 207.583 11.368C207.86 11.368 208.111 11.3307 208.335 11.256C208.559 11.1707 208.671 11.0213 208.671 10.808C208.671 10.6053 208.57 10.456 208.367 10.36C208.175 10.2533 207.924 10.168 207.615 10.104C207.316 10.0293 206.991 9.95467 206.639 9.88C206.298 9.79467 205.972 9.672 205.663 9.512C205.364 9.352 205.114 9.128 204.911 8.84C204.719 8.54133 204.623 8.14667 204.623 7.656C204.623 7.19733 204.714 6.80267 204.895 6.472C205.087 6.14133 205.332 5.86933 205.631 5.656C205.94 5.44267 206.292 5.288 206.687 5.192C207.082 5.08533 207.482 5.032 207.887 5.032C208.399 5.032 208.916 5.10667 209.439 5.256C209.962 5.40533 210.404 5.672 210.767 6.056L209.295 7.512ZM217.597 7.144H215.485V9.736C215.485 9.94933 215.496 10.1467 215.517 10.328C215.538 10.4987 215.586 10.648 215.661 10.776C215.736 10.904 215.848 11.0053 215.997 11.08C216.157 11.144 216.365 11.176 216.621 11.176C216.749 11.176 216.914 11.1653 217.117 11.144C217.33 11.112 217.49 11.048 217.597 10.952V12.952C217.33 13.048 217.053 13.112 216.765 13.144C216.477 13.176 216.194 13.192 215.917 13.192C215.512 13.192 215.138 13.1493 214.797 13.064C214.456 12.9787 214.157 12.8453 213.901 12.664C213.645 12.472 213.442 12.2267 213.293 11.928C213.154 11.6293 213.085 11.2667 213.085 10.84V7.144H211.549V5.224H213.085V2.92H215.485V5.224H217.597V7.144ZM226.177 11.656C225.793 12.1467 225.307 12.5253 224.721 12.792C224.134 13.0587 223.526 13.192 222.897 13.192C222.299 13.192 221.734 13.096 221.201 12.904C220.678 12.712 220.219 12.44 219.825 12.088C219.441 11.7253 219.137 11.2933 218.913 10.792C218.689 10.2907 218.577 9.73067 218.577 9.112C218.577 8.49333 218.689 7.93333 218.913 7.432C219.137 6.93067 219.441 6.504 219.825 6.152C220.219 5.78933 220.678 5.512 221.201 5.32C221.734 5.128 222.299 5.032 222.897 5.032C223.451 5.032 223.953 5.128 224.401 5.32C224.859 5.512 225.243 5.78933 225.553 6.152C225.873 6.504 226.118 6.93067 226.289 7.432C226.459 7.93333 226.545 8.49333 226.545 9.112V9.864H220.977C221.073 10.3227 221.281 10.6907 221.601 10.968C221.921 11.2347 222.315 11.368 222.785 11.368C223.179 11.368 223.51 11.2827 223.777 11.112C224.054 10.9307 224.294 10.7013 224.497 10.424L226.177 11.656ZM224.145 8.232C224.155 7.82667 224.022 7.48 223.745 7.192C223.467 6.904 223.11 6.76 222.673 6.76C222.406 6.76 222.171 6.80267 221.969 6.888C221.766 6.97333 221.59 7.08533 221.441 7.224C221.302 7.352 221.19 7.50667 221.105 7.688C221.03 7.85867 220.987 8.04 220.977 8.232H224.145ZM232.963 5.224H235.171V6.248H235.203C235.299 6.10933 235.421 5.97067 235.571 5.832C235.731 5.68267 235.912 5.54933 236.115 5.432C236.328 5.31467 236.557 5.21867 236.803 5.144C237.048 5.06933 237.309 5.032 237.587 5.032C238.163 5.032 238.685 5.13333 239.155 5.336C239.624 5.528 240.024 5.80533 240.355 6.168C240.696 6.52 240.957 6.94133 241.139 7.432C241.32 7.92267 241.411 8.46133 241.411 9.048C241.411 9.592 241.325 10.1147 241.155 10.616C240.995 11.1067 240.76 11.544 240.451 11.928C240.152 12.312 239.784 12.6213 239.347 12.856C238.909 13.08 238.413 13.192 237.859 13.192C237.357 13.192 236.888 13.1173 236.451 12.968C236.024 12.808 235.672 12.5413 235.395 12.168H235.363V16.648H232.963V5.224ZM235.171 9.112C235.171 9.69867 235.336 10.1733 235.667 10.536C236.008 10.8987 236.483 11.08 237.091 11.08C237.699 11.08 238.168 10.8987 238.499 10.536C238.84 10.1733 239.011 9.69867 239.011 9.112C239.011 8.52533 238.84 8.05067 238.499 7.688C238.168 7.32533 237.699 7.144 237.091 7.144C236.483 7.144 236.008 7.32533 235.667 7.688C235.336 8.05067 235.171 8.52533 235.171 9.112ZM247.697 12.024H247.665C247.398 12.44 247.041 12.7387 246.593 12.92C246.155 13.1013 245.691 13.192 245.201 13.192C244.838 13.192 244.486 13.1387 244.145 13.032C243.814 12.936 243.521 12.7867 243.265 12.584C243.009 12.3813 242.806 12.1307 242.657 11.832C242.507 11.5333 242.433 11.1867 242.433 10.792C242.433 10.344 242.513 9.96533 242.673 9.656C242.843 9.34667 243.067 9.09067 243.345 8.888C243.633 8.68533 243.958 8.53067 244.321 8.424C244.683 8.30667 245.057 8.22133 245.441 8.168C245.835 8.11467 246.225 8.08267 246.609 8.072C247.003 8.06133 247.366 8.056 247.697 8.056C247.697 7.62933 247.542 7.29333 247.233 7.048C246.934 6.792 246.577 6.664 246.161 6.664C245.766 6.664 245.403 6.74933 245.073 6.92C244.753 7.08 244.465 7.304 244.209 7.592L242.929 6.28C243.377 5.864 243.899 5.55467 244.497 5.352C245.094 5.13867 245.713 5.032 246.353 5.032C247.057 5.032 247.633 5.12267 248.081 5.304C248.539 5.47467 248.902 5.73067 249.169 6.072C249.446 6.41333 249.638 6.83467 249.745 7.336C249.851 7.82667 249.905 8.39733 249.905 9.048V13H247.697V12.024ZM247.105 9.592C246.923 9.592 246.694 9.60267 246.417 9.624C246.15 9.63467 245.889 9.67733 245.633 9.752C245.387 9.82667 245.174 9.93867 244.993 10.088C244.822 10.2373 244.737 10.4453 244.737 10.712C244.737 11 244.859 11.2133 245.105 11.352C245.35 11.4907 245.606 11.56 245.873 11.56C246.107 11.56 246.331 11.528 246.545 11.464C246.769 11.4 246.966 11.3093 247.137 11.192C247.307 11.0747 247.441 10.9253 247.537 10.744C247.643 10.5627 247.697 10.3493 247.697 10.104V9.592H247.105ZM251.411 5.224H253.811V6.472H253.843C254.099 5.992 254.403 5.63467 254.755 5.4C255.107 5.15467 255.549 5.032 256.083 5.032C256.221 5.032 256.36 5.03733 256.499 5.048C256.637 5.05867 256.765 5.08 256.883 5.112V7.304C256.712 7.25067 256.541 7.21333 256.371 7.192C256.211 7.16 256.04 7.144 255.859 7.144C255.4 7.144 255.037 7.208 254.771 7.336C254.504 7.464 254.296 7.64533 254.147 7.88C254.008 8.104 253.917 8.376 253.875 8.696C253.832 9.016 253.811 9.368 253.811 9.752V13H251.411V5.224ZM262.806 12.024H262.774C262.507 12.44 262.15 12.7387 261.702 12.92C261.265 13.1013 260.801 13.192 260.31 13.192C259.947 13.192 259.595 13.1387 259.254 13.032C258.923 12.936 258.63 12.7867 258.374 12.584C258.118 12.3813 257.915 12.1307 257.766 11.832C257.617 11.5333 257.542 11.1867 257.542 10.792C257.542 10.344 257.622 9.96533 257.782 9.656C257.953 9.34667 258.177 9.09067 258.454 8.888C258.742 8.68533 259.067 8.53067 259.43 8.424C259.793 8.30667 260.166 8.22133 260.55 8.168C260.945 8.11467 261.334 8.08267 261.718 8.072C262.113 8.06133 262.475 8.056 262.806 8.056C262.806 7.62933 262.651 7.29333 262.342 7.048C262.043 6.792 261.686 6.664 261.27 6.664C260.875 6.664 260.513 6.74933 260.182 6.92C259.862 7.08 259.574 7.304 259.318 7.592L258.038 6.28C258.486 5.864 259.009 5.55467 259.606 5.352C260.203 5.13867 260.822 5.032 261.462 5.032C262.166 5.032 262.742 5.12267 263.19 5.304C263.649 5.47467 264.011 5.73067 264.278 6.072C264.555 6.41333 264.747 6.83467 264.854 7.336C264.961 7.82667 265.014 8.39733 265.014 9.048V13H262.806V12.024ZM262.214 9.592C262.033 9.592 261.803 9.60267 261.526 9.624C261.259 9.63467 260.998 9.67733 260.742 9.752C260.497 9.82667 260.283 9.93867 260.102 10.088C259.931 10.2373 259.846 10.4453 259.846 10.712C259.846 11 259.969 11.2133 260.214 11.352C260.459 11.4907 260.715 11.56 260.982 11.56C261.217 11.56 261.441 11.528 261.654 11.464C261.878 11.4 262.075 11.3093 262.246 11.192C262.417 11.0747 262.55 10.9253 262.646 10.744C262.753 10.5627 262.806 10.3493 262.806 10.104V9.592H262.214ZM276.134 12.024H276.102C275.836 12.44 275.478 12.7387 275.03 12.92C274.593 13.1013 274.129 13.192 273.638 13.192C273.276 13.192 272.924 13.1387 272.582 13.032C272.252 12.936 271.958 12.7867 271.702 12.584C271.446 12.3813 271.244 12.1307 271.094 11.832C270.945 11.5333 270.87 11.1867 270.87 10.792C270.87 10.344 270.95 9.96533 271.11 9.656C271.281 9.34667 271.505 9.09067 271.782 8.888C272.07 8.68533 272.396 8.53067 272.758 8.424C273.121 8.30667 273.494 8.22133 273.878 8.168C274.273 8.11467 274.662 8.08267 275.046 8.072C275.441 8.06133 275.804 8.056 276.134 8.056C276.134 7.62933 275.98 7.29333 275.67 7.048C275.372 6.792 275.014 6.664 274.598 6.664C274.204 6.664 273.841 6.74933 273.51 6.92C273.19 7.08 272.902 7.304 272.646 7.592L271.366 6.28C271.814 5.864 272.337 5.55467 272.934 5.352C273.532 5.13867 274.15 5.032 274.79 5.032C275.494 5.032 276.07 5.12267 276.518 5.304C276.977 5.47467 277.34 5.73067 277.606 6.072C277.884 6.41333 278.076 6.83467 278.182 7.336C278.289 7.82667 278.342 8.39733 278.342 9.048V13H276.134V12.024ZM275.542 9.592C275.361 9.592 275.132 9.60267 274.854 9.624C274.588 9.63467 274.326 9.67733 274.07 9.752C273.825 9.82667 273.612 9.93867 273.43 10.088C273.26 10.2373 273.174 10.4453 273.174 10.712C273.174 11 273.297 11.2133 273.542 11.352C273.788 11.4907 274.044 11.56 274.31 11.56C274.545 11.56 274.769 11.528 274.982 11.464C275.206 11.4 275.404 11.3093 275.574 11.192C275.745 11.0747 275.878 10.9253 275.974 10.744C276.081 10.5627 276.134 10.3493 276.134 10.104V9.592H275.542ZM288.008 16.648H285.608V12.168H285.576C285.299 12.5413 284.941 12.808 284.504 12.968C284.077 13.1173 283.613 13.192 283.112 13.192C282.557 13.192 282.061 13.08 281.624 12.856C281.187 12.6213 280.813 12.312 280.504 11.928C280.205 11.544 279.971 11.1067 279.8 10.616C279.64 10.1147 279.56 9.592 279.56 9.048C279.56 8.46133 279.651 7.92267 279.832 7.432C280.013 6.94133 280.269 6.52 280.6 6.168C280.941 5.80533 281.347 5.528 281.816 5.336C282.285 5.13333 282.808 5.032 283.384 5.032C283.651 5.032 283.907 5.06933 284.152 5.144C284.408 5.21867 284.637 5.31467 284.84 5.432C285.053 5.54933 285.235 5.68267 285.384 5.832C285.544 5.97067 285.672 6.10933 285.768 6.248H285.8V5.224H288.008V16.648ZM285.8 9.112C285.8 8.52533 285.629 8.05067 285.288 7.688C284.957 7.32533 284.488 7.144 283.88 7.144C283.272 7.144 282.797 7.32533 282.456 7.688C282.125 8.05067 281.96 8.52533 281.96 9.112C281.96 9.69867 282.125 10.1733 282.456 10.536C282.797 10.8987 283.272 11.08 283.88 11.08C284.488 11.08 284.957 10.8987 285.288 10.536C285.629 10.1733 285.8 9.69867 285.8 9.112ZM297.414 13H295.11V11.944H295.078C294.993 12.0933 294.881 12.2427 294.742 12.392C294.614 12.5413 294.454 12.6747 294.262 12.792C294.07 12.9093 293.851 13.0053 293.606 13.08C293.361 13.1547 293.094 13.192 292.806 13.192C292.198 13.192 291.702 13.1013 291.318 12.92C290.945 12.728 290.651 12.4667 290.438 12.136C290.235 11.8053 290.097 11.416 290.022 10.968C289.958 10.52 289.926 10.0347 289.926 9.512V5.224H292.326V9.032C292.326 9.256 292.331 9.49067 292.342 9.736C292.363 9.97067 292.411 10.1893 292.486 10.392C292.571 10.5947 292.694 10.76 292.854 10.888C293.025 11.016 293.265 11.08 293.574 11.08C293.883 11.08 294.134 11.0267 294.326 10.92C294.518 10.8027 294.662 10.6533 294.758 10.472C294.865 10.28 294.934 10.0667 294.966 9.832C294.998 9.59733 295.014 9.352 295.014 9.096V5.224H297.414V13ZM299.146 5.224H301.546V13H299.146V5.224ZM298.954 2.776C298.954 2.392 299.087 2.06667 299.354 1.8C299.631 1.52267 299.962 1.384 300.346 1.384C300.73 1.384 301.055 1.52267 301.322 1.8C301.599 2.06667 301.738 2.392 301.738 2.776C301.738 3.16 301.599 3.49067 301.322 3.768C301.055 4.03467 300.73 4.168 300.346 4.168C299.962 4.168 299.631 4.03467 299.354 3.768C299.087 3.49067 298.954 3.16 298.954 2.776ZM83.682 28.208H87.642V29H82.818V20.504H83.682V28.208ZM89.682 21.224C89.682 21.392 89.622 21.532 89.502 21.644C89.382 21.748 89.25 21.8 89.106 21.8C88.962 21.8 88.83 21.748 88.71 21.644C88.59 21.532 88.53 21.392 88.53 21.224C88.53 21.056 88.59 20.92 88.71 20.816C88.83 20.704 88.962 20.648 89.106 20.648C89.25 20.648 89.382 20.704 89.502 20.816C89.622 20.92 89.682 21.056 89.682 21.224ZM89.502 29H88.71V23.384H89.502V29ZM91.4128 24.632C91.4128 24.424 91.4048 24.216 91.3888 24.008C91.3808 23.8 91.3688 23.592 91.3528 23.384H92.2048V24.236H92.2288C92.4208 23.908 92.6848 23.66 93.0208 23.492C93.3648 23.324 93.7048 23.24 94.0408 23.24C94.1928 23.24 94.3528 23.256 94.5208 23.288C94.6968 23.32 94.8648 23.38 95.0248 23.468C95.1848 23.548 95.3328 23.664 95.4688 23.816C95.6128 23.968 95.7328 24.164 95.8288 24.404C95.9888 24.044 96.2408 23.76 96.5848 23.552C96.9368 23.344 97.3008 23.24 97.6768 23.24C98.3968 23.24 98.9288 23.432 99.2728 23.816C99.6168 24.192 99.7888 24.732 99.7888 25.436V29H98.9968V25.724C98.9968 25.156 98.8968 24.72 98.6968 24.416C98.4968 24.112 98.1248 23.96 97.5808 23.96C97.2848 23.96 97.0368 24.02 96.8368 24.14C96.6368 24.252 96.4728 24.404 96.3448 24.596C96.2248 24.788 96.1368 25.008 96.0808 25.256C96.0248 25.496 95.9968 25.748 95.9968 26.012V29H95.2048V25.724C95.2048 25.156 95.1048 24.72 94.9048 24.416C94.7048 24.112 94.3328 23.96 93.7888 23.96C93.7408 23.96 93.6288 23.976 93.4528 24.008C93.2848 24.04 93.1088 24.128 92.9248 24.272C92.7408 24.416 92.5728 24.632 92.4208 24.92C92.2768 25.208 92.2048 25.608 92.2048 26.12V29H91.4128V24.632ZM102.784 21.224C102.784 21.392 102.724 21.532 102.604 21.644C102.484 21.748 102.352 21.8 102.208 21.8C102.064 21.8 101.932 21.748 101.812 21.644C101.692 21.532 101.632 21.392 101.632 21.224C101.632 21.056 101.692 20.92 101.812 20.816C101.932 20.704 102.064 20.648 102.208 20.648C102.352 20.648 102.484 20.704 102.604 20.816C102.724 20.92 102.784 21.056 102.784 21.224ZM102.604 29H101.812V23.384H102.604V29ZM107.418 24.104H105.798V27.416C105.798 27.624 105.818 27.796 105.858 27.932C105.898 28.06 105.954 28.16 106.026 28.232C106.098 28.304 106.182 28.356 106.278 28.388C106.382 28.412 106.494 28.424 106.614 28.424C106.75 28.424 106.89 28.404 107.034 28.364C107.178 28.324 107.31 28.272 107.43 28.208L107.466 28.94C107.17 29.076 106.814 29.144 106.398 29.144C106.246 29.144 106.086 29.124 105.918 29.084C105.758 29.044 105.61 28.968 105.474 28.856C105.338 28.744 105.226 28.592 105.138 28.4C105.05 28.208 105.006 27.956 105.006 27.644V24.104H103.818V23.384H105.006V21.8H105.798V23.384H107.418V24.104ZM112.867 25.76C112.867 25.224 112.707 24.792 112.387 24.464C112.067 24.128 111.619 23.96 111.043 23.96C110.787 23.96 110.539 24.012 110.299 24.116C110.059 24.212 109.847 24.344 109.663 24.512C109.487 24.68 109.343 24.872 109.231 25.088C109.127 25.304 109.075 25.528 109.075 25.76H112.867ZM109.051 26.408C109.075 26.688 109.143 26.952 109.255 27.2C109.367 27.448 109.515 27.664 109.699 27.848C109.883 28.024 110.095 28.164 110.335 28.268C110.575 28.372 110.835 28.424 111.115 28.424C111.539 28.424 111.903 28.328 112.207 28.136C112.519 27.936 112.755 27.708 112.915 27.452L113.527 27.956C113.191 28.38 112.819 28.684 112.411 28.868C112.011 29.052 111.579 29.144 111.115 29.144C110.699 29.144 110.311 29.072 109.951 28.928C109.599 28.776 109.295 28.568 109.039 28.304C108.783 28.04 108.579 27.728 108.427 27.368C108.283 27.008 108.211 26.616 108.211 26.192C108.211 25.768 108.283 25.376 108.427 25.016C108.571 24.656 108.771 24.344 109.027 24.08C109.283 23.816 109.583 23.612 109.927 23.468C110.271 23.316 110.643 23.24 111.043 23.24C111.467 23.24 111.847 23.316 112.183 23.468C112.519 23.62 112.799 23.824 113.023 24.08C113.255 24.328 113.431 24.624 113.551 24.968C113.671 25.304 113.731 25.664 113.731 26.048V26.408H109.051ZM118.987 26.192C118.987 26.504 119.035 26.796 119.131 27.068C119.235 27.34 119.379 27.576 119.563 27.776C119.747 27.976 119.967 28.136 120.223 28.256C120.487 28.368 120.783 28.424 121.111 28.424C121.431 28.424 121.727 28.368 121.999 28.256C122.279 28.136 122.519 27.976 122.719 27.776C122.919 27.576 123.075 27.34 123.187 27.068C123.299 26.796 123.355 26.504 123.355 26.192C123.355 25.88 123.299 25.588 123.187 25.316C123.075 25.044 122.919 24.808 122.719 24.608C122.519 24.408 122.279 24.252 121.999 24.14C121.727 24.02 121.431 23.96 121.111 23.96C120.783 23.96 120.487 24.02 120.223 24.14C119.967 24.252 119.747 24.408 119.563 24.608C119.379 24.808 119.235 25.044 119.131 25.316C119.035 25.588 118.987 25.88 118.987 26.192ZM124.111 29H123.319V28.064H123.295C123.167 28.256 123.015 28.42 122.839 28.556C122.663 28.692 122.479 28.804 122.287 28.892C122.095 28.98 121.895 29.044 121.687 29.084C121.487 29.124 121.295 29.144 121.111 29.144C120.671 29.144 120.267 29.072 119.899 28.928C119.539 28.776 119.227 28.568 118.963 28.304C118.699 28.04 118.491 27.728 118.339 27.368C118.195 27.008 118.123 26.616 118.123 26.192C118.123 25.768 118.195 25.376 118.339 25.016C118.491 24.656 118.699 24.344 118.963 24.08C119.227 23.816 119.539 23.612 119.899 23.468C120.267 23.316 120.671 23.24 121.111 23.24C121.295 23.24 121.487 23.26 121.687 23.3C121.895 23.34 122.095 23.404 122.287 23.492C122.479 23.58 122.663 23.692 122.839 23.828C123.015 23.964 123.167 24.128 123.295 24.32H123.319V19.928H124.111V29ZM130.211 25.76C130.211 25.224 130.051 24.792 129.731 24.464C129.411 24.128 128.963 23.96 128.387 23.96C128.131 23.96 127.883 24.012 127.643 24.116C127.403 24.212 127.191 24.344 127.007 24.512C126.831 24.68 126.687 24.872 126.575 25.088C126.471 25.304 126.419 25.528 126.419 25.76H130.211ZM126.395 26.408C126.419 26.688 126.487 26.952 126.599 27.2C126.711 27.448 126.859 27.664 127.043 27.848C127.227 28.024 127.439 28.164 127.679 28.268C127.919 28.372 128.179 28.424 128.459 28.424C128.883 28.424 129.247 28.328 129.551 28.136C129.863 27.936 130.099 27.708 130.259 27.452L130.871 27.956C130.535 28.38 130.163 28.684 129.755 28.868C129.355 29.052 128.923 29.144 128.459 29.144C128.043 29.144 127.655 29.072 127.295 28.928C126.943 28.776 126.639 28.568 126.383 28.304C126.127 28.04 125.923 27.728 125.771 27.368C125.627 27.008 125.555 26.616 125.555 26.192C125.555 25.768 125.627 25.376 125.771 25.016C125.915 24.656 126.115 24.344 126.371 24.08C126.627 23.816 126.927 23.612 127.271 23.468C127.615 23.316 127.987 23.24 128.387 23.24C128.811 23.24 129.191 23.316 129.527 23.468C129.863 23.62 130.143 23.824 130.367 24.08C130.599 24.328 130.775 24.624 130.895 24.968C131.015 25.304 131.075 25.664 131.075 26.048V26.408H126.395ZM138.754 24.104H137.134V27.416C137.134 27.624 137.154 27.796 137.194 27.932C137.234 28.06 137.29 28.16 137.362 28.232C137.434 28.304 137.518 28.356 137.614 28.388C137.718 28.412 137.83 28.424 137.95 28.424C138.086 28.424 138.226 28.404 138.37 28.364C138.514 28.324 138.646 28.272 138.766 28.208L138.802 28.94C138.506 29.076 138.15 29.144 137.734 29.144C137.582 29.144 137.422 29.124 137.254 29.084C137.094 29.044 136.946 28.968 136.81 28.856C136.674 28.744 136.562 28.592 136.474 28.4C136.386 28.208 136.342 27.956 136.342 27.644V24.104H135.154V23.384H136.342V21.8H137.134V23.384H138.754V24.104ZM143.027 26.204C142.827 26.204 142.575 26.216 142.271 26.24C141.975 26.256 141.687 26.304 141.407 26.384C141.135 26.456 140.899 26.572 140.699 26.732C140.507 26.892 140.411 27.112 140.411 27.392C140.411 27.576 140.447 27.736 140.519 27.872C140.599 28 140.703 28.108 140.831 28.196C140.959 28.276 141.099 28.336 141.251 28.376C141.411 28.408 141.571 28.424 141.731 28.424C142.019 28.424 142.267 28.376 142.475 28.28C142.691 28.184 142.871 28.056 143.015 27.896C143.159 27.728 143.263 27.536 143.327 27.32C143.399 27.096 143.435 26.86 143.435 26.612V26.204H143.027ZM143.435 25.556V25.412C143.435 24.444 142.955 23.96 141.995 23.96C141.339 23.96 140.767 24.18 140.279 24.62L139.799 24.056C140.327 23.512 141.119 23.24 142.175 23.24C142.447 23.24 142.707 23.28 142.955 23.36C143.211 23.44 143.431 23.564 143.615 23.732C143.799 23.892 143.947 24.096 144.059 24.344C144.171 24.592 144.227 24.888 144.227 25.232V27.74C144.227 27.956 144.235 28.184 144.251 28.424C144.275 28.656 144.299 28.848 144.323 29H143.555C143.531 28.864 143.511 28.716 143.495 28.556C143.487 28.396 143.483 28.24 143.483 28.088H143.459C143.227 28.464 142.951 28.736 142.631 28.904C142.319 29.064 141.935 29.144 141.479 29.144C141.231 29.144 140.991 29.108 140.759 29.036C140.527 28.972 140.319 28.872 140.135 28.736C139.959 28.592 139.815 28.42 139.703 28.22C139.599 28.012 139.547 27.772 139.547 27.5C139.547 27.044 139.663 26.688 139.895 26.432C140.135 26.168 140.431 25.972 140.783 25.844C141.143 25.716 141.523 25.636 141.923 25.604C142.331 25.572 142.703 25.556 143.039 25.556H143.435ZM146.057 24.632C146.057 24.424 146.049 24.216 146.033 24.008C146.025 23.8 146.013 23.592 145.997 23.384H146.849V24.236H146.873C147.065 23.908 147.329 23.66 147.665 23.492C148.009 23.324 148.349 23.24 148.685 23.24C148.837 23.24 148.997 23.256 149.165 23.288C149.341 23.32 149.509 23.38 149.669 23.468C149.829 23.548 149.977 23.664 150.113 23.816C150.257 23.968 150.377 24.164 150.473 24.404C150.633 24.044 150.885 23.76 151.229 23.552C151.581 23.344 151.945 23.24 152.321 23.24C153.041 23.24 153.573 23.432 153.917 23.816C154.261 24.192 154.433 24.732 154.433 25.436V29H153.641V25.724C153.641 25.156 153.541 24.72 153.341 24.416C153.141 24.112 152.769 23.96 152.225 23.96C151.929 23.96 151.681 24.02 151.481 24.14C151.281 24.252 151.117 24.404 150.989 24.596C150.869 24.788 150.781 25.008 150.725 25.256C150.669 25.496 150.641 25.748 150.641 26.012V29H149.849V25.724C149.849 25.156 149.749 24.72 149.549 24.416C149.349 24.112 148.977 23.96 148.433 23.96C148.385 23.96 148.273 23.976 148.097 24.008C147.929 24.04 147.753 24.128 147.569 24.272C147.385 24.416 147.217 24.632 147.065 24.92C146.921 25.208 146.849 25.608 146.849 26.12V29H146.057V24.632ZM159.468 26.204C159.268 26.204 159.016 26.216 158.712 26.24C158.416 26.256 158.128 26.304 157.848 26.384C157.576 26.456 157.34 26.572 157.14 26.732C156.948 26.892 156.852 27.112 156.852 27.392C156.852 27.576 156.888 27.736 156.96 27.872C157.04 28 157.144 28.108 157.272 28.196C157.4 28.276 157.54 28.336 157.692 28.376C157.852 28.408 158.012 28.424 158.172 28.424C158.46 28.424 158.708 28.376 158.916 28.28C159.132 28.184 159.312 28.056 159.456 27.896C159.6 27.728 159.704 27.536 159.768 27.32C159.84 27.096 159.876 26.86 159.876 26.612V26.204H159.468ZM159.876 25.556V25.412C159.876 24.444 159.396 23.96 158.436 23.96C157.78 23.96 157.208 24.18 156.72 24.62L156.24 24.056C156.768 23.512 157.56 23.24 158.616 23.24C158.888 23.24 159.148 23.28 159.396 23.36C159.652 23.44 159.872 23.564 160.056 23.732C160.24 23.892 160.388 24.096 160.5 24.344C160.612 24.592 160.668 24.888 160.668 25.232V27.74C160.668 27.956 160.676 28.184 160.692 28.424C160.716 28.656 160.74 28.848 160.764 29H159.996C159.972 28.864 159.952 28.716 159.936 28.556C159.928 28.396 159.924 28.24 159.924 28.088H159.9C159.668 28.464 159.392 28.736 159.072 28.904C158.76 29.064 158.376 29.144 157.92 29.144C157.672 29.144 157.432 29.108 157.2 29.036C156.968 28.972 156.76 28.872 156.576 28.736C156.4 28.592 156.256 28.42 156.144 28.22C156.04 28.012 155.988 27.772 155.988 27.5C155.988 27.044 156.104 26.688 156.336 26.432C156.576 26.168 156.872 25.972 157.224 25.844C157.584 25.716 157.964 25.636 158.364 25.604C158.772 25.572 159.144 25.556 159.48 25.556H159.876ZM163.255 23.384C163.271 23.536 163.279 23.688 163.279 23.84C163.287 23.984 163.291 24.132 163.291 24.284H163.315C163.403 24.132 163.515 23.992 163.651 23.864C163.787 23.736 163.939 23.628 164.107 23.54C164.275 23.444 164.451 23.372 164.635 23.324C164.827 23.268 165.015 23.24 165.199 23.24C165.919 23.24 166.451 23.432 166.795 23.816C167.139 24.192 167.311 24.732 167.311 25.436V29H166.519V25.892C166.519 25.268 166.411 24.792 166.195 24.464C165.979 24.128 165.579 23.96 164.995 23.96C164.955 23.96 164.843 23.976 164.659 24.008C164.475 24.04 164.279 24.128 164.071 24.272C163.871 24.416 163.691 24.632 163.531 24.92C163.371 25.208 163.291 25.608 163.291 26.12V29H162.499V24.62C162.499 24.468 162.491 24.276 162.475 24.044C162.467 23.812 162.455 23.592 162.439 23.384H163.255ZM169.167 19.928H169.959V24.284H169.983C170.071 24.132 170.183 23.992 170.319 23.864C170.455 23.736 170.607 23.628 170.775 23.54C170.943 23.444 171.119 23.372 171.303 23.324C171.495 23.268 171.683 23.24 171.867 23.24C172.587 23.24 173.119 23.432 173.463 23.816C173.807 24.192 173.979 24.732 173.979 25.436V29H173.187V25.892C173.187 25.268 173.079 24.792 172.863 24.464C172.647 24.128 172.247 23.96 171.663 23.96C171.623 23.96 171.511 23.976 171.327 24.008C171.143 24.04 170.947 24.128 170.739 24.272C170.539 24.416 170.359 24.632 170.199 24.92C170.039 25.208 169.959 25.608 169.959 26.12V29H169.167V19.928ZM180.647 26.192C180.647 25.88 180.595 25.588 180.491 25.316C180.395 25.044 180.255 24.808 180.071 24.608C179.887 24.408 179.663 24.252 179.399 24.14C179.143 24.02 178.851 23.96 178.523 23.96C178.195 23.96 177.899 24.02 177.635 24.14C177.379 24.252 177.159 24.408 176.975 24.608C176.799 24.808 176.659 25.044 176.555 25.316C176.459 25.588 176.411 25.88 176.411 26.192C176.411 26.504 176.459 26.796 176.555 27.068C176.659 27.34 176.799 27.576 176.975 27.776C177.159 27.976 177.379 28.136 177.635 28.256C177.899 28.368 178.195 28.424 178.523 28.424C178.851 28.424 179.143 28.368 179.399 28.256C179.663 28.136 179.887 27.976 180.071 27.776C180.255 27.576 180.395 27.34 180.491 27.068C180.595 26.796 180.647 26.504 180.647 26.192ZM181.511 26.192C181.511 26.616 181.435 27.008 181.283 27.368C181.139 27.728 180.935 28.04 180.671 28.304C180.407 28.568 180.091 28.776 179.723 28.928C179.363 29.072 178.963 29.144 178.523 29.144C178.091 29.144 177.691 29.072 177.323 28.928C176.963 28.776 176.651 28.568 176.387 28.304C176.123 28.04 175.915 27.728 175.763 27.368C175.619 27.008 175.547 26.616 175.547 26.192C175.547 25.768 175.619 25.376 175.763 25.016C175.915 24.656 176.123 24.344 176.387 24.08C176.651 23.816 176.963 23.612 177.323 23.468C177.691 23.316 178.091 23.24 178.523 23.24C178.963 23.24 179.363 23.316 179.723 23.468C180.091 23.612 180.407 23.816 180.671 24.08C180.935 24.344 181.139 24.656 181.283 25.016C181.435 25.376 181.511 25.768 181.511 26.192ZM184.4 28.424C184.4 28.592 184.34 28.744 184.22 28.88C184.1 29.008 183.944 29.072 183.752 29.072C183.56 29.072 183.404 29.008 183.284 28.88C183.164 28.744 183.104 28.592 183.104 28.424C183.104 28.256 183.164 28.108 183.284 27.98C183.404 27.844 183.56 27.776 183.752 27.776C183.944 27.776 184.1 27.844 184.22 27.98C184.34 28.108 184.4 28.256 184.4 28.424ZM184.4 23.972C184.4 24.14 184.34 24.292 184.22 24.428C184.1 24.556 183.944 24.62 183.752 24.62C183.56 24.62 183.404 24.556 183.284 24.428C183.164 24.292 183.104 24.14 183.104 23.972C183.104 23.804 183.164 23.656 183.284 23.528C183.404 23.392 183.56 23.324 183.752 23.324C183.944 23.324 184.1 23.392 184.22 23.528C184.34 23.656 184.4 23.804 184.4 23.972ZM192.94 29H192.076V21.584L190.552 22.928L190.012 22.28L192.172 20.504H192.94V29ZM198.768 21.152C198.304 21.152 197.936 21.276 197.664 21.524C197.4 21.772 197.2 22.08 197.064 22.448C196.928 22.816 196.84 23.208 196.8 23.624C196.768 24.04 196.752 24.416 196.752 24.752C196.752 25.088 196.768 25.464 196.8 25.88C196.84 26.296 196.928 26.688 197.064 27.056C197.2 27.424 197.4 27.732 197.664 27.98C197.936 28.228 198.304 28.352 198.768 28.352C199.232 28.352 199.596 28.228 199.86 27.98C200.132 27.732 200.336 27.424 200.472 27.056C200.608 26.688 200.692 26.296 200.724 25.88C200.764 25.464 200.784 25.088 200.784 24.752C200.784 24.416 200.764 24.04 200.724 23.624C200.692 23.208 200.608 22.816 200.472 22.448C200.336 22.08 200.132 21.772 199.86 21.524C199.596 21.276 199.232 21.152 198.768 21.152ZM198.768 20.36C199.376 20.36 199.868 20.5 200.244 20.78C200.62 21.06 200.912 21.416 201.12 21.848C201.328 22.28 201.468 22.756 201.54 23.276C201.612 23.788 201.648 24.28 201.648 24.752C201.648 25.224 201.612 25.72 201.54 26.24C201.468 26.752 201.328 27.224 201.12 27.656C200.912 28.088 200.62 28.444 200.244 28.724C199.868 29.004 199.376 29.144 198.768 29.144C198.16 29.144 197.668 29.004 197.292 28.724C196.916 28.444 196.624 28.088 196.416 27.656C196.208 27.224 196.068 26.752 195.996 26.24C195.924 25.72 195.888 25.224 195.888 24.752C195.888 24.28 195.924 23.788 195.996 23.276C196.068 22.756 196.208 22.28 196.416 21.848C196.624 21.416 196.916 21.06 197.292 20.78C197.668 20.5 198.16 20.36 198.768 20.36ZM207.44 27.416L210.308 20.504H211.628V29H210.764V21.656H210.74L207.668 29H207.212L204.14 21.656H204.116V29H203.252V20.504H204.572L207.44 27.416ZM214.791 28.208H216.447C216.759 28.208 217.051 28.176 217.323 28.112C217.595 28.048 217.831 27.952 218.031 27.824C218.231 27.688 218.387 27.52 218.499 27.32C218.619 27.12 218.679 26.88 218.679 26.6C218.679 26.04 218.499 25.624 218.139 25.352C217.779 25.08 217.251 24.944 216.555 24.944H214.791V28.208ZM214.791 24.224H216.531C216.739 24.224 216.943 24.2 217.143 24.152C217.351 24.096 217.535 24.008 217.695 23.888C217.863 23.768 217.999 23.616 218.103 23.432C218.207 23.24 218.259 23.008 218.259 22.736C218.259 22.648 218.239 22.524 218.199 22.364C218.167 22.204 218.087 22.044 217.959 21.884C217.839 21.724 217.659 21.588 217.419 21.476C217.179 21.356 216.855 21.296 216.447 21.296H214.791V24.224ZM213.927 20.504H216.459C216.811 20.504 217.151 20.54 217.479 20.612C217.807 20.684 218.099 20.804 218.355 20.972C218.611 21.14 218.815 21.36 218.967 21.632C219.119 21.904 219.195 22.24 219.195 22.64C219.195 23.104 219.063 23.504 218.799 23.84C218.543 24.168 218.175 24.388 217.695 24.5V24.524C218.295 24.572 218.763 24.784 219.099 25.16C219.443 25.528 219.615 26.024 219.615 26.648C219.615 26.784 219.579 26.984 219.507 27.248C219.443 27.512 219.303 27.776 219.087 28.04C218.871 28.296 218.559 28.52 218.151 28.712C217.743 28.904 217.199 29 216.519 29H213.927V20.504Z" fill="#6C6C6C"/>
</svg>
