<svg width="32" height="32" viewBox="0 0 32 32" fill="none" xmlns="http://www.w3.org/2000/svg">
<g clip-path="url(#clip0_630_2121)">
<path d="M31.6142 16.3976C31.2293 15.7774 30.5965 15.3491 29.8777 15.2224C29.1582 15.0957 28.4176 15.282 27.8385 15.7376L25.5607 17.5621C25.1842 17.1627 24.686 16.8898 24.1373 16.7931C23.4186 16.6664 22.6774 16.8527 22.1024 17.305L20.765 18.3621H17.3305C16.7816 18.3621 16.2329 18.2302 15.7438 17.9807L14.5201 17.3563C13.4889 16.8303 12.332 16.5756 11.1762 16.6203C9.57313 16.682 8.03858 17.3125 6.85541 18.3959L0.261526 24.4336C-0.0475578 24.7165 -0.0879379 25.1893 0.168513 25.5206L3.62117 29.9813C3.77896 30.1851 4.01687 30.2938 4.25862 30.2938C4.40501 30.2938 4.5529 30.2539 4.68512 30.1712L8.83724 27.5747C9.133 27.3897 9.47373 27.2919 9.82266 27.2919H19.4573C20.8255 27.2919 22.1683 26.8224 23.2384 25.9698L31.0316 19.7603C32.0501 18.9494 32.3003 17.5037 31.6142 16.3976ZM23.0999 18.57C23.3166 18.3994 23.5859 18.3318 23.8577 18.3796C24.0213 18.4085 24.1692 18.4769 24.2931 18.5774L22.9459 19.6566C22.8259 19.4317 22.6709 19.2284 22.4896 19.0523L23.0999 18.57ZM30.028 18.5004L22.2347 24.7099C21.4487 25.3362 20.4624 25.6812 19.4574 25.6812H9.82266C9.17136 25.6812 8.53518 25.8638 7.98307 26.209L4.44902 28.419L1.89633 25.121L7.94323 19.584C8.84544 18.758 10.0155 18.277 11.238 18.2301C12.1192 18.196 13.0015 18.3903 13.7878 18.7913L15.0116 19.4158C15.7262 19.7804 16.5281 19.9731 17.3303 19.9731H20.7934C21.2492 19.9731 21.6198 20.3439 21.6198 20.7997C21.6198 21.237 21.2778 21.5995 20.8412 21.6249L11.2043 22.1844C10.7601 22.2102 10.421 22.5911 10.4468 23.0352C10.4727 23.4793 10.8514 23.818 11.2977 23.7926L20.9345 23.233C21.9425 23.1745 22.7796 22.5067 23.0956 21.6007L28.84 16.9992C29.0569 16.8285 29.3265 16.7608 29.5979 16.8088C29.8697 16.8566 30.0995 17.0121 30.2451 17.2468C30.501 17.6592 30.4078 18.1979 30.028 18.5004Z" fill="black"/>
<path d="M15.8271 14.0292C19.2244 14.0292 21.9882 11.2654 21.9882 7.86814C21.9882 4.47088 19.2244 1.70703 15.8271 1.70703C12.4299 1.70703 9.66602 4.47078 9.66602 7.86814C9.66602 11.2655 12.4299 14.0292 15.8271 14.0292ZM15.8271 3.31797C18.3361 3.31797 20.3773 5.35925 20.3773 7.86814C20.3773 10.3771 18.336 12.4183 15.8271 12.4183C13.3181 12.4183 11.277 10.377 11.277 7.86814C11.277 5.35914 13.3182 3.31797 15.8271 3.31797Z" fill="black"/>
<path d="M15.6851 9.34856C15.4465 9.34856 15.1931 9.29039 14.9715 9.1847C14.8348 9.11939 14.6755 9.11544 14.5349 9.17351C14.3917 9.23253 14.2797 9.34995 14.2276 9.49527L14.2059 9.5559C14.1132 9.81522 14.2276 10.1026 14.4723 10.2244C14.6992 10.3373 14.9767 10.4189 15.2605 10.4568V10.6872C15.2605 10.9869 15.5044 11.2307 15.8115 11.2307C16.1113 11.2307 16.3551 10.9868 16.3551 10.6872V10.3932C17.0702 10.1773 17.529 9.58967 17.529 8.88158C17.529 7.90606 16.8094 7.48745 16.1838 7.23239C15.5068 6.95218 15.4559 6.82965 15.4559 6.67474C15.4559 6.47081 15.6332 6.34893 15.9304 6.34893C16.148 6.34893 16.3441 6.38792 16.5302 6.46836C16.6658 6.52685 16.816 6.52728 16.9528 6.46932C17.0891 6.41147 17.1975 6.29896 17.25 6.16024L17.2718 6.1026C17.3751 5.82984 17.2475 5.52619 16.9813 5.41145C16.8028 5.33442 16.6074 5.2805 16.3996 5.25078V5.04749C16.3996 4.74779 16.1557 4.50391 15.856 4.50391C15.5563 4.50391 15.3125 4.74779 15.3125 5.04749V5.31907C14.6188 5.52886 14.1906 6.07767 14.1906 6.76391C14.1906 7.66112 14.9109 8.0646 15.6121 8.33959C16.2065 8.58059 16.2562 8.77248 16.2562 8.93347C16.2561 9.23989 15.9486 9.34856 15.6851 9.34856Z" fill="black"/>
</g>
<defs>
<clipPath id="clip0_630_2121">
<rect width="32" height="32" fill="white"/>
</clipPath>
</defs>
</svg>
