<svg width="140" height="138" viewBox="0 0 140 138" fill="none" xmlns="http://www.w3.org/2000/svg">
<path d="M138.312 70.7018C136.628 67.7171 133.86 65.6559 130.715 65.0463C127.567 64.4366 124.327 65.3329 121.793 67.5254L111.828 76.3061C110.181 74.3838 108.002 73.0707 105.601 72.6051C102.456 71.9955 99.2136 72.8917 96.6979 75.0688L90.8471 80.1557H75.8209C73.4194 80.1557 71.0188 79.521 68.8793 78.3206L63.5253 75.3155C59.0141 72.784 53.9524 71.5586 48.8959 71.7734C41.8825 72.0703 35.1688 75.1047 29.9925 80.3188L1.14418 109.375C-0.208066 110.737 -0.384729 113.012 0.737245 114.606L15.8426 136.073C16.533 137.054 17.5738 137.577 18.6315 137.577C19.2719 137.577 19.9189 137.385 20.4974 136.987L38.6629 124.492C39.9569 123.601 41.4476 123.131 42.9742 123.131H85.1258C91.1118 123.131 96.9864 120.871 101.668 116.768L135.763 86.885C140.219 82.9825 141.314 76.0251 138.312 70.7018ZM101.062 81.1566C102.01 80.3352 103.188 80.0101 104.377 80.2404C105.093 80.3793 105.74 80.7085 106.282 81.192L100.388 86.3856C99.8634 85.3032 99.1852 84.3249 98.3923 83.4773L101.062 81.1566ZM131.373 80.8213L97.2768 110.705C93.8382 113.719 89.5232 115.379 85.1262 115.379H42.9742C40.1247 115.379 37.3415 116.258 34.926 117.919L19.4645 128.555L8.29647 112.683L34.7516 86.0364C38.6988 82.0611 43.8179 79.7466 49.1662 79.5205C53.0216 79.3564 56.8816 80.2916 60.3216 82.2216L65.6756 85.2268C68.8024 86.9814 72.3105 87.9089 75.82 87.9089H90.971C92.9651 87.9089 94.5868 89.6933 94.5868 91.8868C94.5868 93.9916 93.0905 95.7359 91.1803 95.858L49.0189 98.5509C47.0756 98.675 45.5919 100.508 45.7048 102.645C45.818 104.782 47.4751 106.412 49.4273 106.29L91.5887 103.597C95.9987 103.316 99.6606 100.102 101.043 95.7416L126.175 73.5968C127.124 72.7753 128.303 72.4497 129.491 72.6805C130.68 72.9107 131.686 73.6593 132.322 74.7884C133.442 76.7732 133.034 79.3656 131.373 80.8213Z" fill="black"/>
<path d="M69.2537 59.3007C84.1167 59.3007 96.2086 45.9997 96.2086 29.6504C96.2086 13.3011 84.1167 0 69.2537 0C54.3907 0 42.2988 13.3005 42.2988 29.6504C42.2988 46.0002 54.3907 59.3007 69.2537 59.3007ZM69.2537 7.75267C80.2306 7.75267 89.1607 17.5763 89.1607 29.6504C89.1607 41.7249 80.2301 51.548 69.2537 51.548C58.2768 51.548 49.3467 41.7244 49.3467 29.6504C49.3467 17.5758 58.2773 7.75267 69.2537 7.75267Z" fill="black"/>
<path d="M68.6197 36.7681C67.5756 36.7681 66.4671 36.4881 65.4976 35.9795C64.8995 35.6651 64.2027 35.6462 63.5874 35.9256C62.9609 36.2097 62.471 36.7747 62.243 37.4741L62.1479 37.7659C61.7424 39.0139 62.243 40.3967 63.3137 40.9828C64.3061 41.5263 65.5204 41.9191 66.7622 42.1016V43.2102C66.7622 44.6525 67.8291 45.8256 69.1725 45.8256C70.4842 45.8256 71.5507 44.652 71.5507 43.2102V41.7955C74.6794 40.7562 76.6865 37.9284 76.6865 34.5207C76.6865 29.826 73.5383 27.8115 70.8016 26.584C67.8394 25.2354 67.617 24.6458 67.617 23.9003C67.617 22.9189 68.3927 22.3323 69.6927 22.3323C70.645 22.3323 71.5027 22.52 72.317 22.9071C72.9104 23.1886 73.5672 23.1906 74.1657 22.9117C74.7623 22.6333 75.2364 22.0918 75.4662 21.4242L75.5613 21.1468C76.0134 19.8342 75.455 18.3729 74.2906 17.8207C73.5094 17.45 72.6545 17.1905 71.7455 17.0475V16.0691C71.7455 14.6268 70.6786 13.4531 69.3674 13.4531C68.0561 13.4531 66.9896 14.6268 66.9896 16.0691V17.3761C63.9547 18.3857 62.0813 21.0268 62.0813 24.3294C62.0813 28.6472 65.2323 30.589 68.3004 31.9124C70.9009 33.0722 71.1181 33.9957 71.1181 34.7704C71.1177 36.2451 69.7724 36.7681 68.6197 36.7681Z" fill="black"/>
</svg>
