<svg width="28" height="28" viewBox="0 0 28 28" fill="none" xmlns="http://www.w3.org/2000/svg">
<path d="M3.38983 0C2.49079 0 1.62857 0.421427 0.992858 1.17157C0.357142 1.92172 0 2.93913 0 4L0 24C0 25.0609 0.357142 26.0783 0.992858 26.8284C1.62857 27.5786 2.49079 28 3.38983 28H23.7288C24.6279 28 25.4901 27.5786 26.1258 26.8284C26.7615 26.0783 27.1186 25.0609 27.1186 24V4C27.1186 2.93913 26.7615 1.92172 26.1258 1.17157C25.4901 0.421427 24.6279 0 23.7288 0H3.38983ZM25.4237 4V8H1.69492V4C1.69492 3.46957 1.87349 2.96086 2.19134 2.58579C2.5092 2.21071 2.94031 2 3.38983 2H23.7288C24.1783 2 24.6094 2.21071 24.9273 2.58579C25.2452 2.96086 25.4237 3.46957 25.4237 4ZM3.38983 26C2.94031 26 2.5092 25.7893 2.19134 25.4142C1.87349 25.0391 1.69492 24.5304 1.69492 24V10H25.4237V24C25.4237 24.5304 25.2452 25.0391 24.9273 25.4142C24.6094 25.7893 24.1783 26 23.7288 26H3.38983Z" fill="black"/>
</svg>
