<svg width="22" height="22" viewBox="0 0 22 22" fill="none" xmlns="http://www.w3.org/2000/svg">
<path d="M0.518613 0.519589C0.663755 0.374079 0.836179 0.258632 1.02601 0.179862C1.21584 0.101092 1.41934 0.0605469 1.62486 0.0605469C1.83039 0.0605469 2.03389 0.101092 2.22372 0.179862C2.41355 0.258632 2.58597 0.374079 2.73111 0.519589L10.9999 8.79146L19.2686 0.519589C19.4139 0.374314 19.5864 0.259076 19.7762 0.180454C19.966 0.101831 20.1694 0.0613649 20.3749 0.0613649C20.5803 0.0613649 20.7838 0.101831 20.9736 0.180454C21.1634 0.259076 21.3358 0.374314 21.4811 0.519589C21.6264 0.664864 21.7416 0.83733 21.8202 1.02714C21.8989 1.21695 21.9393 1.42039 21.9393 1.62584C21.9393 1.83129 21.8989 2.03473 21.8202 2.22454C21.7416 2.41435 21.6264 2.58681 21.4811 2.73209L13.2092 11.0008L21.4811 19.2696C21.6264 19.4149 21.7416 19.5873 21.8202 19.7771C21.8989 19.967 21.9393 20.1704 21.9393 20.3758C21.9393 20.5813 21.8989 20.7847 21.8202 20.9745C21.7416 21.1643 21.6264 21.3368 21.4811 21.4821C21.3358 21.6274 21.1634 21.7426 20.9736 21.8212C20.7838 21.8998 20.5803 21.9403 20.3749 21.9403C20.1694 21.9403 19.966 21.8998 19.7762 21.8212C19.5864 21.7426 19.4139 21.6274 19.2686 21.4821L10.9999 13.2102L2.73111 21.4821C2.58584 21.6274 2.41337 21.7426 2.22356 21.8212C2.03375 21.8998 1.83031 21.9403 1.62486 21.9403C1.41941 21.9403 1.21597 21.8998 1.02616 21.8212C0.836353 21.7426 0.663887 21.6274 0.518613 21.4821C0.373338 21.3368 0.258099 21.1643 0.179477 20.9745C0.100855 20.7847 0.0603884 20.5813 0.0603884 20.3758C0.0603884 20.1704 0.100855 19.967 0.179477 19.7771C0.258099 19.5873 0.373338 19.4149 0.518613 19.2696L8.79049 11.0008L0.518613 2.73209C0.373102 2.58695 0.257656 2.41452 0.178885 2.22469C0.100115 2.03487 0.0595703 1.83136 0.0595703 1.62584C0.0595703 1.42032 0.100115 1.21681 0.178885 1.02698C0.257656 0.837155 0.373102 0.664732 0.518613 0.519589Z" fill="#04C6FB"/>
</svg>
