<svg width="30" height="26" viewBox="0 0 30 26" fill="none" xmlns="http://www.w3.org/2000/svg">
<path d="M14.9992 25.8262C14.8028 25.8256 14.6122 25.7599 14.457 25.6395C9.51479 21.7995 6.11034 18.4929 3.72812 15.2306C0.68812 11.0617 -0.00521362 7.21285 1.6659 3.79063C2.85701 1.34619 6.27923 -0.653813 10.2792 0.510631C12.1864 1.06151 13.8503 2.24288 14.9992 3.86174C16.1481 2.24288 17.8121 1.06151 19.7192 0.510631C23.7103 -0.636036 27.1415 1.34619 28.3326 3.79063C30.0037 7.21285 29.3103 11.0617 26.2703 15.2306C23.8881 18.4929 20.4837 21.7995 15.5415 25.6395C15.3863 25.7599 15.1956 25.8256 14.9992 25.8262ZM8.00368 1.95952C7.0519 1.92248 6.10801 2.14534 5.27331 2.60419C4.43862 3.06303 3.74465 3.74053 3.2659 4.56396C1.88812 7.39063 2.51034 10.5373 5.16812 14.1729C7.99263 17.816 11.3 21.0577 14.9992 23.8084C18.6978 21.0604 22.0052 17.8218 24.8303 14.1817C27.497 10.5373 28.1103 7.39063 26.7326 4.57285C25.8437 2.79508 23.177 1.38174 20.2081 2.2173C19.2562 2.49863 18.3736 2.97616 17.6174 3.61914C16.8611 4.26213 16.2478 5.05633 15.817 5.95063C15.75 6.11366 15.6361 6.25311 15.4897 6.35124C15.3433 6.44938 15.171 6.50177 14.9948 6.50177C14.8185 6.50177 14.6463 6.44938 14.4999 6.35124C14.3535 6.25311 14.2395 6.11366 14.1726 5.95063C13.745 5.05409 13.1328 4.25803 12.376 3.61465C11.6193 2.97126 10.7351 2.49507 9.78145 2.2173C9.20365 2.04948 8.60534 1.96272 8.00368 1.95952Z" fill="black"/>
</svg>
