<svg width="81" height="81" viewBox="0 0 81 81" fill="none" xmlns="http://www.w3.org/2000/svg">
<circle cx="40.5" cy="40.5" r="40" stroke="#04C6FB"/>
<circle cx="40.4543" cy="40.4543" r="32.4543" fill="#04C6FB"/>
<path d="M26 30C26 29.4696 26.2107 28.9609 26.5858 28.5858C26.9609 28.2107 27.4696 28 28 28H52C52.5304 28 53.0391 28.2107 53.4142 28.5858C53.7893 28.9609 54 29.4696 54 30H26ZM40 46C41.0609 46 42.0783 45.5786 42.8284 44.8284C43.5786 44.0783 44 43.0609 44 42C44 40.9391 43.5786 39.9217 42.8284 39.1716C42.0783 38.4214 41.0609 38 40 38C38.9391 38 37.9217 38.4214 37.1716 39.1716C36.4214 39.9217 36 40.9391 36 42C36 43.0609 36.4214 44.0783 37.1716 44.8284C37.9217 45.5786 38.9391 46 40 46Z" fill="white"/>
<path d="M24 34C24 33.4696 24.2107 32.9609 24.5858 32.5858C24.9609 32.2107 25.4696 32 26 32H54C54.5304 32 55.0391 32.2107 55.4142 32.5858C55.7893 32.9609 56 33.4696 56 34V50C56 50.5304 55.7893 51.0391 55.4142 51.4142C55.0391 51.7893 54.5304 52 54 52H26C25.4696 52 24.9609 51.7893 24.5858 51.4142C24.2107 51.0391 24 50.5304 24 50V34ZM30 34C30 35.0609 29.5786 36.0783 28.8284 36.8284C28.0783 37.5786 27.0609 38 26 38V46C27.0609 46 28.0783 46.4214 28.8284 47.1716C29.5786 47.9217 30 48.9391 30 50H50C50 48.9391 50.4214 47.9217 51.1716 47.1716C51.9217 46.4214 52.9391 46 54 46V38C52.9391 38 51.9217 37.5786 51.1716 36.8284C50.4214 36.0783 50 35.0609 50 34H30Z" fill="white"/>
</svg>
