<svg width="81" height="81" viewBox="0 0 81 81" fill="none" xmlns="http://www.w3.org/2000/svg">
<circle cx="40.5" cy="40.5" r="40" stroke="#04C6FB"/>
<circle cx="40.4543" cy="40.4543" r="32.4543" fill="white"/>
<g clip-path="url(#clip0_630_2767)">
<path d="M44.8756 42.4554C46.0898 42.875 47.1836 43.4598 48.1568 44.2098C49.13 44.9598 49.9604 45.8348 50.6479 46.8348C51.3354 47.8348 51.8622 48.9196 52.2282 50.0893C52.5943 51.2589 52.7773 52.4866 52.7773 53.7723H51.0631C51.0631 52.308 50.8041 50.9509 50.2863 49.7009C49.7684 48.4509 49.0452 47.3616 48.1166 46.433C47.1881 45.5045 46.1032 44.7857 44.8622 44.2768C43.6211 43.7679 42.2595 43.5045 40.7773 43.4866C39.822 43.4866 38.9023 43.6071 38.0184 43.8482C37.1345 44.0893 36.3131 44.4286 35.5541 44.8661C34.7952 45.3036 34.1032 45.8348 33.4782 46.4598C32.8532 47.0848 32.322 47.7768 31.8845 48.5357C31.447 49.2946 31.1032 50.1205 30.8532 51.0134C30.6032 51.9062 30.4827 52.8259 30.4916 53.7723H28.7773C28.7773 52.4866 28.9648 51.2589 29.3398 50.0893C29.7148 48.9196 30.2461 47.8393 30.9336 46.8482C31.6211 45.8571 32.4515 44.9911 33.4247 44.25C34.3979 43.5089 35.4916 42.9152 36.7059 42.4687C36.0095 42.0937 35.3845 41.6384 34.8309 41.1027C34.2773 40.567 33.8086 39.9732 33.4247 39.3214C33.0407 38.6696 32.7416 37.9687 32.5273 37.2187C32.3131 36.4687 32.2059 35.7009 32.2059 34.9152C32.2059 33.7277 32.4291 32.6161 32.8756 31.5804C33.322 30.5446 33.9336 29.6339 34.7104 28.8482C35.4872 28.0625 36.3934 27.4509 37.4291 27.0134C38.4648 26.5759 39.5809 26.3527 40.7773 26.3438C41.9648 26.3438 43.0765 26.567 44.1122 27.0134C45.1479 27.4598 46.0586 28.0714 46.8443 28.8482C47.63 29.625 48.2416 30.5312 48.6791 31.567C49.1166 32.6027 49.3398 33.7187 49.3488 34.9152C49.3488 35.7009 49.2461 36.4643 49.0407 37.2054C48.8354 37.9464 48.5363 38.6429 48.1434 39.2946C47.7506 39.9464 47.2818 40.5402 46.7372 41.0759C46.1925 41.6116 45.572 42.0714 44.8756 42.4554ZM33.9202 34.9152C33.9202 35.8616 34.0988 36.75 34.4559 37.5804C34.8131 38.4107 35.3041 39.1339 35.9291 39.75C36.5541 40.3661 37.2818 40.8571 38.1122 41.2232C38.9425 41.5893 39.8309 41.7723 40.7773 41.7723C41.7238 41.7723 42.6122 41.5937 43.4425 41.2366C44.2729 40.8795 44.9961 40.3884 45.6122 39.7634C46.2282 39.1384 46.7193 38.4107 47.0854 37.5804C47.4515 36.75 47.6345 35.8616 47.6345 34.9152C47.6345 33.9687 47.4559 33.0804 47.0988 32.25C46.7416 31.4196 46.2506 30.6964 45.6256 30.0804C45.0006 29.4643 44.2729 28.9732 43.4425 28.6071C42.6122 28.2411 41.7238 28.058 40.7773 28.058C39.8309 28.058 38.9425 28.2366 38.1122 28.5937C37.2818 28.9509 36.5586 29.442 35.9425 30.067C35.3265 30.692 34.8354 31.4196 34.4693 32.25C34.1032 33.0804 33.9202 33.9687 33.9202 34.9152Z" fill="#04C6FB"/>
</g>
<defs>
<clipPath id="clip0_630_2767">
<rect width="28.2211" height="28.2211" fill="white" transform="translate(27 26.3438)"/>
</clipPath>
</defs>
</svg>
