<svg width="81" height="81" viewBox="0 0 81 81" fill="none" xmlns="http://www.w3.org/2000/svg">
<circle cx="40.5" cy="40.5" r="40" stroke="#04C6FB"/>
<circle cx="40.4543" cy="40.4543" r="32.4543" fill="white"/>
<path d="M40 24C41.4688 24 42.8854 24.1875 44.25 24.5625C45.6146 24.9375 46.8854 25.4792 48.0625 26.1875C49.2396 26.8958 50.3177 27.7292 51.2969 28.6875C52.276 29.6458 53.1146 30.724 53.8125 31.9219C54.5104 33.1198 55.0469 34.3958 55.4219 35.75C55.7969 37.1042 55.9896 38.5208 56 40C56 41.4688 55.8125 42.8854 55.4375 44.25C55.0625 45.6146 54.5208 46.8854 53.8125 48.0625C53.1042 49.2396 52.2708 50.3177 51.3125 51.2969C50.3542 52.276 49.276 53.1146 48.0781 53.8125C46.8802 54.5104 45.6042 55.0469 44.25 55.4219C42.8958 55.7969 41.4792 55.9896 40 56C38.5312 56 37.1146 55.8125 35.75 55.4375C34.3854 55.0625 33.1146 54.5208 31.9375 53.8125C30.7604 53.1042 29.6823 52.2708 28.7031 51.3125C27.724 50.3542 26.8854 49.276 26.1875 48.0781C25.4896 46.8802 24.9531 45.6042 24.5781 44.25C24.2031 42.8958 24.0104 41.4792 24 40C24 38.5312 24.1875 37.1146 24.5625 35.75C24.9375 34.3854 25.4792 33.1146 26.1875 31.9375C26.8958 30.7604 27.7292 29.6823 28.6875 28.7031C29.6458 27.724 30.724 26.8854 31.9219 26.1875C33.1198 25.4896 34.3958 24.9531 35.75 24.5781C37.1042 24.2031 38.5208 24.0104 40 24ZM49.4219 34.7031L47.2969 32.5781L37 42.875L32.7031 38.5781L30.5781 40.7031L37 47.125L49.4219 34.7031Z" fill="#04C6FB"/>
</svg>
