<svg width="40" height="41" viewBox="0 0 40 41" fill="none" xmlns="http://www.w3.org/2000/svg">
<path fill-rule="evenodd" clip-rule="evenodd" d="M5 34.1953V17.9453H7.5V34.1953C7.5 34.5268 7.6317 34.8448 7.86612 35.0792C8.10054 35.3136 8.41848 35.4453 8.75 35.4453H31.25C31.5815 35.4453 31.8995 35.3136 32.1339 35.0792C32.3683 34.8448 32.5 34.5268 32.5 34.1953V17.9453H35V34.1953C35 35.1899 34.6049 36.1437 33.9017 36.847C33.1984 37.5502 32.2446 37.9453 31.25 37.9453H8.75C7.75544 37.9453 6.80161 37.5502 6.09835 36.847C5.39509 36.1437 5 35.1899 5 34.1953ZM32.5 6.69531V15.4453L27.5 10.4453V6.69531C27.5 6.36379 27.6317 6.04585 27.8661 5.81143C28.1005 5.57701 28.4185 5.44531 28.75 5.44531H31.25C31.5815 5.44531 31.8995 5.57701 32.1339 5.81143C32.3683 6.04585 32.5 6.36379 32.5 6.69531Z" fill="#04C6FB"/>
<path fill-rule="evenodd" clip-rule="evenodd" d="M18.2321 4.19681C18.7009 3.72813 19.3367 3.46484 19.9996 3.46484C20.6625 3.46484 21.2983 3.72813 21.7671 4.19681L38.3846 20.8118C38.6193 21.0465 38.7512 21.3649 38.7512 21.6968C38.7512 22.0288 38.6193 22.3471 38.3846 22.5818C38.1499 22.8165 37.8316 22.9484 37.4996 22.9484C37.1677 22.9484 36.8493 22.8165 36.6146 22.5818L19.9996 5.96431L3.38463 22.5818C3.14991 22.8165 2.83157 22.9484 2.49963 22.9484C2.16769 22.9484 1.84934 22.8165 1.61463 22.5818C1.37991 22.3471 1.24805 22.0288 1.24805 21.6968C1.24805 21.3649 1.37991 21.0465 1.61463 20.8118L18.2321 4.19681Z" fill="#04C6FB"/>
</svg>
