<svg width="73" height="72" viewBox="0 0 73 72" fill="none" xmlns="http://www.w3.org/2000/svg">
<g clip-path="url(#clip0_751_1474)">
<path d="M36.4629 67.5C28.1086 67.5 20.0964 64.1813 14.189 58.2739C8.28163 52.3665 4.96289 44.3543 4.96289 36C4.96289 27.6457 8.28163 19.6335 14.189 13.7261C20.0964 7.81874 28.1086 4.5 36.4629 4.5C44.8172 4.5 52.8294 7.81874 58.7368 13.7261C64.6441 19.6335 67.9629 27.6457 67.9629 36C67.9629 44.3543 64.6441 52.3665 58.7368 58.2739C52.8294 64.1813 44.8172 67.5 36.4629 67.5ZM36.4629 72C46.0107 72 55.1674 68.2072 61.9187 61.4558C68.67 54.7045 72.4629 45.5478 72.4629 36C72.4629 26.4522 68.67 17.2955 61.9187 10.5442C55.1674 3.79285 46.0107 0 36.4629 0C26.9151 0 17.7584 3.79285 11.007 10.5442C4.25574 17.2955 0.462891 26.4522 0.462891 36C0.462891 45.5478 4.25574 54.7045 11.007 61.4558C17.7584 68.2072 26.9151 72 36.4629 72Z" fill="#00B094"/>
<path d="M49.8289 22.3648C49.7969 22.3959 49.7668 22.4289 49.7389 22.4638L34.1104 42.3763L24.6919 32.9533C24.0521 32.3571 23.2059 32.0326 22.3316 32.048C21.4572 32.0634 20.623 32.4176 20.0046 33.036C19.3863 33.6544 19.0321 34.4886 19.0166 35.363C19.0012 36.2373 19.3258 37.0835 19.9219 37.7233L31.8289 49.6348C32.1497 49.955 32.5317 50.2073 32.9521 50.3767C33.3724 50.546 33.8226 50.629 34.2758 50.6206C34.7289 50.6122 35.1757 50.5126 35.5896 50.3278C36.0034 50.1429 36.3757 49.8767 36.6844 49.5448L54.6484 27.0898C55.2601 26.4478 55.5945 25.5908 55.5794 24.7042C55.5643 23.8176 55.2009 22.9725 54.5677 22.3517C53.9345 21.7309 53.0824 21.3843 52.1956 21.3867C51.3089 21.3892 50.4587 21.7405 49.8289 22.3648Z" fill="#00B094"/>
</g>
<defs>
<clipPath id="clip0_751_1474">
<rect width="72" height="72" fill="white" transform="translate(0.462891)"/>
</clipPath>
</defs>
</svg>
