<svg width="32" height="32" viewBox="0 0 32 32" fill="none" xmlns="http://www.w3.org/2000/svg">
<path d="M2 6C2 5.46957 2.21071 4.96086 2.58579 4.58579C2.96086 4.21071 3.46957 4 4 4H28C28.5304 4 29.0391 4.21071 29.4142 4.58579C29.7893 4.96086 30 5.46957 30 6H2ZM16 22C17.0609 22 18.0783 21.5786 18.8284 20.8284C19.5786 20.0783 20 19.0609 20 18C20 16.9391 19.5786 15.9217 18.8284 15.1716C18.0783 14.4214 17.0609 14 16 14C14.9391 14 13.9217 14.4214 13.1716 15.1716C12.4214 15.9217 12 16.9391 12 18C12 19.0609 12.4214 20.0783 13.1716 20.8284C13.9217 21.5786 14.9391 22 16 22Z" fill="black"/>
<path d="M0 10C0 9.46957 0.210714 8.96086 0.585786 8.58579C0.960859 8.21071 1.46957 8 2 8H30C30.5304 8 31.0391 8.21071 31.4142 8.58579C31.7893 8.96086 32 9.46957 32 10V26C32 26.5304 31.7893 27.0391 31.4142 27.4142C31.0391 27.7893 30.5304 28 30 28H2C1.46957 28 0.960859 27.7893 0.585786 27.4142C0.210714 27.0391 0 26.5304 0 26V10ZM6 10C6 11.0609 5.57857 12.0783 4.82843 12.8284C4.07828 13.5786 3.06087 14 2 14V22C3.06087 22 4.07828 22.4214 4.82843 23.1716C5.57857 23.9217 6 24.9391 6 26H26C26 24.9391 26.4214 23.9217 27.1716 23.1716C27.9217 22.4214 28.9391 22 30 22V14C28.9391 14 27.9217 13.5786 27.1716 12.8284C26.4214 12.0783 26 11.0609 26 10H6Z" fill="black"/>
</svg>
