<svg width="29" height="32" viewBox="0 0 29 32" fill="none" xmlns="http://www.w3.org/2000/svg">
<path d="M12 2.82813V8.00013H2C1.46957 8.00013 0.960859 8.21084 0.585786 8.58591C0.210714 8.96099 0 9.46969 0 10.0001V18.0001C0 18.5306 0.210714 19.0393 0.585786 19.4143C0.960859 19.7894 1.46957 20.0001 2 20.0001H12V32.0001H16V20.0001H23.064C23.3571 20 23.6467 19.9355 23.9121 19.811C24.1775 19.6866 24.4124 19.5054 24.6 19.2801L28.466 14.6401C28.6157 14.4604 28.6976 14.234 28.6976 14.0001C28.6976 13.7663 28.6157 13.5398 28.466 13.3601L24.6 8.72013C24.4124 8.49488 24.1775 8.31363 23.9121 8.18921C23.6467 8.06479 23.3571 8.00024 23.064 8.00013H16V2.82813C16 2.29769 15.7893 1.78898 15.4142 1.41391C15.0391 1.03884 14.5304 0.828125 14 0.828125C13.4696 0.828125 12.9609 1.03884 12.5858 1.41391C12.2107 1.78898 12 2.29769 12 2.82813ZM23.064 10.0001L26.396 14.0001L23.064 18.0001H2V10.0001H23.064Z" fill="black"/>
</svg>
