<svg width="40" height="41" viewBox="0 0 40 41" fill="none" xmlns="http://www.w3.org/2000/svg">
<g clip-path="url(#clip0_751_1469)">
<path d="M21.2511 16.7461C21.2511 16.4146 21.1194 16.0966 20.885 15.8622C20.6506 15.6278 20.3326 15.4961 20.0011 15.4961C19.6696 15.4961 19.3516 15.6278 19.1172 15.8622C18.8828 16.0966 18.7511 16.4146 18.7511 16.7461V26.2286L15.8861 23.3611C15.7699 23.2449 15.6319 23.1527 15.4801 23.0898C15.3282 23.0269 15.1655 22.9945 15.0011 22.9945C14.8367 22.9945 14.674 23.0269 14.5221 23.0898C14.3703 23.1527 14.2323 23.2449 14.1161 23.3611C13.9999 23.4773 13.9077 23.6153 13.8448 23.7671C13.7819 23.919 13.7495 24.0817 13.7495 24.2461C13.7495 24.4105 13.7819 24.5732 13.8448 24.7251C13.9077 24.8769 13.9999 25.0149 14.1161 25.1311L19.1161 30.1311C19.2322 30.2475 19.3701 30.3399 19.522 30.4029C19.6739 30.4659 19.8367 30.4983 20.0011 30.4983C20.1655 30.4983 20.3283 30.4659 20.4802 30.4029C20.632 30.3399 20.77 30.2475 20.8861 30.1311L25.8861 25.1311C26.0023 25.0149 26.0945 24.8769 26.1574 24.7251C26.2203 24.5732 26.2527 24.4105 26.2527 24.2461C26.2527 24.0817 26.2203 23.919 26.1574 23.7671C26.0945 23.6153 26.0023 23.4773 25.8861 23.3611C25.7699 23.2449 25.6319 23.1527 25.48 23.0898C25.3282 23.0269 25.1655 22.9945 25.0011 22.9945C24.8367 22.9945 24.674 23.0269 24.5221 23.0898C24.3703 23.1527 24.2323 23.2449 24.1161 23.3611L21.2511 26.2286V16.7461Z" fill="#04C6FB"/>
<path d="M35 35.4961V11.7461L23.75 0.496094H10C8.67392 0.496094 7.40215 1.02288 6.46447 1.96056C5.52678 2.89824 5 4.17001 5 5.49609V35.4961C5 36.8222 5.52678 38.0939 6.46447 39.0316C7.40215 39.9693 8.67392 40.4961 10 40.4961H30C31.3261 40.4961 32.5979 39.9693 33.5355 39.0316C34.4732 38.0939 35 36.8222 35 35.4961ZM23.75 7.99609C23.75 8.99066 24.1451 9.94448 24.8483 10.6477C25.5516 11.351 26.5054 11.7461 27.5 11.7461H32.5V35.4961C32.5 36.1591 32.2366 36.795 31.7678 37.2639C31.2989 37.7327 30.663 37.9961 30 37.9961H10C9.33696 37.9961 8.70107 37.7327 8.23223 37.2639C7.76339 36.795 7.5 36.1591 7.5 35.4961V5.49609C7.5 4.83305 7.76339 4.19717 8.23223 3.72833C8.70107 3.25949 9.33696 2.99609 10 2.99609H23.75V7.99609Z" fill="#04C6FB"/>
</g>
<defs>
<clipPath id="clip0_751_1469">
<rect width="40" height="40" fill="white" transform="translate(0 0.496094)"/>
</clipPath>
</defs>
</svg>
