<svg width="28" height="32" viewBox="0 0 28 32" fill="none" xmlns="http://www.w3.org/2000/svg">
<path d="M18.7813 18.7969C20.1979 19.2865 21.474 19.9688 22.6094 20.8438C23.7448 21.7188 24.7135 22.7396 25.5156 23.9062C26.3177 25.0729 26.9323 26.3385 27.3594 27.7031C27.7865 29.0677 28 30.5 28 32H26C26 30.2917 25.6979 28.7083 25.0938 27.25C24.4896 25.7917 23.6458 24.5208 22.5625 23.4375C21.4792 22.3542 20.2135 21.5156 18.7656 20.9219C17.3177 20.3281 15.7292 20.0208 14 20C12.8854 20 11.8125 20.1406 10.7813 20.4219C9.75 20.7031 8.79167 21.099 7.90625 21.6094C7.02083 22.1198 6.21354 22.7396 5.48438 23.4688C4.75521 24.1979 4.13542 25.0052 3.625 25.8906C3.11458 26.776 2.71354 27.7396 2.42188 28.7812C2.13021 29.8229 1.98958 30.8958 2 32H0C0 30.5 0.21875 29.0677 0.65625 27.7031C1.09375 26.3385 1.71354 25.0781 2.51563 23.9219C3.31771 22.7656 4.28646 21.7552 5.42188 20.8906C6.55729 20.026 7.83333 19.3333 9.25 18.8125C8.4375 18.375 7.70833 17.8438 7.0625 17.2188C6.41667 16.5938 5.86979 15.901 5.42188 15.1406C4.97396 14.3802 4.625 13.5625 4.375 12.6875C4.125 11.8125 4 10.9167 4 10C4 8.61458 4.26042 7.31771 4.78125 6.10938C5.30208 4.90104 6.01563 3.83854 6.92188 2.92188C7.82813 2.00521 8.88542 1.29167 10.0938 0.78125C11.3021 0.270833 12.6042 0.0104167 14 0C15.3854 0 16.6823 0.260417 17.8906 0.78125C19.099 1.30208 20.1615 2.01562 21.0781 2.92188C21.9948 3.82812 22.7083 4.88542 23.2188 6.09375C23.7292 7.30208 23.9896 8.60417 24 10C24 10.9167 23.8802 11.8073 23.6406 12.6719C23.401 13.5365 23.0521 14.349 22.5938 15.1094C22.1354 15.8698 21.5885 16.5625 20.9531 17.1875C20.3177 17.8125 19.5938 18.349 18.7813 18.7969ZM6 10C6 11.1042 6.20833 12.1406 6.625 13.1094C7.04167 14.0781 7.61458 14.9219 8.34375 15.6406C9.07292 16.3594 9.92188 16.9323 10.8906 17.3594C11.8594 17.7865 12.8958 18 14 18C15.1042 18 16.1406 17.7917 17.1094 17.375C18.0781 16.9583 18.9219 16.3854 19.6406 15.6562C20.3594 14.9271 20.9323 14.0781 21.3594 13.1094C21.7865 12.1406 22 11.1042 22 10C22 8.89583 21.7917 7.85938 21.375 6.89062C20.9583 5.92188 20.3854 5.07812 19.6563 4.35938C18.9271 3.64062 18.0781 3.06771 17.1094 2.64062C16.1406 2.21354 15.1042 2 14 2C12.8958 2 11.8594 2.20833 10.8906 2.625C9.92188 3.04167 9.07813 3.61458 8.35938 4.34375C7.64063 5.07292 7.06771 5.92188 6.64063 6.89062C6.21354 7.85938 6 8.89583 6 10Z" fill="black"/>
</svg>
