<svg width="81" height="81" viewBox="0 0 81 81" fill="none" xmlns="http://www.w3.org/2000/svg">
<circle cx="40.5" cy="40.5" r="40" stroke="#04C6FB" stroke-dasharray="2 2"/>
<circle cx="40.4543" cy="40.4543" r="32.4543" fill="white"/>
<g clip-path="url(#clip0_630_2281)">
<path d="M31.998 29.6875H29.998C28.9372 29.6875 27.9198 30.065 27.1696 30.737C26.4195 31.409 25.998 32.3205 25.998 33.2708V52.0833C25.998 53.0337 26.4195 53.9451 27.1696 54.6171C27.9198 55.2891 28.9372 55.6667 29.998 55.6667H49.998C51.0589 55.6667 52.0763 55.2891 52.8265 54.6171C53.5766 53.9451 53.998 53.0337 53.998 52.0833V33.2708C53.998 32.3205 53.5766 31.409 52.8265 30.737C52.0763 30.065 51.0589 29.6875 49.998 29.6875H47.998V31.4792H49.998C50.5285 31.4792 51.0372 31.6679 51.4123 32.0039C51.7873 32.3399 51.998 32.7957 51.998 33.2708V52.0833C51.998 52.5585 51.7873 53.0142 51.4123 53.3502C51.0372 53.6862 50.5285 53.875 49.998 53.875H29.998C29.4676 53.875 28.9589 53.6862 28.5838 53.3502C28.2088 53.0142 27.998 52.5585 27.998 52.0833V33.2708C27.998 32.7957 28.2088 32.3399 28.5838 32.0039C28.9589 31.6679 29.4676 31.4792 29.998 31.4792H31.998V29.6875Z" fill="#04C6FB"/>
<path d="M42.998 28.7917C43.2633 28.7917 43.5176 28.886 43.7052 29.054C43.8927 29.2221 43.998 29.4499 43.998 29.6875V31.4792C43.998 31.7168 43.8927 31.9446 43.7052 32.1126C43.5176 32.2806 43.2633 32.375 42.998 32.375H36.998C36.7328 32.375 36.4785 32.2806 36.2909 32.1126C36.1034 31.9446 35.998 31.7168 35.998 31.4792V29.6875C35.998 29.4499 36.1034 29.2221 36.2909 29.054C36.4785 28.886 36.7328 28.7917 36.998 28.7917H42.998ZM36.998 27C36.2024 27 35.4393 27.2831 34.8767 27.7872C34.3141 28.2912 33.998 28.9747 33.998 29.6875V31.4792C33.998 32.1919 34.3141 32.8755 34.8767 33.3795C35.4393 33.8835 36.2024 34.1667 36.998 34.1667H42.998C43.7937 34.1667 44.5568 33.8835 45.1194 33.3795C45.682 32.8755 45.998 32.1919 45.998 31.4792V29.6875C45.998 28.9747 45.682 28.2912 45.1194 27.7872C44.5568 27.2831 43.7937 27 42.998 27H36.998Z" fill="#04C6FB"/>
</g>
<defs>
<clipPath id="clip0_630_2281">
<rect width="32" height="28.6667" fill="white" transform="translate(23.998 27)"/>
</clipPath>
</defs>
</svg>
