<svg width="32" height="32" viewBox="0 0 32 32" fill="none" xmlns="http://www.w3.org/2000/svg">
<path d="M16.372 2.08251C16.1332 1.98635 15.8668 1.98635 15.628 2.08251L3.692 6.87955L8.5 8.81083L20.808 3.86507L16.372 2.08251ZM23.5 4.94827L11.192 9.89403L16 11.8253L28.308 6.87955L23.5 4.94827ZM30 8.36469L17 13.5898V29.5103L30 24.2852V8.3667V8.36469ZM15 29.5123V13.5878L2 8.36469V24.2872L15 29.5123ZM14.886 0.215537C15.6011 -0.0718455 16.3989 -0.0718455 17.114 0.215537L31.372 5.94707C31.5574 6.02172 31.7163 6.15043 31.8282 6.31663C31.9401 6.48282 32 6.67888 32 6.87955V24.2872C31.9997 24.6888 31.8798 25.081 31.6555 25.4135C31.4313 25.7459 31.1131 26.0032 30.742 26.1521L16.372 31.9279C16.1332 32.024 15.8668 32.024 15.628 31.9279L1.26 26.1521C0.888502 26.0035 0.569885 25.7463 0.345284 25.4139C0.120683 25.0814 0.000412659 24.689 0 24.2872L0 6.87955C4.64799e-05 6.67888 0.0598875 6.48282 0.171814 6.31663C0.283741 6.15043 0.442625 6.02172 0.628 5.94707L14.886 0.215537Z" fill="black"/>
</svg>
