<svg width="17" height="17" viewBox="0 0 17 17" fill="none" xmlns="http://www.w3.org/2000/svg">
<g clip-path="url(#clip0_630_2695)">
<path d="M7.3418 6.44531C7.3418 6.1801 7.44715 5.92574 7.63469 5.73821C7.82223 5.55067 8.07658 5.44531 8.3418 5.44531C8.60701 5.44531 8.86137 5.55067 9.0489 5.73821C9.23644 5.92574 9.3418 6.1801 9.3418 6.44531V7.44531H7.3418V6.44531ZM6.3418 8.74531C6.3418 8.70331 6.3618 8.63831 6.4468 8.57031C6.56086 8.4858 6.69988 8.4418 6.8418 8.44531H9.8418C9.98368 8.44203 10.1226 8.486 10.2368 8.57031C10.3218 8.63831 10.3418 8.70331 10.3418 8.74531V11.1453C10.3418 11.1873 10.3218 11.2523 10.2368 11.3203C10.1227 11.4048 9.98371 11.4488 9.8418 11.4453H6.8418C6.69988 11.4488 6.56086 11.4048 6.4468 11.3203C6.3618 11.2523 6.3418 11.1873 6.3418 11.1453V8.74531Z" fill="black"/>
<path d="M12.3418 0.445313H4.3418C3.81136 0.445313 3.30266 0.656026 2.92758 1.0311C2.55251 1.40617 2.3418 1.91488 2.3418 2.44531V14.4453C2.3418 14.9757 2.55251 15.4845 2.92758 15.8595C3.30266 16.2346 3.81136 16.4453 4.3418 16.4453H12.3418C12.8722 16.4453 13.3809 16.2346 13.756 15.8595C14.1311 15.4845 14.3418 14.9757 14.3418 14.4453V2.44531C14.3418 1.91488 14.1311 1.40617 13.756 1.0311C13.3809 0.656026 12.8722 0.445313 12.3418 0.445312V0.445313ZM10.3418 6.44531V7.52131C10.8818 7.68731 11.3418 8.11831 11.3418 8.74531V11.1453C11.3418 11.9613 10.5608 12.4453 9.8418 12.4453H6.8418C6.1228 12.4453 5.3418 11.9613 5.3418 11.1453V8.74531C5.3418 8.11831 5.8018 7.68731 6.3418 7.52131V6.44531C6.3418 5.91488 6.55251 5.40617 6.92758 5.0311C7.30266 4.65603 7.81136 4.44531 8.3418 4.44531C8.87223 4.44531 9.38094 4.65603 9.75601 5.0311C10.1311 5.40617 10.3418 5.91488 10.3418 6.44531Z" fill="black"/>
</g>
<defs>
<clipPath id="clip0_630_2695">
<rect width="16" height="16" fill="white" transform="translate(0.341797 0.445312)"/>
</clipPath>
</defs>
</svg>
