<svg width="40" height="40" viewBox="0 0 40 40" fill="none" xmlns="http://www.w3.org/2000/svg">
<g clip-path="url(#clip0_594_2169)">
<path d="M30 2.5C30.663 2.5 31.2989 2.76339 31.7678 3.23223C32.2366 3.70107 32.5 4.33696 32.5 5V31.8875C32.5 31.8875 30 27.5 20 27.5C10 27.5 7.5 31.8875 7.5 31.8875V5C7.5 4.33696 7.76339 3.70107 8.23223 3.23223C8.70107 2.76339 9.33696 2.5 10 2.5H30ZM10 0C8.67392 0 7.40215 0.526784 6.46447 1.46447C5.52678 2.40215 5 3.67392 5 5V35C5 36.3261 5.52678 37.5979 6.46447 38.5355C7.40215 39.4732 8.67392 40 10 40H30C31.3261 40 32.5979 39.4732 33.5355 38.5355C34.4732 37.5979 35 36.3261 35 35V5C35 3.67392 34.4732 2.40215 33.5355 1.46447C32.5979 0.526784 31.3261 0 30 0L10 0Z" fill="black"/>
<path d="M20 25C20.9849 25 21.9602 24.806 22.8701 24.4291C23.7801 24.0522 24.6069 23.4997 25.3033 22.8033C25.9997 22.1069 26.5522 21.2801 26.9291 20.3701C27.306 19.4602 27.5 18.4849 27.5 17.5C27.5 16.5151 27.306 15.5398 26.9291 14.6299C26.5522 13.7199 25.9997 12.8931 25.3033 12.1967C24.6069 11.5003 23.7801 10.9478 22.8701 10.5709C21.9602 10.194 20.9849 10 20 10C18.0109 10 16.1032 10.7902 14.6967 12.1967C13.2902 13.6032 12.5 15.5109 12.5 17.5C12.5 19.4891 13.2902 21.3968 14.6967 22.8033C16.1032 24.2098 18.0109 25 20 25Z" fill="black"/>
</g>
<defs>
<clipPath id="clip0_594_2169">
<rect width="40" height="40" fill="white"/>
</clipPath>
</defs>
</svg>
