<svg width="40" height="36" viewBox="0 0 40 36" fill="none" xmlns="http://www.w3.org/2000/svg">
<path d="M10 3.375H7.5C6.17392 3.375 4.90215 3.84911 3.96447 4.69302C3.02678 5.53693 2.5 6.68153 2.5 7.875V31.5C2.5 32.6935 3.02678 33.8381 3.96447 34.682C4.90215 35.5259 6.17392 36 7.5 36H32.5C33.8261 36 35.0979 35.5259 36.0355 34.682C36.9732 33.8381 37.5 32.6935 37.5 31.5V7.875C37.5 6.68153 36.9732 5.53693 36.0355 4.69302C35.0979 3.84911 33.8261 3.375 32.5 3.375H30V5.625H32.5C33.163 5.625 33.7989 5.86205 34.2678 6.28401C34.7366 6.70597 35 7.27826 35 7.875V31.5C35 32.0967 34.7366 32.669 34.2678 33.091C33.7989 33.5129 33.163 33.75 32.5 33.75H7.5C6.83696 33.75 6.20107 33.5129 5.73223 33.091C5.26339 32.669 5 32.0967 5 31.5V7.875C5 7.27826 5.26339 6.70597 5.73223 6.28401C6.20107 5.86205 6.83696 5.625 7.5 5.625H10V3.375Z" fill="black"/>
<path d="M23.75 2.25C24.0815 2.25 24.3995 2.36853 24.6339 2.5795C24.8683 2.79048 25 3.07663 25 3.375V5.625C25 5.92337 24.8683 6.20952 24.6339 6.4205C24.3995 6.63147 24.0815 6.75 23.75 6.75H16.25C15.9185 6.75 15.6005 6.63147 15.3661 6.4205C15.1317 6.20952 15 5.92337 15 5.625V3.375C15 3.07663 15.1317 2.79048 15.3661 2.5795C15.6005 2.36853 15.9185 2.25 16.25 2.25H23.75ZM16.25 0C15.2554 0 14.3016 0.355579 13.5983 0.988515C12.8951 1.62145 12.5 2.47989 12.5 3.375V5.625C12.5 6.52011 12.8951 7.37855 13.5983 8.01149C14.3016 8.64442 15.2554 9 16.25 9H23.75C24.7446 9 25.6984 8.64442 26.4017 8.01149C27.1049 7.37855 27.5 6.52011 27.5 5.625V3.375C27.5 2.47989 27.1049 1.62145 26.4017 0.988515C25.6984 0.355579 24.7446 0 23.75 0L16.25 0Z" fill="black"/>
</svg>
